<?xml version="1.0" standalone="no"?>
<!DOCTYPE svg PUBLIC "-//W3C//DTD SVG 20010904//EN"
 "http://www.w3.org/TR/2001/REC-SVG-20010904/DTD/svg10.dtd">
<svg version="1.0" xmlns="http://www.w3.org/2000/svg"
 width="1280.000000pt" height="1280.000000pt" viewBox="0 0 1280.000000 1280.000000"
 preserveAspectRatio="xMidYMid meet">

<g transform="translate(0.000000,1280.000000) scale(0.100000,-0.100000)"
fill="#000000" stroke="none">
<path d="M0 6400 l0 -6400 1870 0 c1240 0 1870 3 1870 10 0 6 -15 10 -32 10
-28 1 -30 2 -15 11 26 15 11 29 -24 22 -30 -6 -30 -5 -18 16 8 11 17 21 21 21
5 0 8 5 8 10 0 6 -18 10 -40 10 -22 0 -40 5 -40 10 0 6 -7 10 -17 10 -14 0
-14 2 3 21 18 20 18 20 -9 14 -32 -8 -35 5 -7 30 11 10 20 22 20 28 0 9 -38 5
-70 -8 -11 -4 -19 5 -29 30 -11 31 -16 35 -46 35 -26 0 -33 3 -29 15 4 10 0
15 -15 15 -12 0 -21 5 -21 11 0 7 -12 10 -30 7 -44 -7 -37 7 15 29 25 10 45
21 45 25 0 4 -22 4 -50 1 -36 -4 -50 -2 -50 7 0 7 -6 10 -12 7 -7 -2 -22 -1
-33 4 -17 6 -17 8 -2 8 24 1 22 21 -3 21 -27 0 -25 6 8 35 l27 24 -35 -9 c-19
-6 -48 -9 -65 -9 -17 1 -22 3 -12 6 9 2 17 8 17 13 0 5 -7 7 -15 4 -25 -10
-49 4 -36 20 14 17 4 26 -28 26 l-26 0 30 25 30 25 -30 -6 c-16 -3 -43 -10
-59 -15 -42 -13 -50 -11 -30 9 17 16 17 17 0 20 -13 3 -15 7 -5 18 6 8 17 14
25 14 7 0 16 5 20 11 7 12 -45 6 -84 -8 -15 -6 -15 -5 -3 10 12 15 10 17 -23
17 -39 0 -47 13 -19 29 27 15 12 20 -34 11 -51 -9 -54 -5 -10 14 l32 14 -35 2
c-19 1 -46 5 -60 9 -23 7 -22 9 20 20 24 7 54 20 65 28 19 14 17 15 -24 10
-52 -6 -72 -1 -64 19 4 11 -5 14 -36 14 -43 0 -56 14 -21 23 11 3 20 10 20 15
0 15 -52 24 -86 16 -26 -7 -28 -6 -15 9 12 15 11 17 -10 17 -24 1 -23 1 6 25
17 14 36 25 43 25 6 0 12 5 12 10 0 6 -26 10 -57 11 -49 0 -55 2 -35 11 40 20
23 28 -55 28 -78 1 -78 1 -44 16 19 8 31 17 28 21 -4 3 -42 6 -84 5 l-78 -1
40 14 c39 13 39 13 10 15 l-30 1 40 19 c22 11 46 19 54 20 7 0 11 6 8 14 -3 8
-3 17 1 19 4 2 0 2 -8 -1 -29 -9 -123 -23 -127 -18 -2 2 13 10 34 17 20 6 51
21 68 31 l30 20 -40 -6 c-22 -3 -56 -8 -75 -11 -27 -4 -30 -3 -15 4 17 8 15
10 -15 10 -26 1 -31 4 -22 13 22 22 13 28 -45 29 l-58 2 38 10 c47 13 49 32 2
24 -37 -6 -55 7 -36 26 6 6 11 19 11 30 0 10 4 16 9 13 5 -3 23 0 41 8 25 10
29 14 15 20 -9 3 -36 6 -61 6 -34 0 -42 3 -38 15 4 8 2 15 -4 15 -6 0 -12 -6
-15 -12 -2 -7 -8 -10 -12 -5 -5 4 0 14 11 21 21 16 13 22 -36 28 -14 2 -25 8
-25 15 0 6 -3 15 -8 19 -4 4 12 19 35 33 l43 25 -35 9 c-25 6 -30 11 -19 18 8
5 22 9 32 9 9 0 17 5 17 11 0 6 -9 8 -21 4 -11 -4 -37 -4 -57 0 l-37 7 59 22
c44 17 55 24 42 29 -10 4 -28 4 -40 1 -16 -4 -25 0 -29 10 -4 9 -14 16 -24 17
-10 0 4 7 30 16 l48 16 -27 12 -28 11 24 17 c14 9 31 17 40 17 8 0 27 6 41 14
38 20 126 39 154 34 13 -3 22 -2 20 3 -3 4 21 10 52 14 32 4 67 9 78 12 11 3
-2 -10 -30 -28 -60 -39 -45 -47 43 -25 77 20 82 20 52 -4 -28 -22 -23 -23 40
-10 95 21 97 21 58 0 -45 -24 -50 -44 -10 -36 15 3 52 2 82 -2 l55 -8 -55 -26
-55 -26 95 4 95 5 -45 -20 -45 -20 85 0 c65 -1 81 -4 72 -13 -22 -22 -13 -28
39 -28 31 0 48 -4 44 -10 -4 -6 13 -10 45 -10 62 0 59 -10 -18 -51 l-57 -30
65 6 c36 3 81 8 100 11 l35 6 -30 -21 c-25 -17 -26 -21 -12 -27 9 -3 27 -4 40
0 12 3 36 -2 52 -10 20 -10 42 -13 67 -9 21 4 38 5 38 2 0 -3 -20 -17 -45 -31
-25 -15 -45 -28 -45 -31 0 -2 35 -1 78 1 l77 5 -25 -20 -25 -21 28 0 c16 0 37
5 48 10 13 7 19 7 19 0 0 -5 7 -10 15 -10 8 0 14 -6 13 -12 -2 -9 9 -12 39
-10 34 3 44 0 53 -17 9 -18 17 -20 52 -15 50 9 45 -8 -10 -33 -48 -21 -21 -29
50 -14 28 6 53 9 56 6 3 -3 -2 -5 -11 -5 -9 0 -17 -5 -17 -11 0 -7 17 -9 52
-4 l53 7 -25 -20 -25 -21 89 0 c97 0 121 -7 57 -17 -23 -4 -43 -10 -46 -14 -8
-12 168 -39 228 -34 65 5 74 -7 20 -29 -44 -17 -34 -22 68 -32 54 -5 71 -11
89 -32 20 -23 21 -27 6 -35 -9 -5 -16 -12 -16 -16 0 -10 7 -11 200 -21 l25 -2
-25 -14 c-14 -8 -32 -14 -41 -15 -9 0 -22 -7 -29 -15 -11 -13 -6 -15 38 -15
63 0 122 -24 122 -49 0 -10 6 -24 14 -31 8 -6 13 -17 10 -23 -2 -7 11 -22 30
-34 40 -26 47 -53 27 -106 -11 -28 -12 -40 -3 -46 10 -6 13 -36 12 -111 -1
-14 -1 -42 -1 -62 0 -28 -6 -42 -24 -56 -28 -22 -30 -33 -12 -63 10 -17 10
-23 -1 -26 -6 -3 -12 -15 -12 -27 0 -24 -28 -56 -48 -56 -7 0 -12 -7 -12 -16
0 -9 -12 -30 -26 -47 -20 -23 -24 -38 -20 -59 5 -23 0 -36 -24 -61 -16 -18
-30 -38 -30 -44 0 -10 98 -13 455 -13 271 0 455 4 455 9 0 5 -11 23 -25 39
-14 17 -25 34 -25 40 0 5 -6 15 -14 21 -19 16 -27 61 -9 54 7 -3 13 -9 13 -14
0 -5 6 -9 13 -9 11 -1 77 -55 77 -64 0 -8 64 -76 72 -76 14 0 9 25 -9 42 -26
24 -43 46 -43 55 -1 22 -110 124 -152 143 -26 11 -50 25 -53 30 -9 15 22 12
37 -3 7 -7 20 -16 29 -19 13 -5 16 -2 11 14 -2 11 -11 22 -18 25 -8 3 -14 10
-14 15 0 11 -38 60 -87 114 -18 19 -33 41 -33 49 0 8 -4 15 -10 15 -5 0 -10 9
-10 19 0 11 -6 21 -12 24 -7 2 -10 8 -6 12 5 5 16 1 25 -7 10 -8 43 -28 73
-44 30 -16 57 -32 58 -37 2 -4 8 -5 13 -1 8 5 -66 82 -227 236 -70 67 -149
166 -140 175 3 3 24 1 47 -6 22 -7 43 -10 45 -8 3 3 -35 28 -83 57 -196 117
-211 132 -145 138 28 3 30 5 18 18 -8 8 -17 14 -19 14 -3 0 -39 20 -81 44 -86
48 -83 55 24 57 49 0 52 2 30 11 -14 6 -54 25 -90 41 -36 17 -79 35 -95 41
-40 14 -43 30 -7 37 58 12 69 34 22 44 -16 4 -30 10 -30 15 0 4 -11 11 -25 14
-14 4 -25 13 -25 20 0 8 -12 17 -27 20 -80 19 -102 43 -66 73 13 10 15 16 5
19 -6 3 -10 10 -7 14 3 5 -27 19 -67 32 -63 20 -73 27 -72 46 0 17 -5 22 -25
22 -31 0 -66 19 -41 21 8 1 20 3 25 4 6 2 16 3 23 4 7 0 10 6 7 12 -4 6 -12 8
-19 6 -6 -2 -20 -1 -31 4 -13 5 1 8 45 9 l65 2 -45 15 c-27 9 -65 12 -97 9
-97 -9 -70 23 37 44 47 9 138 19 178 20 36 0 25 17 -15 24 -57 10 -73 16 -73
27 0 17 -27 39 -48 39 -11 0 -22 5 -24 11 -2 7 -12 7 -28 1 -38 -14 -240 -7
-385 12 -71 10 -132 20 -134 22 -12 12 20 15 153 15 125 0 152 -3 190 -21 40
-18 53 -19 113 -10 37 6 109 14 158 18 l90 7 -90 18 c-49 10 -103 25 -120 32
l-30 14 30 1 c28 0 65 15 55 22 -3 2 -23 12 -44 23 -39 20 -39 20 -13 23 15 2
27 7 27 11 0 12 -52 57 -103 89 -47 30 -48 31 -21 34 43 5 40 26 -5 44 -23 9
-41 20 -41 25 0 4 -16 25 -35 46 l-35 38 33 11 32 11 -42 18 c-24 9 -41 21
-38 25 3 5 -11 18 -31 31 l-36 22 22 17 23 18 -39 24 c-21 14 -49 28 -61 32
-33 10 -28 26 7 26 41 0 37 11 -10 34 -22 11 -40 25 -40 33 0 7 -7 16 -15 19
-17 7 -21 34 -5 34 28 0 4 33 -41 55 -31 16 -49 31 -46 39 3 8 -9 18 -31 27
l-37 14 45 5 c36 5 41 8 25 14 -11 5 -49 22 -83 39 -67 31 -69 46 -7 48 29 0
28 1 -15 20 -25 11 -49 27 -53 35 -4 8 -13 14 -20 14 -19 1 -113 50 -97 51 27
1 75 10 79 15 2 2 -13 11 -35 20 -21 9 -48 24 -59 34 -11 9 -42 25 -69 35 -44
17 -47 20 -30 32 10 7 27 13 38 13 46 0 48 17 4 33 -24 10 -47 17 -51 17 -4 0
-19 7 -33 16 -19 13 -22 20 -13 30 9 10 8 15 -2 18 -79 23 -84 25 -54 21 17
-3 36 -1 44 4 11 7 -3 18 -55 42 l-69 33 75 6 75 5 -65 23 c-36 13 -70 30 -76
38 -6 7 -26 20 -45 28 -27 11 -30 16 -16 20 53 18 53 18 17 33 -61 27 -65 30
-68 53 -4 23 -4 23 85 17 141 -11 241 -34 345 -80 63 -28 76 -37 123 -85 17
-17 34 -32 36 -32 3 0 43 -37 90 -82 47 -46 125 -119 173 -163 69 -63 92 -91
109 -135 13 -30 29 -65 37 -78 27 -42 121 -94 430 -241 151 -71 180 -95 180
-142 0 -36 10 -41 49 -28 25 9 45 6 113 -15 163 -50 204 -56 256 -39 26 8 63
18 82 23 19 4 42 11 51 14 22 9 49 -19 49 -49 0 -33 56 -95 85 -95 13 0 26 -4
30 -9 12 -20 113 -69 166 -80 65 -14 89 -6 249 74 50 25 112 54 138 64 26 10
121 55 212 98 91 44 179 83 195 87 43 11 288 115 302 129 7 7 27 57 45 112 32
95 35 100 78 125 38 22 52 40 90 112 25 47 60 108 77 135 58 88 167 301 349
680 50 103 73 130 145 164 31 14 49 29 49 40 0 13 16 22 58 34 117 34 154 66
92 80 -16 4 -30 13 -30 20 0 19 55 50 123 70 73 21 102 11 140 -48 24 -36 28
-52 28 -122 0 -44 0 -114 1 -155 1 -117 -18 -309 -36 -378 -10 -35 -15 -70
-12 -78 3 -8 -3 -37 -14 -64 -12 -30 -17 -61 -14 -78 5 -24 -2 -37 -46 -86
-49 -53 -52 -58 -36 -75 24 -26 21 -35 -27 -80 l-42 -41 25 -20 25 -20 -36
-33 c-30 -27 -34 -35 -25 -50 9 -15 3 -25 -35 -61 -25 -23 -63 -55 -83 -71
-20 -15 -36 -31 -36 -36 0 -5 17 -16 38 -25 l37 -15 -35 -31 c-87 -76 -101
-91 -92 -100 21 -21 114 22 173 81 31 31 82 72 114 91 55 33 90 59 170 124 67
54 175 44 175 -17 0 -11 9 -35 21 -54 17 -27 21 -50 22 -128 0 -52 4 -95 9
-95 11 0 10 -57 -1 -64 -14 -9 -23 -117 -10 -132 8 -10 8 -18 1 -26 -9 -12
-73 -129 -110 -203 -48 -95 -111 -137 -277 -184 -105 -30 -181 -55 -190 -63
-5 -4 -17 -8 -27 -8 -10 0 -18 -3 -18 -7 0 -5 -22 -21 -49 -37 -27 -16 -52
-37 -54 -47 -3 -10 -29 -30 -58 -44 -67 -34 -122 -84 -109 -100 16 -19 -43
-75 -189 -180 -7 -5 -42 -39 -77 -75 -44 -45 -64 -73 -64 -91 0 -14 -9 -35
-20 -47 -11 -12 -20 -32 -20 -44 0 -13 -9 -29 -20 -36 -11 -7 -20 -21 -20 -32
0 -16 7 -20 38 -20 58 1 126 19 142 40 8 10 51 37 95 60 44 23 96 59 115 80
19 21 62 54 94 74 32 19 75 50 95 68 61 56 222 172 301 218 72 42 131 82 158
108 7 6 17 12 21 12 17 0 136 113 148 140 6 17 19 33 28 36 22 9 57 -26 51
-49 -3 -11 6 -41 20 -67 24 -46 24 -51 15 -130 -6 -46 -8 -100 -5 -120 4 -26
0 -55 -14 -92 -11 -30 -18 -66 -15 -81 3 -15 -2 -50 -11 -78 -10 -30 -14 -63
-11 -80 5 -20 -7 -68 -39 -164 -25 -74 -46 -140 -46 -147 0 -7 -17 -37 -39
-68 -21 -30 -42 -70 -46 -89 -4 -21 -24 -49 -51 -74 -24 -22 -44 -50 -44 -61
0 -13 -16 -32 -40 -49 -28 -20 -40 -36 -40 -52 0 -18 -15 -35 -57 -67 -71 -51
-133 -113 -133 -132 0 -8 -20 -26 -44 -40 -24 -14 -49 -38 -55 -53 -7 -15 -26
-37 -44 -48 -21 -13 -34 -32 -40 -55 -5 -24 -19 -42 -42 -58 -19 -12 -35 -29
-35 -37 0 -8 -15 -36 -34 -62 -32 -46 -66 -106 -66 -118 0 -3 1276 -5 2835 -5
l2835 0 0 6400 0 6400 -6400 0 -6400 0 0 -6400z m3298 6280 c7 -12 18 -17 27
-14 9 4 24 -1 34 -10 13 -12 21 -14 26 -6 4 7 16 3 36 -10 16 -12 33 -18 39
-15 5 3 15 -6 21 -22 8 -21 12 -24 19 -13 7 11 11 8 21 -13 7 -15 18 -26 25
-23 14 5 44 -24 44 -43 0 -8 8 -11 19 -8 16 4 24 -5 41 -49 12 -29 27 -52 33
-51 6 1 16 -9 23 -22 7 -13 16 -26 22 -30 12 -8 38 -59 46 -93 4 -18 11 -25
20 -22 10 4 19 -10 31 -43 9 -26 25 -61 36 -78 10 -16 29 -50 41 -74 12 -25
24 -39 26 -32 2 7 31 -40 64 -105 33 -66 75 -144 93 -175 17 -30 42 -86 54
-125 13 -38 29 -82 36 -99 51 -115 79 -205 96 -305 23 -138 23 -136 4 -120
-22 18 -26 9 -14 -34 8 -27 7 -41 -1 -51 -10 -12 -15 -11 -31 8 l-18 22 -1
-25 c-1 -24 -1 -24 -15 -6 -20 26 -28 15 -15 -18 14 -39 13 -63 -2 -48 -7 7
-25 12 -41 12 -26 0 -28 -3 -25 -32 2 -24 -1 -33 -14 -36 -14 -3 -16 1 -11 15
3 10 3 15 -2 11 -4 -4 -16 -3 -26 3 -22 11 -25 -1 -9 -32 16 -28 -14 -58 -41
-41 -29 19 -40 15 -33 -13 8 -32 4 -31 -48 4 -43 29 -220 111 -238 111 -6 0
-10 4 -10 8 0 4 -25 16 -56 27 -31 11 -51 21 -45 23 6 2 34 -4 61 -14 27 -10
53 -15 56 -11 8 8 -36 46 -53 47 -12 0 -17 13 -14 32 0 4 -15 16 -33 27 -39
24 -68 64 -61 83 3 7 -11 24 -31 37 -36 25 -36 25 -12 34 20 7 148 -5 196 -19
10 -3 1 4 -18 14 -19 11 -54 26 -77 32 -24 7 -43 16 -43 20 0 4 -25 24 -55 44
-30 20 -55 38 -55 40 0 2 21 2 48 0 26 -2 89 -5 141 -8 94 -4 94 -4 70 15 -13
10 -28 19 -34 19 -15 0 -66 46 -59 53 3 3 -7 12 -23 20 -15 8 -37 25 -48 37
l-20 22 30 -6 c17 -3 57 -8 91 -10 33 -2 80 -10 103 -16 24 -6 45 -10 47 -7 2
2 -28 32 -66 67 -74 66 -85 87 -27 51 46 -28 59 -26 22 5 l-30 24 45 -3 c25
-2 54 -8 65 -13 19 -8 20 -7 2 19 -25 38 -22 39 31 7 26 -15 57 -31 69 -35 19
-5 21 -2 19 32 -2 47 -48 144 -78 168 -24 19 -68 84 -68 100 0 10 -10 25 -23
35 -12 10 -28 34 -35 54 -33 90 -161 273 -198 282 -12 3 -25 12 -28 20 -7 17
-36 19 -36 2 0 -10 -3 -9 -9 1 -5 8 -14 10 -22 6 -9 -6 -11 -3 -6 8 5 12 1 17
-12 17 -10 0 -26 10 -34 23 l-16 22 0 -22 c-1 -12 4 -25 9 -28 6 -3 10 -14 9
-23 0 -13 -3 -12 -11 6 -6 12 -17 22 -25 22 -7 0 -13 4 -13 10 0 5 -9 14 -19
20 -18 9 -19 7 -15 -27 2 -21 2 -32 -2 -25 -3 6 -11 12 -17 12 -17 0 -95 -69
-79 -70 6 0 12 -6 12 -14 0 -9 -8 -12 -24 -9 -20 4 -25 0 -31 -26 -5 -25 -11
-31 -26 -26 -17 6 -18 1 -15 -39 3 -44 2 -45 -20 -40 -20 5 -24 2 -24 -15 0
-12 -4 -21 -10 -21 -5 0 -10 -7 -10 -16 0 -8 -4 -12 -10 -9 -6 4 -10 -6 -10
-23 0 -18 -6 -32 -15 -36 -12 -4 -14 -18 -11 -60 4 -51 3 -55 -20 -60 -24 -6
-24 -7 -8 -37 14 -29 14 -32 -2 -44 -15 -11 -16 -16 -4 -44 7 -17 10 -34 6
-38 -3 -3 -6 0 -6 9 0 8 -12 20 -26 27 -25 11 -26 11 -18 -21 12 -56 12 -102
-2 -124 -8 -14 -11 -36 -7 -58 5 -30 3 -36 -12 -36 -13 0 -15 -5 -9 -17 4 -10
7 -31 6 -48 -1 -16 -2 -47 -2 -68 1 -27 -3 -36 -11 -31 -9 5 -10 -8 -3 -52 4
-32 7 -72 6 -89 -1 -16 -2 -63 -2 -102 0 -43 -4 -73 -10 -73 -15 0 -12 -34 5
-66 10 -18 13 -42 10 -64 -5 -28 -1 -40 16 -59 19 -20 23 -37 24 -100 2 -75
10 -111 25 -111 4 0 10 -11 12 -24 4 -17 1 -23 -9 -19 -20 8 -16 -31 7 -74 11
-21 20 -48 20 -60 0 -12 4 -23 8 -25 5 -1 12 -20 15 -40 4 -29 2 -38 -9 -38
-17 0 -18 7 10 -72 21 -57 22 -68 10 -79 -14 -11 -36 -1 -56 26 -9 12 -10 2
-2 -19 3 -9 12 -16 20 -16 8 0 14 -9 14 -20 0 -11 5 -20 11 -20 7 0 9 -10 7
-25 -3 -14 -1 -25 3 -25 18 0 8 -32 -10 -37 -16 -4 -18 -9 -11 -29 8 -20 6
-24 -10 -24 -13 0 -17 -5 -14 -14 4 -11 0 -13 -15 -9 -25 6 -29 -15 -5 -24 12
-5 9 -10 -16 -26 -17 -11 -29 -25 -26 -32 3 -9 -8 -15 -32 -20 l-37 -7 28 -14
c33 -18 35 -29 5 -31 -12 -1 -34 -11 -49 -23 -16 -11 -36 -20 -45 -20 -13 0
-14 -3 -5 -14 6 -7 9 -21 5 -30 -6 -16 -14 -19 -89 -32 l-40 -6 40 -18 c38
-16 38 -17 15 -23 -14 -3 -45 -8 -70 -12 -54 -7 -429 20 -441 32 -5 5 5 25 22
46 l31 37 -24 9 -23 10 23 0 c12 1 22 6 22 11 0 6 -10 15 -22 20 -22 8 -21 9
10 15 35 8 42 22 16 32 -15 5 -15 7 0 15 9 5 16 16 16 23 0 8 7 15 15 15 18 0
19 4 3 31 -10 17 -10 23 0 26 6 3 12 11 12 19 0 8 7 14 15 14 17 0 20 26 5 35
-8 5 -8 11 0 20 8 9 8 15 0 20 -16 10 -12 22 11 28 16 4 19 11 14 27 -4 14 -1
28 10 40 12 13 15 27 10 49 -5 24 -2 32 14 41 16 8 19 17 14 40 -3 18 -1 30 5
30 5 0 13 11 16 25 3 13 16 33 27 44 13 12 19 26 15 36 -3 10 1 18 12 22 9 4
20 10 23 15 9 13 112 -27 171 -66 29 -20 56 -36 60 -36 3 0 43 -25 88 -56 45
-31 83 -54 86 -52 7 8 -71 76 -198 172 -64 49 -118 103 -136 138 -18 33 -71
88 -84 88 -6 0 -9 3 -6 6 4 3 16 1 27 -6 26 -14 27 0 1 33 -26 33 -25 35 8 29
l27 -5 -22 25 c-13 13 -23 32 -23 41 0 10 -7 20 -15 23 -8 4 -15 11 -15 16 0
6 7 7 16 4 12 -5 11 1 -5 28 -26 42 -26 46 0 46 17 0 20 4 15 23 -18 64 -18
67 -3 73 13 4 13 11 5 36 -9 25 -8 32 6 40 12 7 14 14 6 28 -15 28 -12 50 6
50 10 0 14 6 11 18 -17 61 -17 72 -1 72 12 0 14 6 10 28 -4 17 -1 35 8 47 9
13 11 26 5 42 -7 18 -5 23 8 23 12 0 14 7 10 35 -4 23 -2 35 6 35 7 0 6 4 -3
10 -13 8 -11 11 8 16 17 5 22 14 22 39 0 21 6 35 16 39 10 4 13 13 9 25 -3 12
1 31 10 45 10 15 14 33 10 46 -5 14 -2 20 9 20 12 0 16 8 14 29 -1 16 3 35 10
43 6 8 16 37 22 65 6 28 18 54 26 57 8 3 14 16 14 29 0 14 7 30 16 38 11 9 14
22 10 41 -5 23 -2 28 15 28 18 0 20 5 18 41 -3 30 1 43 14 50 9 6 17 21 17 35
0 13 7 27 15 30 10 4 13 14 9 30 -5 18 -2 24 10 24 11 0 16 9 16 30 0 19 7 33
20 40 11 6 17 17 14 24 -3 8 3 23 13 33 10 10 25 33 32 51 7 18 18 32 23 32 5
0 7 9 3 19 -4 14 0 23 13 30 11 6 25 24 30 41 6 16 15 30 21 30 5 0 13 9 16
21 4 11 18 24 31 29 14 6 24 18 24 29 0 14 5 18 20 14 15 -4 20 0 20 14 0 17
6 19 41 16 33 -3 40 0 35 12 -3 8 -1 15 4 15 6 0 10 -4 10 -10 0 -16 30 -12
36 5 8 20 17 19 32 -5z m4909 -608 c11 -6 28 -23 37 -37 9 -14 23 -25 31 -25
8 0 21 -10 30 -23 18 -27 48 -121 51 -157 1 -14 10 -45 19 -70 10 -25 22 -70
26 -100 8 -55 21 -131 40 -225 5 -27 11 -70 13 -95 2 -25 9 -83 15 -130 13
-90 21 -165 25 -215 1 -16 6 -38 10 -47 4 -9 3 -25 -3 -36 -7 -13 -6 -26 4
-46 11 -20 12 -32 3 -51 -8 -18 -8 -32 2 -54 6 -16 8 -35 4 -42 -4 -7 -9 -96
-11 -198 -5 -244 -5 -247 -26 -271 -11 -13 -15 -29 -11 -43 4 -19 -4 -32 -40
-64 -51 -46 -57 -63 -23 -63 13 0 31 -6 41 -13 16 -12 17 -16 5 -35 -11 -18
-10 -30 6 -79 11 -32 18 -70 17 -85 -2 -14 2 -29 8 -33 6 -4 8 -20 4 -41 -4
-22 -2 -40 7 -50 7 -8 14 -41 16 -72 5 -81 14 -131 24 -138 5 -3 3 -13 -3 -23
-9 -15 -7 -26 11 -54 15 -25 20 -44 15 -61 -4 -18 3 -47 22 -91 20 -50 24 -69
16 -77 -14 -14 -281 6 -334 24 -62 22 -208 136 -208 163 0 7 -12 27 -26 44
-14 17 -27 37 -28 43 -4 23 -44 94 -60 107 -11 9 -14 23 -10 47 4 28 1 38 -22
58 -26 22 -27 25 -14 56 8 19 13 58 13 87 -1 50 14 101 51 173 7 14 14 46 15
72 2 50 35 138 52 138 5 0 9 24 8 53 0 30 8 75 19 107 11 30 24 84 27 120 4
36 19 108 33 160 14 52 26 120 28 150 2 58 7 85 31 163 12 38 13 50 3 62 -9
11 -10 36 -5 91 6 70 5 77 -15 96 -22 20 -23 40 -7 105 5 18 0 23 -26 29 -36
8 -56 29 -57 60 0 29 -25 48 -52 41 -12 -4 -27 -2 -32 2 -12 10 -76 22 -121
23 -16 1 -61 -14 -100 -33 -72 -35 -234 -147 -235 -162 0 -5 19 -6 43 -2 42 7
42 7 24 -13 -10 -11 -32 -26 -48 -32 -42 -18 -27 -29 36 -27 30 1 58 -3 62 -7
4 -4 -9 -23 -29 -41 -21 -17 -38 -35 -38 -39 0 -3 15 -6 33 -6 17 0 54 -6 81
-13 l48 -13 -43 -35 c-24 -20 -57 -44 -73 -54 l-29 -19 29 -7 c16 -4 54 -10
84 -13 75 -9 91 -19 64 -43 -98 -85 -115 -104 -112 -114 2 -7 19 -18 37 -24
31 -10 31 -11 14 -27 -78 -73 -144 -127 -162 -133 -38 -12 -11 -26 48 -25 76
2 75 2 60 -16 -19 -23 -143 -84 -227 -110 -69 -22 -76 -23 -115 -8 -23 8 -50
18 -59 21 -20 6 -23 19 -8 28 6 3 10 14 10 24 0 14 -10 20 -41 25 -52 8 -93
47 -86 82 4 23 2 25 -20 19 -33 -8 -62 28 -63 77 0 27 -4 36 -13 32 -48 -18
-52 164 -5 223 5 7 6 18 2 24 -4 7 -3 9 3 6 6 -4 14 4 17 17 7 30 97 167 144
221 19 22 64 72 100 110 293 317 306 330 380 399 23 21 42 45 42 52 0 7 16 21
35 30 19 9 56 40 81 70 26 30 55 54 64 54 10 0 28 8 41 19 13 10 42 24 64 31
22 7 45 16 50 20 26 20 126 21 162 2z m-4379 -1234 c83 -41 159 -105 143 -121
-4 -4 -43 11 -85 35 -125 69 -167 91 -231 115 -56 21 -58 22 -23 21 21 -1 40
1 43 4 10 10 62 -8 153 -54z m1272 -873 c7 -9 22 -21 33 -27 19 -10 19 -9 -1
17 -29 37 -21 43 20 14 l33 -22 -29 31 c-33 36 -23 43 17 12 14 -11 30 -20 36
-20 6 0 11 -3 11 -7 1 -5 28 -28 61 -53 33 -25 79 -61 102 -80 41 -35 41 -35
20 -5 -12 17 -35 44 -53 60 -54 51 -57 73 -4 28 58 -48 133 -127 159 -166 26
-40 30 -26 6 22 -12 22 -21 46 -21 53 1 20 39 -31 71 -94 16 -32 31 -58 32
-58 2 0 2 17 0 38 -3 32 4 22 49 -68 29 -58 61 -131 71 -163 10 -31 22 -55 26
-52 5 2 3 22 -5 42 -7 21 -13 54 -13 73 1 31 2 29 15 -20 67 -262 91 -525 61
-666 -18 -85 -75 -184 -137 -240 -24 -22 -48 -44 -54 -50 -6 -5 -20 -13 -30
-17 -16 -6 -17 -5 -6 8 17 21 8 19 -52 -10 -35 -17 -54 -22 -59 -14 -5 8 -20
8 -53 1 -25 -5 -44 -6 -41 -3 6 11 -32 41 -51 41 -11 0 -15 6 -11 19 3 15 -1
21 -17 23 -11 2 -21 8 -21 14 0 10 -12 24 -87 104 -16 17 -28 35 -28 42 0 7
-12 24 -25 37 -14 12 -22 28 -18 34 5 8 8 8 10 0 5 -14 43 -5 43 10 0 17 -44
77 -57 77 -6 0 -18 9 -26 20 -19 27 -66 44 -83 29 -8 -6 -11 -16 -8 -21 3 -5
7 -27 8 -49 2 -34 0 -38 -16 -33 -10 3 -18 1 -18 -5 0 -6 -7 -11 -15 -11 -9 0
-18 -6 -21 -14 -3 -8 -19 -16 -36 -20 -22 -4 -28 -10 -24 -21 21 -51 21 -51
-4 -30 l-23 20 7 -30 8 -30 -27 25 -26 25 10 -28 c7 -17 8 -35 2 -44 -7 -14
-10 -13 -20 5 -17 32 -35 28 -26 -5 l6 -28 -21 23 c-11 12 -24 22 -27 22 -4 0
-2 -5 5 -12 7 -7 12 -19 12 -27 0 -12 -3 -11 -18 2 -26 24 -35 21 -28 -8 8
-30 -4 -32 -29 -5 -21 24 -40 26 -31 5 3 -8 9 -23 13 -32 5 -13 -3 -10 -26 10
-34 28 -54 30 -31 2 19 -23 5 -30 -22 -11 -36 25 -56 21 -30 -7 31 -33 27 -41
-8 -20 -19 11 -34 14 -38 8 -10 -14 -50 -17 -73 -5 -13 7 -19 7 -19 0 0 -5 5
-10 10 -10 6 0 10 -4 10 -10 0 -5 -20 -10 -45 -10 -33 0 -43 -3 -39 -13 4 -10
-16 -17 -78 -26 -100 -14 -281 -30 -287 -25 -2 2 3 4 12 4 10 0 17 5 17 10 0
6 -24 11 -52 11 -29 1 -66 4 -83 8 -29 7 -29 7 -7 15 40 13 23 26 -34 26 -63
0 -70 16 -13 36 l34 11 -50 7 c-90 13 -101 27 -32 43 l42 11 -43 1 c-24 0 -53
6 -65 12 -19 11 -16 14 39 35 l59 23 -43 0 c-26 1 -41 5 -37 11 3 6 22 10 42
10 27 0 34 3 29 15 -4 12 3 15 32 16 l37 1 -45 11 -45 12 70 5 c63 5 67 7 45
17 -22 11 -23 12 -5 14 11 1 27 3 35 5 8 1 22 2 30 3 18 1 2 17 -25 24 -11 3
23 6 75 7 93 2 94 2 55 15 l-40 13 65 1 c46 1 61 4 50 11 -11 7 1 10 40 10 51
1 53 2 36 15 -18 14 -14 15 47 15 43 0 67 4 67 11 0 7 11 9 30 6 23 -5 28 -3
23 9 -5 13 0 14 30 9 21 -4 37 -3 41 4 4 6 32 11 62 11 32 0 53 4 49 9 -3 6
23 10 62 11 38 0 83 1 101 1 17 0 32 5 32 11 0 6 16 7 43 3 48 -8 97 -26 97
-37 0 -5 7 -8 15 -8 8 0 15 8 15 17 0 9 8 25 18 36 12 15 14 21 5 24 -7 3 -13
14 -13 25 0 15 5 19 20 15 16 -4 18 -2 10 13 -7 13 -7 21 0 25 6 4 3 17 -10
35 -22 30 -26 45 -10 35 17 -10 11 11 -10 38 -11 14 -20 29 -20 33 0 5 -19 28
-42 53 -24 25 -35 39 -25 32 37 -28 26 -1 -29 69 -31 40 -49 70 -40 67 22 -9
20 0 -9 35 -14 16 -25 38 -25 48 0 10 -23 39 -52 64 -53 47 -58 61 -10 28 54
-38 56 -34 7 18 l-50 53 50 -28 c32 -18 45 -22 36 -12 -18 23 -8 32 19 17 36
-19 34 -4 -4 27 -40 31 -49 52 -13 29 12 -8 33 -17 47 -21 18 -5 12 3 -22 29
-27 20 -48 39 -48 41 0 2 25 -7 55 -21 86 -37 92 -31 21 24 -36 27 -13 29 32
2 17 -11 32 -16 32 -11 0 5 -7 11 -15 15 -8 3 -15 10 -15 16 0 7 6 7 18 0 31
-18 92 -39 92 -32 0 3 -14 21 -32 39 -36 38 -33 53 5 23 30 -24 38 -25 31 -5
-8 20 6 18 36 -5 49 -38 44 -19 -10 37 -56 57 -50 56 37 -7 27 -19 42 -26 33
-15 -8 11 -19 23 -25 27 -7 5 -7 8 0 8 6 0 34 -18 63 -40 28 -22 52 -36 52
-32 0 5 -26 37 -57 73 l-58 64 51 -42 c28 -23 57 -50 64 -58z m-270 19 c0 -2
-9 0 -20 6 -11 6 -20 13 -20 16 0 2 9 0 20 -6 11 -6 20 -13 20 -16z m-119 -31
c13 -15 12 -15 -8 -4 -24 12 -29 21 -14 21 5 0 15 -7 22 -17z m2463 -115 c-4
-7 -15 -24 -24 -38 -9 -14 -27 -42 -40 -64 -21 -34 -21 -37 -4 -28 10 6 30 22
43 36 14 14 29 26 35 26 6 0 4 -5 -4 -10 -8 -5 -10 -10 -4 -10 5 0 26 16 45
36 66 69 84 67 31 -4 -30 -40 -24 -52 9 -17 13 14 32 30 42 36 17 10 17 9 2
-20 -20 -40 -12 -39 25 2 34 37 40 20 9 -29 -24 -39 -19 -42 23 -13 36 26 47
19 24 -16 -19 -29 -18 -30 18 -11 15 8 36 11 47 9 19 -5 18 -7 -7 -51 -20 -34
-23 -44 -10 -39 9 4 16 2 16 -3 0 -15 21 -12 42 7 27 24 35 7 10 -20 -27 -29
-28 -41 -3 -27 30 15 46 13 32 -4 -7 -8 -16 -28 -21 -46 -9 -31 -9 -31 23 -24
31 6 32 6 14 -13 -9 -11 -15 -27 -12 -36 4 -8 2 -18 -4 -22 -18 -11 -12 -25
10 -25 19 0 19 -1 5 -27 -24 -43 -46 -103 -46 -124 0 -11 -14 -45 -32 -75 -28
-50 -29 -55 -10 -45 32 17 37 13 15 -11 -23 -25 -63 -101 -63 -119 0 -6 6 -9
13 -6 10 4 9 -5 -4 -31 -28 -59 -34 -86 -18 -80 8 3 25 8 39 12 l25 7 -28 -25
-28 -26 72 5 c71 5 72 5 54 -15 -20 -23 -15 -24 35 -10 l35 9 -22 -18 c-32
-27 -29 -33 12 -25 24 4 35 3 35 -6 0 -12 13 -11 75 6 17 5 15 1 -7 -20 -33
-32 -34 -36 -8 -29 11 3 28 2 37 -2 10 -4 38 -7 63 -6 l45 2 -40 -25 -40 -25
53 -1 c52 0 67 -11 35 -26 -13 -6 -2 -10 37 -14 l55 -5 -30 -17 -30 -17 33
-11 c24 -9 32 -18 32 -36 0 -13 -6 -24 -12 -24 -7 0 -1 -10 15 -21 33 -25 34
-34 1 -64 -24 -23 -25 -23 -5 -30 22 -7 30 -55 10 -55 -7 0 -9 -10 -7 -25 4
-20 1 -26 -19 -31 -17 -5 -21 -10 -14 -17 15 -15 14 -27 -4 -27 -8 0 -15 -7
-15 -15 0 -11 -7 -14 -25 -9 -15 4 -25 2 -25 -5 0 -6 -17 -11 -40 -11 -33 0
-38 -3 -33 -17 6 -14 0 -15 -44 -10 -51 6 -123 34 -123 49 0 4 -9 8 -20 8 -11
0 -23 7 -26 15 -4 9 -19 15 -35 15 -16 0 -29 5 -29 10 0 6 -11 10 -25 10 -15
0 -25 6 -25 15 0 9 -8 14 -22 12 -15 -1 -22 3 -20 12 2 10 -4 12 -23 7 -24 -6
-26 -5 -20 15 6 19 4 21 -11 14 -44 -17 -54 -18 -48 -1 7 19 0 20 -28 5 -19
-10 -20 -9 -15 11 5 20 3 21 -35 15 -43 -8 -42 -10 -22 39 7 19 -30 10 -47
-10 -23 -27 -38 -16 -33 24 l6 37 -31 -47 c-36 -56 -54 -69 -47 -36 10 47 16
108 11 108 -2 0 -12 -14 -20 -30 -18 -35 -36 -59 -82 -108 -18 -19 -33 -39
-33 -44 0 -10 -42 -5 -82 10 -24 10 -95 74 -124 113 -26 35 -97 272 -90 298 3
9 8 42 11 75 8 95 112 450 143 490 5 6 14 25 20 41 37 105 51 137 52 119 0
-11 -7 -43 -15 -69 -23 -78 -11 -63 24 28 29 77 88 188 113 212 5 6 -3 -15
-18 -45 -48 -93 -63 -130 -55 -130 4 0 13 12 20 28 15 31 111 175 142 212 17
20 15 15 -6 -23 -15 -27 -25 -50 -23 -52 2 -2 35 36 72 85 61 81 90 112 70 78z
m-794 -115 c6 -53 8 -56 17 -33 22 52 43 94 38 77 -2 -9 -7 -48 -10 -85 l-6
-67 20 49 c11 26 23 51 26 54 3 3 4 -36 1 -87 -4 -95 3 -105 27 -36 14 39 14
37 9 -43 -3 -52 -1 -82 6 -82 5 0 13 16 17 36 3 20 8 34 10 33 7 -8 -16 -187
-36 -287 -29 -146 -18 -149 16 -4 16 66 31 119 33 117 6 -6 -67 -360 -97 -473
-16 -59 -37 -145 -45 -190 -9 -46 -18 -87 -21 -91 -20 -33 -45 -418 -28 -435
4 -3 15 17 24 46 l17 53 -4 -60 c-2 -33 -6 -90 -8 -127 -3 -38 -3 -68 -1 -68
3 0 12 18 21 40 24 60 26 44 4 -39 l-19 -73 25 23 c21 20 24 21 24 4 0 -14 4
-13 21 9 34 44 34 21 0 -25 -34 -47 -33 -64 2 -32 43 39 51 36 14 -6 -40 -44
-43 -60 -9 -42 32 17 44 14 32 -8 -16 -31 -12 -33 20 -10 35 26 52 18 25 -11
-22 -24 -6 -26 37 -4 33 17 32 8 -5 -33 -23 -26 -14 -29 23 -8 36 20 46 18 25
-5 -22 -24 -14 -36 13 -21 27 15 32 14 32 -4 0 -11 7 -14 25 -9 27 7 32 -4 13
-25 -11 -11 -6 -12 28 -7 52 7 65 -5 22 -20 l-33 -12 35 -3 c19 -1 45 -1 58 0
23 2 31 -14 10 -22 -7 -3 3 -6 22 -7 32 -1 33 -2 17 -14 -16 -12 -16 -14 -1
-20 8 -3 28 -6 42 -6 26 -1 26 -1 8 -15 -18 -14 -18 -15 8 -26 14 -7 26 -16
26 -21 0 -4 7 -8 15 -8 9 0 20 -11 26 -24 6 -13 21 -29 33 -34 11 -6 15 -11 9
-11 -21 -1 -14 -21 7 -21 11 0 20 -7 20 -15 0 -16 59 -106 78 -118 6 -4 12
-14 12 -21 0 -8 7 -16 15 -20 8 -3 15 -12 15 -20 0 -12 79 -60 86 -53 2 1 -15
26 -37 54 -52 69 -49 77 9 22 55 -54 89 -72 71 -37 -10 19 -9 20 14 14 21 -5
24 -3 20 14 -4 15 0 20 16 20 14 0 21 6 21 19 0 11 9 23 20 26 11 3 20 15 20
26 0 12 7 19 20 19 22 0 27 15 9 26 -7 4 2 12 21 21 26 10 31 16 22 25 -18 18
-15 28 8 28 13 0 20 7 20 19 0 10 7 24 16 32 9 7 13 21 10 34 -3 12 2 32 12
46 9 13 15 31 14 41 -2 9 2 19 8 23 8 5 8 11 0 20 -22 27 54 141 126 190 38
26 83 32 100 15 6 -6 42 -13 80 -16 110 -8 116 -11 112 -42 -3 -26 -1 -27 52
-30 78 -4 87 -8 65 -32 -18 -20 -13 -40 10 -40 7 0 44 -13 82 -29 51 -22 83
-29 124 -28 68 1 122 -26 127 -64 2 -15 24 -47 52 -74 45 -45 48 -50 34 -66
-14 -15 -10 -22 40 -79 31 -34 56 -68 56 -74 0 -7 30 -41 66 -76 50 -49 64
-69 60 -85 -4 -16 7 -29 60 -64 72 -48 86 -68 61 -83 -25 -14 -21 -27 18 -49
19 -12 35 -27 35 -35 0 -17 -63 -53 -167 -95 -46 -18 -83 -36 -83 -41 0 -4 30
-22 68 -40 87 -43 92 -63 23 -107 -71 -46 -79 -58 -42 -66 35 -7 81 -41 81
-59 0 -19 -49 -60 -126 -104 -39 -23 -74 -50 -76 -60 -3 -11 -29 -30 -59 -45
l-53 -25 44 -12 c62 -17 100 -38 100 -55 0 -26 -81 -75 -167 -101 -45 -15 -81
-30 -78 -34 2 -4 18 -10 35 -14 31 -6 51 -33 33 -45 -6 -3 -23 -16 -39 -29
-16 -13 -62 -38 -103 -55 -85 -37 -101 -57 -47 -57 20 0 36 -4 36 -9 0 -12
-56 -37 -121 -55 -165 -45 -251 -76 -231 -83 42 -16 -37 -66 -185 -119 -29
-10 -53 -23 -53 -28 0 -5 33 -5 78 0 175 20 289 4 198 -26 -20 -6 -36 -16 -36
-20 0 -5 36 -21 81 -35 44 -14 90 -30 101 -36 20 -11 20 -11 -2 -34 -11 -12
-50 -35 -86 -50 -35 -15 -64 -30 -64 -34 0 -3 23 -15 52 -26 28 -11 53 -25 55
-31 5 -15 -83 -50 -162 -63 -86 -14 -135 -30 -135 -42 0 -5 22 -25 50 -46 27
-20 47 -40 42 -44 -4 -3 -41 -12 -82 -19 -94 -16 -170 -38 -170 -49 0 -5 16
-23 35 -40 19 -17 35 -35 35 -40 0 -18 -48 -43 -69 -36 -10 3 -32 3 -48 -1
l-28 -7 40 -18 c40 -18 39 -21 -16 -33 -15 -3 -29 -15 -32 -26 -3 -12 -13 -20
-26 -20 -12 0 -21 -4 -21 -8 0 -10 45 -32 65 -32 8 0 15 -4 15 -10 0 -5 -15
-10 -32 -10 -18 0 -53 -6 -78 -14 l-45 -13 39 -24 c35 -21 37 -24 21 -33 -10
-6 -29 -21 -41 -34 -11 -12 -33 -22 -48 -22 -37 0 -32 -13 12 -35 l37 -18 -60
-13 c-33 -7 -65 -13 -71 -13 -5 -1 -19 -7 -29 -15 -17 -12 -14 -15 36 -31 112
-36 102 -47 -58 -66 -62 -7 -113 -16 -113 -19 0 -3 17 -12 38 -22 l37 -16 -60
-1 -60 -1 33 -20 c51 -32 77 -59 66 -70 -5 -5 -56 -11 -113 -12 -58 -2 -106
-7 -107 -13 -2 -5 17 -23 41 -40 25 -16 43 -34 42 -40 -5 -14 -75 -33 -127
-34 -25 -1 -52 -6 -60 -11 -12 -7 -11 -13 10 -36 16 -17 21 -28 13 -31 -6 -2
-22 -13 -34 -24 -20 -18 -34 -20 -98 -16 -41 2 -83 2 -93 -1 -17 -4 -18 -6 -3
-22 15 -17 14 -19 -20 -30 -33 -11 -36 -15 -30 -38 4 -15 7 -31 8 -36 1 -6 -8
-15 -20 -21 -13 -5 -23 -16 -23 -23 0 -14 -71 -12 -147 4 -21 4 -39 2 -48 -6
-8 -7 -25 -10 -40 -6 -34 9 -44 -18 -22 -57 10 -16 20 -46 23 -68 6 -35 4 -39
-14 -39 -11 0 -52 13 -90 30 -39 16 -85 30 -101 30 -30 0 -31 -2 -32 -42 -1
-24 -1 -51 0 -60 3 -22 -9 -22 -54 -4 -28 12 -34 12 -39 0 -4 -11 -11 -11 -45
1 -22 7 -51 21 -65 30 -34 22 -52 11 -32 -21 25 -37 21 -48 -16 -39 -18 4 -53
11 -78 15 -25 4 -53 11 -62 15 -14 6 -18 2 -18 -17 0 -34 -7 -38 -40 -21 -17
8 -34 12 -40 8 -5 -3 -20 1 -34 10 -13 9 -37 15 -53 13 -22 -2 -28 1 -27 14 2
22 -16 23 -42 3 -28 -21 -35 -18 -28 10 8 32 -3 32 -38 -2 -32 -31 -37 -27 -8
7 14 16 18 30 13 49 -8 35 -13 39 -26 20 -22 -29 -49 -38 -65 -22 -12 12 -12
16 2 32 32 36 15 41 -21 7 -40 -38 -69 -50 -38 -16 21 24 13 39 -11 19 -15
-12 -15 -10 0 25 9 22 14 41 11 44 -3 3 -5 1 -5 -4 0 -12 -59 -48 -67 -41 -3
3 2 16 11 29 31 44 12 53 -29 12 -36 -35 -41 -25 -16 32 23 51 20 71 -5 36
-19 -28 -68 -54 -87 -46 -9 3 -30 -2 -49 -11 l-33 -17 29 26 c36 32 30 41 -13
20 -18 -9 -35 -13 -38 -10 -4 3 -1 6 5 6 7 0 12 11 12 24 0 14 4 36 10 50 9
25 -2 37 -15 17 -3 -6 -27 -13 -53 -17 -26 -4 -58 -14 -71 -23 -23 -15 -23
-15 -10 7 8 12 19 22 26 22 7 0 13 5 13 11 0 5 8 9 18 8 9 -1 30 3 45 9 16 7
36 12 46 12 10 0 33 5 51 12 29 10 35 9 47 -8 14 -19 15 -19 29 0 8 11 14 24
14 30 0 6 5 5 11 -1 9 -9 19 -4 41 17 16 16 48 35 71 42 23 6 55 23 71 36 16
13 37 21 47 19 10 -3 20 1 23 8 2 7 37 32 78 54 40 23 93 58 118 77 75 57 190
175 233 239 23 33 66 90 97 126 30 36 79 107 108 156 53 91 53 91 116 112 34
11 74 21 87 21 41 0 137 28 160 47 12 10 34 30 50 45 l28 26 -24 6 c-13 3 -31
3 -40 0 -10 -4 -21 -1 -25 6 -5 8 -15 10 -26 5 -11 -5 -23 -7 -29 -6 -5 2 -14
4 -20 5 -5 1 -17 6 -25 11 -8 5 -25 8 -38 6 -14 -1 -29 5 -38 16 -12 16 -15
16 -23 3 -8 -11 -13 -12 -22 -3 -6 6 -18 9 -25 6 -8 -3 -18 6 -26 22 -10 22
-13 24 -21 10 -6 -12 -12 -13 -22 -5 -10 8 -16 7 -23 -6 -12 -22 -32 -9 -32
22 0 33 -13 30 -27 -6 -13 -34 -33 -40 -33 -10 0 31 22 70 40 70 9 0 23 11 30
25 13 24 40 35 40 16 0 -15 31 -21 52 -10 15 8 27 8 45 0 19 -9 29 -9 41 1 12
11 16 11 20 0 3 -10 7 -10 18 -1 11 9 18 9 26 1 8 -8 17 -8 30 -1 12 6 25 6
38 -1 11 -6 24 -9 29 -6 4 3 25 0 47 -5 38 -11 104 -71 104 -95 0 -21 21 -27
46 -13 21 11 27 10 47 -8 61 -54 178 -97 237 -87 42 8 82 27 100 49 11 14 10
20 -8 43 -12 15 -38 56 -57 92 -42 79 -71 114 -86 105 -15 -10 -117 91 -135
132 -18 41 -18 73 0 73 10 0 13 15 12 55 -1 30 2 56 7 58 5 1 -2 14 -15 27
-28 29 -58 75 -58 88 0 14 59 74 110 112 119 88 203 207 224 319 9 45 25 85
53 127 54 85 70 155 55 248 -23 139 -120 279 -262 382 -95 69 -145 84 -341
105 -271 29 -527 -45 -701 -203 -21 -19 -54 -50 -75 -69 -21 -19 -64 -51 -95
-72 -64 -42 -62 -36 -78 -187 -18 -173 -20 -179 -46 -197 -13 -8 -24 -22 -24
-30 0 -28 -59 -41 -150 -33 -47 4 -87 6 -89 4 -2 -2 1 -4 7 -4 7 0 12 -9 12
-20 0 -11 -4 -20 -10 -20 -5 0 -10 -7 -10 -15 0 -8 -4 -15 -9 -15 -5 0 -17 -8
-26 -17 -10 -9 -24 -17 -34 -18 -9 -1 -24 -5 -33 -9 -9 -4 -26 -3 -37 4 -16 8
-21 8 -21 -1 0 -6 -15 -2 -36 10 -19 12 -45 21 -58 21 -13 0 -31 9 -41 20 -10
11 -26 20 -35 20 -20 0 -30 23 -40 90 -5 34 -3 54 12 83 10 20 15 37 11 37 -5
0 -1 4 7 10 8 5 12 11 9 14 -7 8 -187 -13 -212 -25 -17 -7 -13 -9 21 -5 l42 4
0 -44 0 -44 -65 0 -65 0 0 39 c0 22 6 42 13 45 13 7 -241 0 -343 -9 l-65 -5
39 15 c21 8 100 20 175 26 75 6 145 15 156 20 11 5 12 7 3 5 -9 -3 -21 1 -27
7 -7 9 -2 16 19 25 18 8 28 20 27 32 -1 11 -3 17 -5 15 -3 -2 -12 6 -22 18
-12 15 -16 32 -13 54 5 29 3 33 -16 33 -18 0 -21 6 -21 38 -1 34 -27 113 -29
84 -1 -10 -6 -10 -22 -1 -17 9 -19 13 -8 20 8 5 10 9 4 9 -5 0 -3 5 5 10 11 7
5 10 -22 10 -28 0 -38 -4 -38 -16 0 -8 -5 -12 -11 -8 -8 4 -8 9 0 17 6 6 11
18 10 27 0 10 -2 11 -6 3 -8 -20 -41 -15 -48 7 -4 12 -1 28 6 36 10 12 9 13
-7 7 -10 -4 -28 -15 -38 -25 -11 -10 -30 -18 -43 -18 l-24 0 27 25 c29 27 27
42 -3 30 -20 -8 -83 -16 -83 -10 0 2 7 11 16 20 23 23 9 31 -21 11 -22 -15
-25 -15 -25 -1 0 9 6 18 14 21 8 3 17 11 19 19 5 10 -4 10 -46 -1 -29 -8 -63
-13 -77 -13 -22 0 -20 3 15 20 l40 19 -60 -6 c-33 -3 -68 -8 -77 -10 -10 -3
-18 -1 -18 5 0 5 16 13 35 17 55 10 41 23 -19 17 -63 -7 -88 12 -29 22 59 10
62 13 13 14 -25 1 -70 4 -100 8 l-55 7 55 12 55 12 -55 2 c-41 1 -50 4 -35 10
11 5 35 9 53 9 21 1 31 5 27 12 -4 6 -33 8 -78 4 -70 -6 -71 -5 -39 9 54 25
43 37 -45 51 -46 7 -55 20 -23 30 28 9 15 25 -20 25 -16 0 -32 5 -36 11 -5 8
-29 10 -75 5 -94 -8 -93 7 1 34 22 7 20 8 -15 10 -22 2 -46 3 -52 3 -27 -1
-11 15 32 33 68 28 63 31 -70 50 -38 5 -45 9 -30 15 11 4 35 8 53 8 17 1 32 5
32 10 0 14 -76 24 -185 24 -101 0 -196 -21 -262 -57 l-28 -15 25 -2 25 -1 -25
-8 c-25 -7 -22 -11 20 -23 8 -2 -4 -10 -27 -17 -24 -7 -43 -19 -43 -25 0 -7
-8 -16 -17 -19 -35 -13 -63 -31 -63 -40 0 -5 22 -6 49 -4 41 4 47 3 36 -9 -8
-7 -23 -13 -36 -13 -18 0 -20 -2 -8 -16 11 -13 11 -17 -1 -24 -69 -40 -63 -58
12 -41 29 6 64 14 78 17 l25 6 -25 -21 c-14 -11 -29 -21 -34 -21 -13 0 -106
-73 -106 -83 0 -4 5 -5 11 -1 16 10 152 35 157 29 3 -3 -2 -5 -10 -5 -9 0 -18
-7 -22 -15 -3 -8 -12 -15 -20 -15 -18 0 -106 -52 -106 -62 0 -4 20 1 45 12 47
20 61 13 23 -12 -23 -15 -17 -43 8 -34 25 9 15 -4 -18 -25 -18 -12 -25 -18
-15 -15 11 3 31 9 45 12 l27 6 -29 -26 c-16 -14 -33 -26 -38 -26 -4 0 -16 -8
-26 -17 -26 -25 -79 -54 -116 -63 -17 -5 -53 -17 -81 -28 -94 -38 -240 -80
-300 -87 -55 -6 -58 -8 -40 -21 14 -10 36 -13 75 -9 193 17 332 27 336 22 3
-3 -30 -13 -73 -22 -103 -23 -115 -28 -75 -33 17 -2 32 -6 32 -10 0 -8 -114
-32 -152 -32 -18 -1 -20 -3 -8 -9 23 -13 85 -20 190 -21 l95 -1 -39 -20 c-29
-16 -35 -23 -25 -29 25 -16 -38 -30 -130 -30 -75 0 -261 30 -336 55 -31 10
-69 29 -75 37 -3 3 -27 15 -54 26 l-49 19 109 -3 c60 -1 132 -3 159 -4 75 -3
109 -1 102 6 -10 10 -194 73 -302 103 -132 38 -205 62 -235 79 l-25 14 30 -6
c17 -3 89 -8 160 -11 101 -4 121 -2 90 6 -22 5 -59 15 -83 21 -24 6 -49 20
-58 32 -8 12 -18 21 -22 22 -9 1 -29 8 -132 50 -47 19 -89 34 -93 34 -4 0 -28
13 -55 30 -29 18 -40 30 -29 30 10 0 15 5 12 11 -4 6 -12 8 -19 6 -7 -3 -23 4
-37 14 -13 10 -30 19 -36 19 -28 0 -11 20 18 20 16 0 28 3 25 8 -2 4 116 6
262 4 147 -2 264 -1 261 2 -4 4 -62 11 -130 17 -196 15 -369 49 -369 71 0 4
-9 8 -19 8 -11 0 -22 4 -25 9 -4 5 70 9 175 10 100 0 184 3 187 6 14 14 -19
20 -146 28 -75 5 -144 12 -152 15 -8 4 30 9 85 12 l100 5 -50 18 c-58 21 -93
32 -155 48 -25 6 -83 23 -130 37 l-85 26 53 15 c28 7 52 17 52 21 0 4 -31 12
-70 19 -38 7 -70 17 -70 22 0 5 7 9 15 9 9 0 20 11 25 25 7 18 21 28 56 36 41
11 45 14 30 24 -18 14 -20 13 93 31 37 5 42 8 29 18 -21 15 -5 29 60 50 52 17
61 36 19 36 -87 1 -8 52 148 96 l100 29 -65 10 -65 11 75 36 c137 65 245 95
352 101 54 2 98 1 98 -2 0 -3 -26 -19 -58 -34 l-57 -28 65 6 c36 4 106 13 157
21 85 14 126 18 211 22 57 3 34 22 -27 22 -33 0 -68 3 -77 7 -25 9 164 44 236
44 47 0 52 1 37 12 -54 36 -54 36 -2 37 44 1 48 2 32 14 -15 12 -12 14 29 20
25 3 57 3 70 0 33 -8 30 9 -3 24 -25 10 -23 11 22 7 49 -5 49 -5 25 10 -24 15
-23 16 33 10 31 -4 57 -4 57 -1 0 3 -12 12 -27 20 -32 18 -10 22 31 6 16 -6
27 -6 31 1 4 5 11 7 16 4 5 -4 12 1 15 9 4 11 14 14 30 10 15 -4 24 -2 24 6 0
6 8 9 18 6 63 -19 75 -19 69 -2 -5 13 -2 15 16 11 12 -2 49 -9 81 -15 32 -5
80 -22 105 -37 75 -43 148 -96 122 -88 -32 10 -19 -10 23 -36 21 -13 25 -19
14 -19 -24 0 -23 -12 3 -28 11 -7 18 -19 16 -26 -3 -8 8 -26 23 -41 16 -16 27
-32 25 -36 -3 -4 7 -17 21 -28 16 -12 21 -21 13 -21 -8 -1 2 -14 21 -30 28
-25 31 -30 15 -30 -17 0 -16 -3 8 -18 15 -9 27 -22 27 -28 0 -6 10 -15 23 -18
19 -6 20 -8 5 -14 -15 -6 -13 -11 15 -33 17 -14 53 -38 80 -53 58 -34 60 -41
7 -20 -23 9 -43 14 -46 12 -4 -5 81 -50 121 -64 19 -6 18 -7 -5 -15 -18 -6
-12 -8 25 -5 43 4 46 2 27 -8 -32 -17 -17 -26 42 -27 l51 -1 -40 -12 -40 -13
43 -7 c23 -4 61 -5 85 -2 l42 6 -39 -15 c-22 -8 -42 -18 -45 -21 -6 -6 58 1
119 12 17 3 11 -3 -20 -21 -25 -14 -36 -24 -25 -21 11 2 40 8 65 11 25 4 67
16 93 26 60 24 54 9 -9 -20 -25 -12 -44 -24 -41 -27 7 -7 94 16 146 38 59 25
63 16 6 -17 -56 -33 -52 -44 7 -20 112 45 138 54 138 51 0 -3 -24 -19 -52 -36
-46 -27 -49 -31 -23 -26 17 2 64 21 105 40 42 20 62 33 45 30 -37 -7 -23 5 49
42 34 18 45 28 36 34 -8 5 12 20 61 44 40 20 80 37 88 37 9 1 0 5 -19 8 -34 7
-33 8 30 21 36 8 57 16 47 18 -27 5 -10 22 23 22 16 0 31 4 34 9 4 5 29 12 56
16 47 7 61 25 19 25 -11 0 -17 5 -14 10 3 6 37 10 75 10 75 0 96 12 53 29 -23
9 -17 9 30 5 65 -7 77 7 25 30 -19 8 -26 15 -16 15 17 1 106 -21 143 -35 16
-6 14 -2 -7 19 -35 32 -35 39 -2 27 37 -14 39 -12 13 11 l-24 20 25 -12 c14
-7 36 -23 49 -36 36 -35 38 -19 2 22 -43 50 -37 59 12 17 9 -8 20 -12 24 -9 3
4 15 0 25 -10 31 -28 29 -9 -4 38 l-32 44 30 -26 c38 -34 94 -72 94 -64 0 13
-29 62 -45 75 -9 7 -21 23 -27 34 -6 12 20 -8 58 -44 92 -89 96 -92 101 -86 3
2 -4 17 -14 33 -68 99 -95 144 -91 148 6 7 52 -52 117 -148 52 -78 78 -98 46
-37 -28 53 -11 56 23 3 18 -27 32 -54 32 -60 0 -5 14 -22 31 -39 19 -18 28
-22 24 -11 -4 9 -10 17 -14 17 -8 0 -31 44 -31 58 0 9 80 -75 102 -108 25 -37
22 -4 -6 66 -13 32 -26 75 -30 94 -5 28 -2 25 13 -15 33 -89 84 -190 88 -175
2 9 -12 54 -31 101 -19 47 -37 108 -41 135 -4 27 -9 57 -12 67 -2 9 0 17 6 17
5 0 13 -21 16 -47 8 -61 63 -219 81 -234 19 -16 18 -7 -10 59 -35 83 -77 264
-85 362 -9 121 -2 462 9 455 15 -9 21 34 17 110 l-3 70 -2 -82 c-1 -46 -6 -83
-12 -83 -5 0 -8 18 -5 43 2 23 7 68 10 101 3 32 8 63 12 69 3 5 7 37 8 71 10
280 104 745 160 791 7 6 25 43 40 82 16 40 31 71 33 68 3 -2 8 -30 12 -62z
m-716 -38 c5 -22 4 -26 -4 -15 -5 8 -10 24 -10 34 0 26 6 18 14 -19z m594 -53
c-6 -29 -13 -50 -16 -47 -2 2 1 27 8 55 7 28 14 49 16 47 3 -2 -1 -27 -8 -55z
m-568 4 c0 -7 2 -29 5 -47 4 -28 3 -26 -10 11 -18 54 -17 50 -5 50 6 0 10 -6
10 -14z m517 -198 c-3 -8 -6 -5 -6 6 -1 11 2 17 5 13 3 -3 4 -12 1 -19z m-379
-183 c0 -16 -2 -15 -8 5 -4 14 -8 36 -8 50 0 22 1 22 8 -5 4 -16 8 -39 8 -50z
m2 -125 c0 -5 -5 -10 -11 -10 -5 0 -7 5 -4 10 3 6 8 10 11 10 2 0 4 -4 4 -10z
m-3 -52 c-3 -8 -6 -5 -6 6 -1 11 2 17 5 13 3 -3 4 -12 1 -19z m-1132 -568 c8
12 171 14 179 1 3 -5 -23 -11 -58 -13 -82 -5 -116 -26 -116 -72 0 -59 85 -109
155 -92 33 8 67 48 81 94 l11 36 26 -39 c42 -61 34 -140 -21 -214 l-25 -34
-82 7 c-191 14 -311 86 -323 192 -6 59 28 114 73 114 17 0 39 7 49 15 14 10
23 12 32 4 8 -7 14 -7 19 1z m163 -52 c32 -32 -6 -81 -60 -76 -28 2 -34 7 -36
31 -2 19 1 27 12 27 8 0 17 -6 19 -12 4 -9 6 -8 6 3 1 18 20 39 36 39 6 0 16
-5 23 -12z m1002 -173 c7 -60 14 -128 15 -150 3 -34 38 -163 52 -187 2 -5 2
-8 0 -8 -2 0 -24 39 -47 88 -40 80 -44 95 -49 187 -3 55 -4 134 -2 175 3 64 5
70 11 40 5 -19 14 -84 20 -145z m27 8 c-3 -10 -5 -4 -5 12 0 17 2 24 5 18 2
-7 2 -21 0 -30z m1375 11 c30 -16 58 -51 58 -74 0 -8 -11 -41 -24 -72 -13 -32
-20 -55 -15 -52 14 8 45 74 59 127 14 51 20 55 44 31 36 -35 3 -172 -55 -232
-32 -33 -108 -62 -162 -62 -71 0 -129 59 -143 146 -7 48 9 114 36 146 l20 23
-6 -27 c-3 -15 -2 -34 4 -44 8 -14 10 -11 16 18 16 89 81 116 168 72z m-1365
-56 c-3 -8 -6 -5 -6 6 -1 11 2 17 5 13 3 -3 4 -12 1 -19z m1131 -203 c12 -15
22 -31 22 -34 0 -12 -71 -42 -81 -35 -9 5 -7 41 7 134 l6 35 12 -36 c7 -21 23
-49 34 -64z m-1150 -73 c47 -92 55 -129 16 -67 -48 75 -84 160 -83 195 l0 35
13 -40 c7 -22 31 -77 54 -123z m-348 -137 c14 -8 21 -14 15 -14 -5 0 -21 6
-35 14 -14 8 -20 14 -15 14 6 0 21 -6 35 -14z m474 -11 c7 -19 2 -18 -19 6
-16 17 -16 20 -3 15 9 -4 19 -13 22 -21z m60 -59 c19 -29 21 -42 4 -23 -44 47
-52 59 -36 53 9 -4 24 -17 32 -30z m1289 10 c10 -14 15 -25 12 -25 -6 0 -45
38 -45 45 0 12 17 2 33 -20z m-10 -76 c3 -10 2 -19 -2 -19 -7 0 -41 54 -41 66
0 14 38 -27 43 -47z m-4383 -949 c0 -5 -8 -10 -17 -10 -15 0 -16 2 -3 10 19
12 20 12 20 0z m3818 -38 c2 -7 -3 -12 -12 -12 -9 0 -16 7 -16 16 0 17 22 14
28 -4z m-3858 4 c0 -12 -198 -66 -257 -71 l-68 -6 40 16 c22 8 72 22 110 31
39 8 86 19 105 23 41 10 70 13 70 7z m7401 -58 c1 -17 2 -19 6 -5 2 9 8 17 12
17 12 0 38 -33 46 -59 6 -18 9 -20 16 -10 6 10 9 7 9 -12 0 -14 9 -34 19 -43
10 -10 22 -34 26 -54 4 -20 16 -45 27 -56 10 -10 17 -25 14 -32 -3 -8 0 -17 8
-20 12 -4 26 -31 50 -94 3 -8 10 -22 14 -30 9 -15 23 -44 58 -125 10 -22 28
-57 41 -77 13 -21 23 -45 23 -55 0 -9 6 -24 13 -32 24 -28 57 -131 57 -177 0
-50 -34 -148 -61 -175 -11 -11 -19 -23 -19 -28 0 -16 -89 -71 -114 -71 -13 0
-30 8 -38 18 -15 16 -52 131 -78 237 -12 52 -26 95 -40 130 -5 11 -11 34 -13
50 -3 17 -13 55 -22 85 -9 30 -21 82 -26 115 -6 33 -14 69 -19 80 -4 11 -13
45 -19 75 -6 30 -17 84 -26 120 -18 80 -20 221 -3 238 19 19 38 14 39 -10z
m-7746 -18 c3 -5 1 -10 -4 -10 -6 0 -11 5 -11 10 0 6 2 10 4 10 3 0 8 -4 11
-10z m1926 -188 c-7 -2 -18 1 -23 6 -8 8 -4 9 13 5 13 -4 18 -8 10 -11z m6778
-14 c21 -12 43 -33 49 -47 7 -14 25 -46 41 -71 16 -25 35 -63 41 -85 7 -22 19
-48 27 -57 9 -10 13 -18 8 -18 -4 0 4 -15 19 -34 14 -19 26 -44 26 -55 0 -11
4 -23 10 -26 9 -6 60 -108 60 -121 0 -9 114 -238 121 -244 3 -3 12 -26 20 -52
7 -27 17 -48 21 -48 4 0 8 -4 8 -10 0 -5 11 -34 25 -65 14 -30 24 -56 23 -58
-2 -1 7 -15 20 -31 12 -16 22 -39 22 -52 0 -12 5 -26 10 -29 6 -3 10 -17 10
-30 0 -13 3 -25 8 -27 10 -4 42 -63 42 -77 0 -6 14 -41 31 -78 52 -117 59
-133 59 -148 0 -8 5 -15 10 -15 6 0 10 -12 10 -28 0 -16 8 -32 19 -39 10 -6
22 -28 25 -48 4 -20 14 -39 22 -42 7 -3 14 -16 14 -28 0 -13 5 -27 10 -30 6
-3 10 -19 10 -35 0 -16 7 -35 15 -44 8 -8 15 -19 15 -25 0 -6 10 -29 22 -53
12 -23 22 -57 22 -75 0 -19 5 -33 12 -33 6 0 14 -13 17 -29 4 -16 15 -38 25
-48 26 -25 62 -140 62 -195 0 -32 5 -48 15 -52 9 -3 15 -18 15 -40 0 -19 4
-36 9 -38 5 -1 12 -38 16 -80 6 -68 5 -78 -9 -78 -12 0 -16 -10 -16 -40 0 -22
5 -40 10 -40 6 0 9 -19 9 -42 l-2 -43 -6 40 c-5 33 -10 40 -31 43 -24 3 -25 1
-22 -38 3 -25 0 -40 -7 -40 -6 0 -11 -17 -11 -40 0 -22 -4 -40 -10 -40 -5 0
-10 7 -10 15 0 11 -11 15 -40 15 -36 0 -40 3 -40 25 0 23 4 25 40 25 29 0 40
4 40 15 0 11 -11 15 -40 15 -29 0 -40 -4 -40 -15 0 -9 -9 -15 -25 -15 -22 0
-25 -4 -25 -40 0 -29 -4 -40 -15 -40 -11 0 -15 11 -15 41 l0 40 -37 -3 c-36
-3 -38 -5 -38 -40 0 -36 0 -36 -46 -40 -40 -3 -45 -1 -41 15 4 14 -3 17 -37
17 -30 0 -41 -4 -41 -15 0 -8 6 -15 13 -16 10 0 10 -2 0 -6 -8 -3 -13 -24 -13
-54 l0 -49 -40 0 c-29 0 -40 4 -40 15 0 8 -7 15 -15 15 -11 0 -15 -11 -15 -40
0 -29 -4 -40 -15 -40 -11 0 -15 -11 -15 -40 0 -22 -4 -40 -10 -40 -10 0 -15
34 -12 83 2 25 0 27 -38 27 -38 0 -40 -2 -40 -30 0 -28 -2 -30 -40 -30 -36 0
-40 -2 -40 -25 0 -21 -5 -25 -29 -25 -23 0 -30 -5 -33 -22 -2 -19 -10 -23 -43
-26 -30 -2 -36 0 -25 8 12 8 11 10 -7 10 -13 0 -23 -4 -23 -10 0 -5 -18 -10
-40 -10 -29 0 -40 -4 -40 -15 0 -10 -11 -15 -35 -15 -34 0 -35 1 -36 43 -2 29
-3 34 -6 15 -4 -28 -5 -28 -84 -28 -64 0 -79 -3 -79 -15 0 -12 16 -15 80 -15
79 0 80 0 80 -25 0 -22 -4 -25 -40 -25 -29 0 -40 -4 -40 -15 0 -10 -10 -15
-30 -15 -23 0 -30 -4 -30 -20 0 -11 -4 -20 -10 -20 -5 0 -10 9 -10 20 0 17 -7
20 -40 20 -29 0 -40 4 -40 15 0 11 -11 15 -40 15 -38 0 -40 -2 -40 -30 0 -28
-3 -30 -35 -30 -26 0 -33 3 -29 15 4 11 0 15 -16 15 -16 0 -20 4 -16 15 4 12
-3 15 -29 15 -24 0 -35 -5 -35 -15 0 -10 -10 -15 -30 -15 -28 0 -30 3 -30 34
0 19 -4 38 -10 41 -5 3 -10 1 -10 -4 0 -6 -18 -11 -40 -11 -29 0 -40 -4 -40
-15 0 -11 -11 -15 -40 -15 -29 0 -40 4 -40 15 0 10 -10 15 -34 15 -18 0 -48 5
-66 11 l-32 12 7 71 c4 39 9 74 11 78 12 19 23 5 27 -34 2 -24 4 12 5 80 2 97
5 122 16 122 9 0 16 15 19 43 9 76 29 182 38 199 5 10 9 31 9 48 0 16 4 30 9
30 13 0 29 48 37 110 3 30 9 60 13 65 11 16 39 107 46 149 3 21 10 46 14 55
19 37 41 118 41 149 0 17 4 32 9 32 5 0 12 15 16 33 3 17 17 68 30 112 44 148
86 300 96 345 6 25 14 54 19 65 5 11 16 49 25 85 9 36 20 74 25 85 10 19 69
236 93 340 6 28 14 52 17 55 5 5 19 49 41 130 6 25 15 53 20 62 5 10 9 27 9
37 0 11 4 22 9 25 5 3 12 23 16 43 4 21 18 70 31 110 13 39 24 81 24 92 0 11
4 22 9 26 5 3 15 31 21 63 17 86 65 192 87 192 2 0 21 -10 42 -22z m-8957 0
c-8 -10 9 -13 81 -14 51 0 110 -6 132 -12 22 -7 99 -12 170 -13 150 -1 221 -9
217 -27 -1 -7 5 -12 14 -12 32 0 2 -18 -43 -26 l-48 -7 40 -8 c22 -4 58 -8 80
-9 40 -1 40 -1 15 -15 l-25 -14 30 -2 c17 -1 38 -3 47 -4 41 -2 23 -13 -44
-26 l-73 -14 90 -5 c74 -4 87 -7 70 -17 -18 -10 -16 -12 20 -18 22 -4 43 -9
47 -12 13 -7 -4 -34 -26 -43 -19 -7 -19 -8 9 -14 17 -4 48 -16 70 -27 38 -18
47 -32 128 -192 48 -94 87 -177 87 -183 0 -6 7 -17 16 -25 22 -18 61 -101 57
-120 -2 -9 10 -38 26 -65 34 -52 38 -70 19 -77 -8 -3 -6 -6 5 -6 19 -1 30 -24
41 -82 6 -34 4 -37 -26 -52 l-33 -17 40 3 40 2 -1 -38 c-1 -21 1 -35 4 -32 3
3 21 -31 39 -76 18 -45 48 -102 68 -127 19 -25 35 -48 35 -52 0 -4 -10 -12
-22 -18 l-23 -11 24 0 c23 -1 131 -98 131 -119 0 -5 11 -19 26 -33 23 -22 24
-24 8 -36 -22 -16 -224 -18 -224 -3 0 6 -28 10 -62 11 l-63 1 43 12 c52 13 45
26 -15 26 -23 0 -43 5 -43 10 0 6 -8 10 -17 11 -40 1 26 17 100 24 42 4 77 11
77 16 0 5 -43 9 -96 9 -61 0 -93 4 -89 10 3 6 0 10 -7 11 -7 0 16 9 50 20 35
11 62 23 59 25 -3 3 -31 1 -63 -5 -188 -32 -245 -19 -79 17 126 28 10 25 -134
-3 -14 -3 -6 3 19 14 48 21 46 24 -10 21 -52 -3 -25 15 45 29 110 23 114 25
57 29 -28 2 -93 -4 -143 -13 -51 -8 -94 -13 -97 -10 -3 3 1 5 9 5 8 0 32 9 54
20 l40 19 -60 -5 -60 -6 40 26 c22 14 53 32 69 39 23 12 25 15 11 21 -9 3 -29
6 -45 6 -48 0 -89 12 -84 24 3 8 -9 11 -38 9 l-43 -3 35 11 c55 16 60 29 11
29 -51 0 -131 19 -131 31 0 5 9 9 19 9 11 0 21 6 23 13 3 6 36 17 74 23 l69
11 -67 2 c-37 0 -69 -3 -73 -8 -5 -9 -103 -6 -112 2 -2 2 29 10 69 17 39 7 85
18 102 26 l31 13 -39 1 c-48 0 -118 22 -218 69 -81 37 -95 51 -54 51 30 0 56
9 56 20 0 5 -22 11 -48 15 -63 8 -90 25 -42 25 59 1 13 18 -80 29 -47 6 -88
11 -92 11 -4 0 -5 7 -1 16 5 14 17 16 75 11 69 -6 94 5 36 17 -18 3 -50 11
-72 17 l-41 12 40 11 40 12 -76 7 c-42 3 -87 11 -100 16 -20 8 -14 10 34 10
67 1 74 13 17 30 -22 7 -38 16 -35 21 3 5 -3 13 -12 19 -14 8 0 10 55 11 86 0
95 16 15 25 -71 9 -135 23 -109 24 20 1 20 1 1 15 -19 13 -17 15 18 21 25 5
37 12 33 20 -6 17 18 22 141 31 64 4 100 11 96 17 -6 10 108 3 167 -10 l25 -5
-22 16 c-13 9 -37 22 -55 28 -18 6 -40 17 -48 24 -18 15 -165 74 -185 74 -8 0
-15 4 -15 8 0 5 -11 14 -25 20 -37 17 -31 27 23 38 l47 10 -37 16 c-21 9 -47
26 -60 37 -12 12 -27 21 -34 21 -7 0 -27 8 -46 17 -62 31 -68 33 -93 33 -31 0
-78 21 -125 56 l-35 26 30 -6 c47 -8 124 -11 131 -3 12 12 -119 50 -172 50
-14 0 -27 4 -31 10 -4 6 0 8 10 4 10 -3 17 -2 17 2 0 5 10 7 23 5 l22 -5 -22
17 c-32 23 -29 31 11 26 18 -2 37 1 40 7 4 6 10 11 13 11 3 0 1 -6 -5 -12z
m2238 -84 c0 -8 -5 -12 -10 -9 -6 4 -8 11 -5 16 9 14 15 11 15 -7z m1255
-1144 c3 -5 1 -10 -4 -10 -6 0 -11 5 -11 10 0 6 2 10 4 10 3 0 8 -4 11 -10z
m49 -26 c3 -9 6 -25 6 -36 0 -17 -3 -18 -15 -8 -16 13 -21 60 -6 60 5 0 12 -7
15 -16z m76 -48 c-12 -32 -30 -26 -30 10 0 14 4 23 9 20 5 -3 12 4 16 17 7 21
8 21 12 1 2 -11 -1 -33 -7 -48z m-2010 -445 c0 -9 10 -21 23 -26 12 -6 20 -13
17 -17 -3 -3 5 -17 18 -31 23 -24 23 -25 3 -30 -22 -5 -138 6 -226 22 -30 6
-62 8 -70 5 -8 -4 -15 -2 -15 4 0 5 15 13 33 18 l32 8 -43 4 c-24 2 -49 -2
-57 -8 -8 -7 -15 -7 -19 -1 -3 5 8 12 26 16 18 4 40 13 48 20 14 11 96 30 160
38 42 4 70 -4 70 -22z m119 -153 c20 -18 35 -35 34 -40 -2 -4 9 -11 22 -14 31
-8 28 -26 -6 -35 -39 -11 -127 -10 -131 2 -2 7 -12 7 -31 0 -51 -20 -27 23 29
50 l39 19 -56 -5 c-86 -7 -107 35 -24 48 72 10 87 7 124 -25z m105 -113 c-4
-8 1 -17 10 -21 25 -9 19 -22 -16 -37 -59 -26 -72 -29 -59 -13 9 11 8 15 -6
20 -15 6 -15 8 -3 16 24 15 6 11 -28 -6 -18 -8 -40 -14 -50 -12 -11 2 6 15 47
36 70 35 114 42 105 17z m3581 -15 c3 -5 -1 -10 -10 -10 -9 0 -13 5 -10 10 3
6 8 10 10 10 2 0 7 -4 10 -10z m-3515 -60 c0 -5 -6 -11 -12 -11 -7 -1 1 -5 17
-9 l30 -7 -25 -10 c-14 -6 -36 -14 -50 -18 -25 -7 -25 -7 -5 10 19 16 19 16
-10 11 -16 -2 -39 -8 -50 -11 l-20 -7 20 17 c40 34 105 55 105 35z m69 -76
c-16 -19 -30 -18 -22 2 5 14 3 15 -15 5 -11 -6 -24 -11 -29 -11 -4 1 3 7 16
14 31 17 67 10 50 -10z m36 -34 c-8 -13 -66 -43 -71 -37 -7 7 47 47 63 47 8 0
11 -5 8 -10z m40 -69 c-3 -6 -11 -11 -16 -11 -5 0 -4 6 3 14 14 16 24 13 13
-3z m75 -56 c-13 -14 -26 -22 -29 -19 -3 3 5 14 19 24 34 27 38 25 10 -5z
m420 -132 c0 -13 -54 -63 -67 -63 -29 0 25 69 55 70 6 0 12 -3 12 -7z m1904
-304 c78 -52 119 -121 79 -133 -10 -3 -139 -28 -288 -56 -148 -28 -333 -64
-410 -80 -214 -45 -213 -45 -235 -25 -47 43 -13 79 88 94 86 13 431 85 512
106 30 8 81 19 113 26 54 10 58 13 52 32 -20 64 -19 67 12 67 16 0 51 -14 77
-31z m-4714 -200 c46 -17 119 -69 96 -69 -34 0 -9 -23 39 -37 28 -8 58 -19 67
-24 10 -5 22 -9 28 -9 6 0 24 -10 41 -22 l30 -23 -33 -11 -32 -11 67 -18 c36
-10 74 -26 83 -36 10 -11 23 -19 31 -19 7 0 13 -4 13 -8 0 -5 22 -14 50 -22
27 -7 47 -17 44 -22 -3 -4 5 -12 18 -17 19 -8 14 -10 -27 -11 l-50 -1 75 -26
c80 -27 103 -40 95 -53 -3 -4 2 -11 11 -14 8 -3 13 -10 10 -14 -6 -10 59 -32
93 -32 11 0 21 -4 21 -10 0 -10 46 -25 70 -22 10 1 11 -1 3 -4 -18 -8 -16 -24
2 -24 20 0 65 -22 65 -32 0 -4 -19 -8 -42 -8 -55 -1 -34 -13 50 -30 49 -10 61
-16 58 -29 -4 -13 14 -22 87 -45 112 -36 126 -46 62 -46 -27 0 -45 -4 -40 -8
6 -5 63 -26 128 -46 98 -32 116 -40 106 -52 -9 -11 -8 -14 5 -14 9 0 16 -4 16
-10 0 -5 -19 -10 -42 -10 -24 0 -50 -5 -58 -10 -11 -7 -4 -10 26 -10 62 0 154
-21 154 -35 0 -7 19 -16 45 -19 44 -7 63 -26 26 -26 -11 0 -23 -5 -27 -12 -4
-6 -3 -8 4 -4 6 3 13 2 16 -3 3 -4 19 -11 35 -14 47 -10 112 -41 107 -52 -2
-6 23 -22 55 -35 32 -14 59 -28 59 -32 0 -4 -24 -4 -52 -1 -57 6 -60 -3 -6
-17 88 -23 138 -50 93 -50 -23 0 -18 -18 8 -23 12 -2 -6 -5 -40 -6 -78 -1 -82
-17 -8 -26 30 -4 55 -12 55 -17 0 -5 10 -6 21 -3 15 5 20 3 17 -6 -3 -9 -26
-15 -64 -18 l-59 -4 70 -11 c47 -8 70 -16 70 -25 0 -7 22 -22 50 -33 67 -26
69 -31 10 -26 -27 3 -40 3 -29 1 12 -2 30 -13 40 -24 9 -10 24 -19 33 -19 9 0
25 -7 35 -15 19 -15 19 -15 -5 -16 -13 -1 -30 -1 -37 0 -8 1 -12 -6 -10 -16 7
-39 -108 -53 -275 -32 -64 8 -94 16 -108 30 -10 10 -16 20 -11 20 4 1 12 2 17
4 6 1 31 3 58 3 67 3 58 19 -15 27 -107 12 -165 54 -75 55 56 0 24 18 -45 24
-93 9 -119 16 -112 28 3 5 13 7 21 4 8 -3 12 -2 9 3 -3 5 20 11 52 15 96 11
91 21 -22 46 -58 13 -103 27 -101 30 3 4 -24 10 -58 14 -238 27 -260 31 -246
42 8 7 23 14 34 17 18 4 18 5 -2 6 -13 0 -53 11 -90 23 l-68 23 83 9 c46 4 81
11 78 14 -8 8 -278 41 -351 43 -33 1 -49 3 -35 6 55 8 71 14 65 23 -3 6 -17
10 -31 10 -14 0 -42 9 -64 20 -22 11 -45 20 -52 20 -7 0 -24 12 -37 25 -13 14
-30 25 -38 25 -8 0 -12 4 -9 9 3 5 63 12 133 16 l128 8 -45 14 c-30 9 -65 11
-104 7 -43 -5 -57 -4 -52 5 5 7 -5 11 -31 13 l-38 1 45 6 c42 6 38 8 -75 29
-157 30 -212 49 -218 73 -4 13 -14 19 -34 19 -15 0 -35 5 -43 10 -12 7 -8 11
18 16 36 7 39 12 15 29 -14 10 -8 13 35 19 28 4 54 11 57 15 5 10 -137 61
-168 61 -9 0 -17 4 -17 8 0 5 -29 23 -65 42 -35 18 -66 39 -69 45 -2 7 -21 16
-42 19 -31 6 -35 10 -23 20 19 18 109 47 123 40 6 -3 2 2 -8 10 -11 9 -31 16
-44 16 -13 0 -36 6 -50 14 -43 23 -137 47 -155 40 -10 -3 -17 -1 -17 5 0 6 15
11 33 11 33 0 66 15 56 25 -4 3 -23 6 -43 7 -35 1 -64 18 -32 18 8 0 20 8 25
19 7 12 27 21 57 26 l47 7 -30 27 c-19 17 -61 36 -114 52 l-84 24 60 5 c67 6
64 14 -7 25 -27 4 -48 11 -48 16 0 10 0 10 100 11 41 0 60 2 43 5 -18 2 -33 8
-33 13 0 4 -11 11 -25 14 -29 7 -24 26 6 26 11 0 18 4 15 8 -7 11 170 -13 214
-29z m8430 -189 c0 -5 -18 -10 -40 -10 -22 0 -40 5 -40 10 0 6 18 10 40 10 22
0 40 -4 40 -10z m-7833 -176 c-3 -3 -12 -4 -19 -1 -8 3 -5 6 6 6 11 1 17 -2
13 -5z m3893 -283 c0 -41 -18 -48 -345 -139 -327 -91 -360 -94 -339 -35 11 32
10 32 324 118 113 31 223 62 245 70 22 7 57 14 78 14 34 1 37 -1 37 -28z
m-2513 -867 c-3 -3 -12 -4 -19 -1 -8 3 -5 6 6 6 11 1 17 -2 13 -5z m-1707 -80
c-25 -9 -49 -20 -54 -25 -13 -12 -56 -12 -56 0 0 9 100 39 135 40 11 0 0 -7
-25 -15z m145 -11 c-11 -2 -36 -10 -55 -18 -53 -20 -180 -53 -227 -58 -45 -5
-60 7 -20 16 12 2 58 15 102 27 126 36 138 38 180 38 22 0 31 -2 20 -5z m1604
-38 c7 -8 -151 -5 -194 4 -26 5 0 7 74 4 63 -2 117 -6 120 -8z m136 -35 c4 -6
-5 -10 -19 -10 -14 0 -26 5 -26 10 0 6 9 10 19 10 11 0 23 -4 26 -10z m-125
-100 c0 -5 -2 -10 -4 -10 -3 0 -8 5 -11 10 -3 6 -1 10 4 10 6 0 11 -4 11 -10z"/>
<path d="M6792 9345 c-17 -37 -14 -45 4 -12 9 16 14 31 11 33 -2 2 -9 -7 -15
-21z"/>
<path d="M3143 7543 c-13 -2 -23 -8 -23 -12 0 -11 92 -1 105 10 9 9 -40 10
-82 2z"/>
<path d="M3120 7498 c0 -5 18 -8 40 -8 22 0 40 2 40 4 0 2 -18 6 -40 8 -22 2
-40 0 -40 -4z"/>
<path d="M3146 7465 c-38 -12 -64 -25 -59 -28 13 -8 235 31 247 43 19 19 -117
9 -188 -15z"/>
<path d="M3928 7113 c7 -3 16 -2 19 1 4 3 -2 6 -13 5 -11 0 -14 -3 -6 -6z"/>
<path d="M3948 7073 c12 -2 30 -2 40 0 9 3 -1 5 -23 4 -22 0 -30 -2 -17 -4z"/>
<path d="M2320 6740 c0 -5 21 -10 46 -10 27 0 43 4 39 10 -3 6 -24 10 -46 10
-21 0 -39 -4 -39 -10z"/>
<path d="M4560 6624 c0 -8 5 -12 10 -9 6 3 10 10 10 16 0 5 -4 9 -10 9 -5 0
-10 -7 -10 -16z"/>
<path d="M4565 6570 c3 -5 8 -10 11 -10 2 0 4 5 4 10 0 6 -5 10 -11 10 -5 0
-7 -4 -4 -10z"/>
<path d="M5161 6226 l-23 -13 23 -6 c35 -10 39 -9 39 7 0 22 -13 26 -39 12z"/>
<path d="M7136 8278 c-22 -31 -20 -60 5 -92 33 -42 56 -34 85 29 26 54 26 56
8 70 -11 8 -28 14 -39 14 -11 0 -14 -3 -7 -6 22 -9 11 -73 -13 -73 -24 0 -35
64 -12 73 9 4 9 6 0 6 -6 1 -19 -9 -27 -21z"/>
<path d="M11520 3575 c0 -22 -4 -25 -40 -25 -32 0 -40 -4 -40 -18 0 -14 -7
-17 -39 -14 -34 3 -39 1 -45 -22 -5 -22 -12 -26 -41 -26 -24 0 -35 -5 -35 -15
0 -12 15 -15 78 -15 72 0 80 2 101 26 12 14 20 32 18 39 -4 8 3 12 16 11 14
-1 26 7 32 22 9 20 17 22 85 24 47 1 59 3 33 5 -29 3 -43 9 -43 19 0 10 -12
14 -40 14 -36 0 -40 -2 -40 -25z"/>
<path d="M3188 5193 c6 -2 18 -2 25 0 6 3 1 5 -13 5 -14 0 -19 -2 -12 -5z"/>
<path d="M3675 4780 c-3 -5 -1 -10 4 -10 6 0 11 5 11 10 0 6 -2 10 -4 10 -3 0
-8 -4 -11 -10z"/>
<path d="M2638 3043 c6 -2 18 -2 25 0 6 3 1 5 -13 5 -14 0 -19 -2 -12 -5z"/>
<path d="M6380 170 c-8 -5 -26 -10 -40 -10 -20 0 -30 -10 -47 -42 -12 -24 -25
-60 -28 -80 l-6 -38 171 0 c164 0 170 1 159 19 -7 11 -9 26 -4 37 13 30 6 54
-23 80 -23 19 -38 23 -94 24 -36 0 -68 4 -70 10 -2 6 -8 6 -18 0z"/>
<path d="M3600 140 c0 -5 4 -10 9 -10 6 0 13 5 16 10 3 6 -1 10 -9 10 -9 0
-16 -4 -16 -10z"/>
</g>
</svg>
