<?xml version="1.0" standalone="no"?>
<!DOCTYPE svg PUBLIC "-//W3C//DTD SVG 20010904//EN"
 "http://www.w3.org/TR/2001/REC-SVG-20010904/DTD/svg10.dtd">
<svg version="1.0" xmlns="http://www.w3.org/2000/svg"
 width="1280.000000pt" height="1280.000000pt" viewBox="0 0 1280.000000 1280.000000"
 preserveAspectRatio="xMidYMid meet">

<g transform="translate(0.000000,1280.000000) scale(0.100000,-0.100000)"
fill="#000000" stroke="none">
<path d="M0 11490 l0 -1310 80 0 c47 0 80 -4 80 -10 0 -5 11 -10 25 -10 23 0
25 -4 25 -40 0 -29 4 -40 15 -40 9 0 15 9 15 25 0 23 4 25 40 25 29 0 40 -4
40 -15 0 -12 16 -15 80 -15 47 0 80 -4 80 -10 0 -6 28 -10 65 -10 l65 0 0 -40
c0 -29 4 -40 15 -40 8 0 15 5 15 10 0 6 33 10 80 10 l80 0 0 30 c0 17 5 30 10
30 6 0 10 -18 10 -40 l0 -40 -50 0 c-38 0 -50 -4 -50 -15 0 -12 16 -15 80 -15
64 0 80 3 80 15 0 9 9 15 25 15 23 0 25 -4 25 -40 0 -29 4 -40 15 -40 8 0 15
5 15 10 0 6 18 10 40 10 22 0 40 -4 40 -10 0 -5 -10 -10 -22 -10 -21 -1 -22
-1 -4 -11 10 -6 84 -13 163 -15 80 -2 148 -6 151 -9 14 -14 -25 -23 -75 -18
-45 5 -53 3 -53 -11 0 -13 13 -16 80 -16 47 0 80 4 80 10 0 6 33 10 80 10 79
0 80 0 80 -25 l0 -25 120 0 120 0 0 -25 c0 -22 4 -25 40 -25 22 0 40 5 40 10
0 6 47 10 120 10 73 0 120 -4 120 -10 0 -6 108 -10 305 -10 l305 0 0 -40 c0
-29 4 -40 15 -40 9 0 15 9 15 25 0 25 1 25 80 25 64 0 80 -3 80 -15 0 -12 14
-15 69 -15 38 0 81 -2 97 -5 38 -7 62 8 46 28 -10 11 -7 16 14 25 14 7 36 12
49 12 22 0 25 4 25 40 0 22 5 40 10 40 6 0 10 -7 10 -15 0 -11 11 -15 40 -15
29 0 40 4 40 15 0 12 16 15 80 15 44 0 80 4 80 9 0 12 129 23 189 15 34 -4 51
-11 51 -21 0 -11 18 -13 103 -7 96 6 142 14 84 14 -15 0 -27 5 -27 10 0 6 -33
10 -80 10 -121 0 -96 16 36 23 113 6 116 6 142 -18 32 -30 46 -31 74 -5 19 18
20 20 4 26 -16 6 -15 8 3 28 20 21 22 40 8 64 -6 8 -2 12 12 12 26 0 27 15 4
30 -16 9 -16 12 10 33 20 17 27 32 27 60 0 20 -4 37 -10 37 -5 0 -10 5 -10 10
0 6 7 10 15 10 18 0 19 12 4 27 -8 8 -5 22 9 51 16 34 17 42 5 46 -12 5 -11
10 2 36 8 16 22 30 30 30 17 0 20 -26 5 -35 -6 -3 -10 -11 -10 -17 0 -6 9 -3
20 7 11 10 20 26 20 37 0 10 5 18 10 18 6 0 10 5 10 10 0 14 8 24 132 161 81
90 188 227 188 241 0 4 13 8 29 8 l30 0 -4 -70 c-2 -38 -6 -74 -9 -79 -3 -5 1
-11 9 -15 19 -7 19 -32 0 -40 -8 -3 -15 -11 -15 -19 0 -20 -60 -79 -101 -100
-20 -10 -58 -39 -84 -63 -70 -64 -92 -76 -124 -69 -24 5 -30 2 -44 -26 -8 -18
-13 -38 -10 -45 2 -6 0 -15 -6 -19 -6 -3 -11 -1 -11 5 0 7 -4 7 -12 -1 -12
-11 -15 -35 -18 -146 -1 -24 -6 -45 -11 -48 -21 -14 -7 -23 22 -15 30 9 30 8
24 -20 l-6 -29 38 11 c26 7 53 27 86 64 27 30 52 54 57 54 4 0 10 -9 13 -20 7
-26 19 -25 55 5 17 14 37 25 46 25 9 0 39 12 67 26 28 14 52 24 53 22 2 -2 13
-20 26 -41 28 -47 90 -77 158 -77 58 0 96 18 100 48 3 22 22 32 22 12 0 -11
59 -50 76 -50 6 0 28 21 49 48 l37 47 -4 -78 -5 -78 26 24 c65 61 100 62 130
2 21 -43 24 -45 67 -45 24 0 44 -4 44 -10 0 -5 9 -10 20 -10 30 0 100 -37 138
-73 36 -35 39 -32 16 17 -16 32 -16 35 2 59 20 27 80 61 129 73 17 4 35 10 40
14 6 4 27 10 48 14 21 4 47 16 58 27 19 19 22 19 38 5 16 -14 23 -10 93 59 86
85 65 82 244 39 101 -24 188 -60 234 -96 21 -17 34 -18 95 -13 l70 7 58 -60
c31 -33 57 -64 57 -70 0 -12 49 -22 111 -22 36 0 49 -4 49 -15 0 -9 18 -20 45
-28 l45 -13 -46 -13 c-51 -15 -42 -33 13 -24 37 6 40 2 17 -21 -14 -15 -12
-16 18 -16 l33 -1 -25 -14 -25 -14 28 -1 c34 0 35 -16 2 -24 -33 -8 -23 -26
15 -26 42 0 45 -17 5 -24 -45 -9 -36 -26 13 -26 33 0 34 -1 17 -14 -18 -13
-18 -13 1 -24 19 -10 19 -11 -1 -17 -11 -4 -33 -13 -50 -20 l-30 -14 45 0 c39
-1 46 -4 47 -22 1 -11 -5 -22 -13 -25 -50 -15 -49 -15 -34 -24 8 -6 26 -10 40
-11 14 0 19 -3 12 -6 -9 -4 -10 -9 -2 -18 8 -10 1 -14 -35 -19 -44 -7 -64 -26
-26 -26 10 0 24 -7 31 -15 10 -12 7 -15 -14 -21 -28 -7 -36 -34 -11 -34 8 0
15 -4 15 -10 0 -5 -21 -9 -47 -9 -27 1 -64 -3 -83 -8 -34 -9 -33 -10 33 -17
83 -9 89 -24 8 -18 -39 3 -76 -1 -107 -12 -26 -9 -58 -16 -71 -16 -13 0 -23
-4 -23 -9 0 -14 -124 -34 -280 -46 -58 -4 -78 -10 -90 -25 -11 -14 -22 -18
-39 -13 -14 3 -22 2 -19 -3 7 -10 -127 -10 -157 1 -11 4 -15 3 -9 -2 5 -4 16
-23 23 -41 12 -28 12 -34 -1 -45 -9 -7 -18 -30 -22 -53 -7 -51 -46 -146 -63
-157 -7 -4 -13 -16 -13 -26 0 -10 -7 -24 -15 -31 -8 -7 -15 -21 -15 -31 0 -11
-7 -19 -15 -19 -11 0 -13 8 -8 33 l6 32 -25 -25 c-22 -22 -23 -26 -9 -38 14
-12 14 -15 -3 -28 -34 -24 -62 -14 -35 13 18 18 -8 26 -38 10 -47 -24 -97 -45
-118 -50 -11 -3 -29 -8 -40 -11 -11 -4 0 4 25 17 65 34 123 68 136 78 6 5 15
5 19 1 5 -4 5 -1 1 6 -8 13 29 81 50 95 7 4 16 26 20 50 7 39 9 57 16 127 1
14 7 28 12 32 27 18 -50 46 -79 29 -5 -3 -12 -6 -15 -7 -38 -7 -139 -84 -112
-84 7 0 10 -5 7 -10 -4 -6 -10 -8 -14 -5 -9 5 -91 -67 -91 -80 0 -5 14 4 30
20 17 16 30 24 30 18 0 -19 -141 -145 -156 -139 -7 3 -17 -1 -21 -8 -5 -7 -18
-19 -31 -25 -20 -11 -26 -10 -39 6 -8 10 -12 12 -8 6 3 -7 1 -13 -5 -13 -6 0
-9 -4 -6 -9 3 -5 -2 -12 -11 -16 -10 -3 -19 -1 -21 4 -2 6 -12 11 -23 11 -10
0 -19 7 -19 15 0 8 -9 15 -21 15 -11 0 -18 4 -14 9 3 6 -4 15 -15 21 -11 6
-20 17 -20 24 0 8 -11 17 -25 20 -14 4 -23 11 -20 16 3 5 -6 17 -20 26 -56 37
-101 158 -91 245 20 165 19 184 -8 217 -43 50 -103 73 -209 79 -121 7 -190 -8
-220 -49 -13 -18 -28 -27 -38 -25 -9 3 -23 1 -30 -3 -8 -6 1 -11 27 -15 21 -4
46 -11 54 -16 12 -6 12 -9 -5 -14 -96 -31 -128 -64 -107 -110 8 -17 8 -25 1
-25 -16 0 -1 -56 36 -132 31 -62 32 -73 32 -172 0 -116 7 -135 43 -116 20 11
21 10 11 -9 -6 -11 -16 -23 -21 -26 -6 -3 -10 -19 -10 -36 0 -32 -19 -40 -27
-10 -5 19 -61 66 -69 58 -3 -2 11 -24 31 -48 19 -24 40 -56 46 -71 16 -41 27
-34 35 21 6 44 9 49 34 53 26 4 28 2 23 -26 -7 -48 31 -96 89 -113 26 -7 49
-17 52 -21 3 -5 -22 -21 -55 -36 -43 -20 -59 -32 -57 -44 6 -32 73 -44 235
-40 84 2 148 -1 144 -5 -5 -5 -72 -10 -151 -12 -78 -2 -144 -6 -147 -8 -9 -9
171 -20 247 -14 66 4 90 12 166 50 49 25 105 48 124 51 24 5 5 -9 -65 -45 -55
-28 -117 -60 -138 -72 -24 -12 -65 -21 -110 -24 -98 -6 -108 -10 -81 -32 27
-21 41 -61 22 -61 -11 0 -11 -2 0 -9 8 -4 16 -27 19 -50 6 -41 6 -41 30 -26
23 15 23 15 18 -7 -3 -13 -7 -34 -9 -48 -1 -14 -5 -31 -9 -36 -4 -7 3 -9 19
-6 16 3 36 -3 54 -17 16 -11 36 -18 45 -15 27 11 43 -13 38 -56 -6 -40 3 -50
25 -28 16 16 28 2 14 -15 -7 -8 -9 -17 -5 -21 4 -4 8 -23 10 -42 1 -25 -2 -34
-14 -34 -13 0 -13 3 -3 15 8 9 9 15 2 15 -20 0 -22 -17 -6 -49 18 -36 25 -39
21 -10 -3 28 19 36 26 9 7 -26 27 -26 34 0 7 28 32 24 71 -10 37 -34 40 -46
12 -53 -11 -3 -25 -18 -32 -34 -7 -15 -17 -31 -23 -35 -5 -4 9 -8 33 -8 42 0
42 0 42 -37 -1 -33 -7 -43 -45 -73 -43 -34 -61 -66 -30 -54 12 5 15 -3 15 -35
0 -23 -4 -41 -10 -41 -5 0 -10 -6 -10 -12 0 -7 -18 -38 -40 -68 -21 -30 -59
-90 -85 -133 -43 -73 -60 -96 -124 -165 l-23 -26 7 35 c7 33 7 34 -12 16 -22
-19 -32 -21 -51 -8 -11 7 -11 14 3 42 l18 34 -24 -20 c-13 -11 -29 -27 -36
-35 -19 -23 -16 6 4 41 9 15 15 31 12 33 -3 3 -27 -1 -54 -9 -59 -18 -73 -19
-57 -3 26 26 14 36 -26 23 -46 -16 -52 -12 -21 14 19 16 21 20 7 21 -9 0 -28
-4 -42 -10 -25 -9 -37 2 -16 15 26 16 5 22 -35 9 -50 -15 -55 -9 -25 29 13 17
17 28 10 32 -8 5 -5 14 7 28 16 18 16 20 1 14 -9 -3 -34 -9 -55 -12 -34 -6
-36 -5 -20 8 9 8 17 19 17 25 0 5 16 24 36 42 45 39 39 48 -16 20 -25 -13 -55
-20 -77 -18 l-35 3 31 35 c37 43 38 50 6 50 -29 0 -32 8 -7 26 15 12 14 13
-13 14 l-30 0 44 40 c47 42 48 49 3 26 -17 -8 -35 -10 -47 -5 -11 4 -15 9 -10
10 6 1 -6 5 -25 9 l-35 7 40 17 c65 28 105 50 105 58 0 5 -16 8 -35 8 -47 0
-46 23 3 43 l37 16 -43 0 c-44 1 -52 21 -9 21 21 1 21 1 3 12 -17 9 -14 13 30
35 l49 24 -40 -6 c-22 -3 -65 -8 -95 -10 l-55 -5 77 27 c120 43 131 68 30 66
-31 0 -46 2 -32 4 37 7 47 21 19 27 -70 15 -66 13 -41 21 12 4 22 11 22 16 0
5 9 9 19 9 11 0 23 5 27 11 5 8 -6 9 -35 4 -25 -4 -41 -3 -41 3 0 6 19 13 42
17 l42 7 -30 13 c-24 11 -25 14 -8 14 32 1 37 14 12 33 -20 15 -20 18 -5 18
14 0 16 4 8 19 -6 10 -8 21 -4 24 10 10 -49 30 -87 29 l-35 -1 33 12 32 12
-22 22 -22 22 24 9 24 9 -24 13 c-14 7 -34 22 -46 34 -11 12 -29 27 -40 34
-17 11 -16 12 14 8 32 -5 32 -5 17 18 -8 12 -28 29 -43 35 l-27 13 27 11 c22
10 25 15 15 28 -7 9 -37 28 -67 42 l-55 27 47 0 c53 0 73 16 31 25 -15 4 -47
10 -70 16 -49 11 -97 12 -106 2 -4 -3 10 -18 31 -32 28 -19 33 -26 20 -29 -9
-2 -26 2 -37 8 -21 11 -31 -3 -11 -15 6 -3 10 -12 10 -18 0 -8 -3 -8 -9 1 -6
10 -10 10 -21 -3 -10 -13 -9 -15 6 -16 16 0 16 -2 -3 -11 -13 -6 -23 -16 -23
-22 1 -26 29 -91 47 -106 30 -24 17 -40 -32 -40 -24 0 -46 -4 -49 -9 -4 -5 9
-21 26 -35 18 -14 40 -32 48 -39 8 -8 23 -17 33 -20 37 -13 5 -29 -47 -24 -28
3 -43 3 -33 0 19 -5 21 -12 7 -33 -6 -10 -4 -20 7 -32 15 -17 15 -18 -6 -18
-33 0 -16 -18 24 -26 42 -8 56 -24 21 -24 -38 0 -40 -17 -4 -26 32 -7 33 -8 8
-15 -20 -5 -21 -7 -5 -8 15 -1 16 -4 7 -13 -18 -18 -14 -36 8 -40 34 -5 23
-23 -15 -26 -41 -4 -46 -17 -10 -26 24 -6 37 -46 15 -46 -5 0 -10 -6 -10 -14
0 -8 -6 -17 -12 -20 -9 -4 -7 -9 6 -18 10 -7 30 -22 44 -34 l25 -21 -34 -8
-34 -7 28 -11 c17 -7 26 -16 22 -25 -3 -8 3 -16 15 -19 11 -3 20 -11 20 -18 0
-6 9 -20 19 -29 11 -10 18 -23 15 -30 -3 -7 7 -18 21 -26 26 -14 33 -30 14
-30 -8 0 -8 -5 1 -15 7 -8 22 -15 34 -15 21 -1 21 -1 1 -16 -16 -12 -18 -18
-7 -34 8 -13 9 -20 1 -20 -6 0 -1 -13 11 -30 20 -28 20 -30 3 -30 -15 0 -16
-2 -3 -11 12 -8 9 -9 -12 -5 -22 5 -26 3 -22 -9 4 -8 10 -15 15 -15 5 0 9 -7
9 -15 0 -9 9 -15 25 -15 15 0 29 -8 36 -22 12 -22 11 -22 -7 -8 -12 9 -10 4 5
-13 l24 -27 -28 0 c-36 0 -23 -13 28 -30 20 -6 37 -18 37 -26 0 -9 7 -14 17
-12 10 2 19 -4 21 -14 2 -11 -3 -18 -12 -18 -9 0 -16 -7 -16 -15 0 -12 4 -14
19 -5 14 7 22 7 26 -1 4 -6 -3 -13 -15 -16 -24 -6 -25 -43 -1 -51 9 -3 11 2 6
17 -8 27 11 28 27 2 11 -18 13 -18 24 -3 19 25 33 5 41 -56 6 -53 23 -62 23
-14 1 31 24 79 33 66 3 -5 -6 -51 -19 -103 -15 -55 -22 -106 -19 -122 9 -39
51 -78 120 -110 71 -33 63 -38 -15 -8 -69 26 -102 57 -135 128 -14 31 -44 72
-67 93 -23 20 -46 52 -52 70 -11 32 -13 33 -76 39 -36 3 -67 4 -69 2 -2 -2 14
-11 37 -21 23 -9 42 -22 42 -29 0 -7 10 -18 22 -24 16 -9 19 -14 10 -17 -10
-3 -4 -13 18 -33 17 -16 36 -29 42 -29 5 0 7 -7 4 -16 -4 -9 -2 -22 4 -29 8
-10 8 -15 -1 -21 -8 -4 -4 -11 12 -20 23 -12 23 -13 5 -20 -17 -6 -13 -10 20
-20 36 -11 37 -13 16 -19 -22 -7 -21 -9 15 -25 35 -17 95 -70 169 -152 41 -46
55 -73 48 -92 -4 -11 -1 -16 10 -16 9 0 16 -6 16 -13 0 -21 132 -157 152 -157
27 0 48 11 48 26 0 8 4 14 9 14 18 0 23 -22 10 -46 -10 -19 -10 -45 -3 -117 6
-50 9 -99 7 -107 -2 -8 -25 -24 -51 -35 -64 -26 -92 -56 -92 -99 0 -19 -6 -36
-12 -38 -9 -3 -7 -12 6 -33 13 -20 15 -30 8 -33 -7 -2 -12 -8 -12 -13 0 -4 6
-6 14 -3 26 10 27 -14 1 -42 -14 -15 -25 -30 -25 -35 0 -4 -3 -16 -7 -26 -4
-10 20 7 54 37 57 51 60 56 52 84 -5 17 -9 49 -9 72 0 47 7 54 150 161 114 85
180 111 180 72 0 -6 -4 -7 -10 -4 -6 3 -7 -1 -4 -9 4 -10 1 -16 -7 -16 -8 0
-5 -6 7 -16 10 -8 14 -13 7 -10 -6 4 -14 2 -18 -4 -3 -5 0 -10 9 -10 8 0 17
-6 19 -12 4 -10 8 -9 16 2 13 18 14 1 2 -19 -5 -7 -13 -11 -18 -8 -4 3 -19 -1
-33 -9 -24 -13 -24 -13 -3 -14 12 0 25 -4 28 -10 3 -6 -1 -10 -10 -10 -15 0
-15 -1 -1 -16 9 -8 16 -23 16 -32 1 -15 2 -15 15 2 8 11 12 29 9 43 -7 25 10
32 20 8 5 -13 38 -15 76 -5 9 2 -45 23 -56 21 -18 -2 -3 52 18 67 27 19 22 30
-19 47 l-36 15 34 25 c19 13 48 37 64 52 31 30 154 137 192 168 12 10 20 22
17 26 -2 5 5 13 16 19 11 6 20 17 20 25 0 21 59 75 83 75 12 0 17 5 14 14 -5
13 25 46 42 46 4 0 16 9 26 20 10 11 24 20 31 20 7 0 17 7 22 16 5 9 12 15 15
15 26 -2 69 15 88 35 12 13 19 24 15 24 -10 0 11 19 51 48 18 12 39 22 46 22
8 0 20 7 27 15 9 10 9 15 1 15 -6 0 -11 5 -11 10 0 6 6 10 14 10 7 0 19 7 26
15 7 8 23 15 35 15 30 0 56 10 51 19 -3 4 4 7 14 8 10 1 31 10 46 19 24 16 25
19 8 25 -16 6 -14 9 14 20 18 8 30 19 28 25 -5 13 66 67 103 79 14 4 34 16 45
27 11 10 30 21 41 24 11 3 28 18 37 34 9 17 24 30 33 30 8 0 14 5 13 12 -2 7
14 15 39 18 49 7 63 17 39 26 -19 7 -22 24 -3 24 6 1 23 14 37 30 17 22 33 30
56 30 18 0 36 5 39 10 3 6 1 10 -4 10 -24 0 -9 16 27 28 147 51 200 62 327 67
71 3 175 7 230 10 124 6 109 -10 -19 -20 -50 -4 -113 -13 -141 -20 l-50 -14
65 1 c36 1 83 -2 104 -6 28 -6 37 -6 32 3 -5 8 9 11 46 10 29 -1 44 -4 33 -6
-11 -3 -24 -8 -30 -13 -5 -4 -50 -13 -98 -20 -48 -7 -90 -17 -93 -21 -2 -4 53
-6 123 -3 146 5 142 -5 -13 -30 -54 -9 -110 -18 -124 -20 -14 -3 40 -2 120 1
81 3 141 1 137 -3 -5 -5 -45 -16 -90 -25 l-82 -17 79 -1 c44 0 76 -4 73 -8
-10 -10 -137 -32 -184 -33 -24 0 -43 -5 -43 -11 0 -5 8 -9 18 -8 9 1 55 0 102
-1 92 -2 90 -4 -50 -29 -43 -8 -42 -9 28 -10 39 0 72 -5 72 -10 0 -5 -32 -15
-70 -22 -39 -7 -69 -14 -67 -15 3 -4 74 -12 112 -14 43 -2 -16 -22 -66 -23
-55 -1 -65 -11 -19 -20 32 -7 41 -27 12 -27 -10 0 -27 -7 -38 -15 -10 -8 -14
-15 -9 -14 6 1 17 1 25 0 24 -2 -9 -21 -37 -21 -14 0 -23 -6 -23 -15 0 -8 5
-15 11 -15 8 0 8 -5 -1 -15 -7 -8 -21 -15 -31 -15 -21 0 -26 -16 -6 -23 18 -6
-8 -33 -39 -41 -20 -5 -25 -12 -21 -26 4 -17 0 -20 -29 -20 -36 0 -44 -13 -17
-28 12 -7 4 -11 -35 -17 -29 -4 -52 -11 -52 -17 0 -5 9 -7 20 -3 15 5 18 3 14
-9 -3 -9 -14 -16 -25 -16 -23 0 -69 -21 -69 -32 0 -4 6 -8 13 -8 8 0 7 -4 -3
-10 -10 -6 -11 -10 -2 -10 6 0 12 -5 12 -10 0 -6 -6 -10 -12 -9 -7 1 -21 1
-31 0 -25 -1 -11 -21 16 -22 20 -1 20 -2 2 -5 -89 -19 -104 -26 -110 -55 -6
-26 -35 -42 -35 -19 0 5 -6 8 -12 6 -7 -3 -26 -7 -43 -11 l-30 -7 25 -13 c24
-14 24 -14 3 -15 -12 0 -29 -3 -39 -7 -12 -4 -15 -3 -10 5 4 7 3 12 -2 12 -6
0 -15 -14 -21 -30 -5 -17 -17 -30 -25 -30 -9 0 -16 -4 -16 -10 0 -5 -12 -11
-27 -11 -24 -2 -25 -2 -5 -6 12 -2 22 -9 22 -14 0 -13 -44 -11 -58 3 -9 9 -12
5 -12 -20 0 -22 -5 -32 -16 -32 -8 0 -12 -4 -9 -10 3 -5 16 -10 28 -10 15 0
18 -3 10 -11 -7 -7 -17 -8 -29 -1 -11 5 -34 12 -52 15 l-32 7 20 -23 21 -22
-28 -6 c-54 -11 -75 -21 -62 -29 6 -5 9 -15 6 -24 -5 -13 -11 -15 -26 -6 -33
17 -44 12 -37 -16 6 -24 5 -26 -19 -22 -20 4 -30 0 -41 -18 -13 -19 -22 -22
-52 -18 -20 2 -38 9 -40 14 -2 6 -10 10 -19 10 -11 0 -8 -8 11 -31 14 -17 26
-36 26 -42 -1 -7 -8 0 -16 16 -8 15 -19 27 -25 27 -5 0 -21 10 -34 23 -66 60
-75 67 -75 59 0 -11 32 -53 72 -97 15 -16 28 -32 28 -35 0 -3 -20 -4 -45 -2
-29 3 -45 0 -45 -7 0 -7 7 -11 16 -9 10 2 19 -3 22 -11 3 -10 -1 -12 -17 -8
-17 4 -21 1 -21 -19 0 -29 -11 -31 -28 -4 -16 26 -28 25 -37 -3 -7 -20 -8 -19
-12 10 l-4 31 -26 -24 c-14 -13 -32 -24 -39 -24 -8 0 -14 -9 -14 -20 0 -11 -4
-20 -9 -20 -6 0 -22 -11 -37 -25 -21 -19 -29 -22 -36 -13 -5 8 -7 4 -6 -12 3
-20 -4 -29 -34 -43 -21 -10 -38 -23 -38 -28 0 -5 -7 -9 -15 -9 -8 0 -15 -8
-15 -19 0 -10 -6 -23 -13 -29 -7 -6 -19 -27 -27 -47 -10 -25 -20 -35 -35 -35
-29 0 -57 -32 -49 -55 5 -11 4 -16 -3 -12 -5 4 -19 0 -29 -7 -13 -10 -24 -11
-36 -5 -11 6 -18 6 -18 0 0 -8 -65 -26 -82 -23 -4 1 -5 -4 -2 -11 3 -8 -6 -19
-21 -25 -33 -15 -52 -15 -58 1 -4 10 -6 10 -6 0 -1 -16 -28 -17 -33 -3 -13 39
-204 -253 -193 -294 5 -17 4 -18 -4 -6 -7 9 -11 10 -11 3 0 -6 -5 -24 -12 -40
-6 -15 -10 -32 -9 -37 1 -5 -5 -16 -13 -25 -9 -9 -17 -27 -19 -39 -2 -12 -9
-28 -17 -35 -10 -10 -12 -9 -7 5 11 30 20 118 13 118 -4 0 -19 -14 -33 -30
-13 -17 -29 -30 -35 -30 -5 0 -17 -7 -26 -16 -13 -13 -29 -15 -84 -11 -92 8
-136 30 -159 81 -24 53 -24 78 1 107 l20 24 -15 -36 c-12 -32 -12 -39 3 -69
22 -43 57 -68 107 -75 39 -6 41 -4 95 59 30 36 59 66 63 66 12 0 -54 -90 -78
-106 -15 -11 -16 -14 -4 -14 34 0 117 115 105 147 -3 8 1 27 9 43 17 33 19 50
6 50 -4 0 -16 -20 -26 -45 -9 -25 -39 -69 -65 -98 -55 -59 -78 -61 -25 -2 22
25 38 57 45 88 15 70 13 74 -21 41 l-31 -29 7 25 c4 14 12 30 19 35 6 6 12 17
14 25 2 8 7 17 10 20 4 3 15 23 25 44 l18 39 -35 -6 c-20 -3 -36 -2 -36 4 0
14 38 49 54 49 15 0 52 57 62 95 7 28 -7 33 -26 9 -8 -8 -44 -33 -81 -55 -38
-22 -75 -50 -84 -62 -45 -64 -88 -127 -112 -164 -16 -23 -33 -43 -40 -43 -7 0
-18 -10 -24 -22 -6 -13 -29 -46 -50 -75 -22 -29 -39 -55 -39 -58 0 -3 10 -5
23 -5 12 0 28 -4 36 -9 10 -7 19 -4 27 7 12 16 13 16 19 -1 4 -9 5 -26 2 -37
-6 -22 3 -26 20 -9 8 8 13 6 17 -9 4 -11 16 -22 28 -25 16 -5 19 -12 16 -32
-3 -14 -2 -28 3 -31 4 -2 6 -11 2 -19 -7 -20 7 -19 22 2 17 24 35 7 29 -26 -5
-23 -2 -30 12 -34 12 -3 8 -5 -11 -6 l-30 -1 28 -15 c15 -8 35 -12 45 -9 13 5
14 4 3 -4 -19 -14 -6 -42 19 -42 11 0 20 -7 20 -15 0 -8 6 -15 14 -15 15 0 16
-16 2 -38 -13 -21 -4 -21 42 0 30 15 48 32 61 59 11 22 15 41 10 45 -5 3 -9
15 -8 27 l0 22 9 -22 c5 -13 12 -23 14 -23 3 0 24 18 48 40 67 62 74 47 13
-27 -30 -38 -55 -73 -55 -80 0 -6 -9 -15 -20 -18 -11 -3 -20 -10 -20 -15 0 -4
-20 -21 -45 -37 -50 -31 -59 -49 -19 -39 20 5 27 3 31 -14 3 -11 12 -20 19
-20 8 0 14 -6 14 -14 0 -8 6 -16 13 -19 8 -3 1 -14 -18 -32 -17 -16 -25 -30
-18 -32 7 -3 2 -14 -13 -30 -13 -14 -22 -28 -20 -31 10 -9 100 44 115 68 18
28 61 39 61 16 0 -8 -39 -43 -87 -78 -67 -48 -83 -64 -68 -66 23 -5 45 -22 27
-22 -6 0 -16 -10 -23 -21 -12 -23 -8 -24 46 -4 13 5 7 -6 -18 -30 -21 -20 -36
-39 -34 -42 7 -6 77 29 77 39 0 4 8 8 17 8 12 0 3 -14 -30 -45 -26 -25 -47
-50 -47 -55 0 -15 20 -12 26 4 3 8 12 12 20 9 7 -3 17 2 20 11 3 9 12 16 20
16 7 0 20 10 28 22 9 12 19 18 23 14 5 -5 2 -11 -4 -13 -15 -5 -73 -89 -73
-106 0 -7 -7 -21 -15 -31 -22 -28 -18 -37 10 -30 21 5 25 3 26 -17 1 -13 1
-27 0 -32 0 -4 8 -7 19 -7 23 0 26 -10 8 -28 -10 -10 -10 -15 2 -22 8 -5 23
-10 33 -10 11 0 17 -8 17 -24 0 -13 11 -34 24 -47 32 -33 46 -62 46 -98 0 -16
20 -87 44 -158 24 -70 53 -157 66 -193 12 -36 26 -73 31 -82 5 -10 9 -28 9
-40 0 -34 32 -138 42 -138 5 0 8 -8 7 -17 -3 -33 3 -88 8 -75 2 6 9 12 14 12
6 0 8 -4 4 -9 -10 -17 18 -102 32 -97 10 4 13 -6 12 -37 0 -23 4 -58 10 -77 7
-22 7 -38 1 -44 -7 -7 -10 -4 -10 7 0 9 -4 17 -9 17 -6 0 -6 -12 0 -30 6 -17
15 -30 20 -30 5 0 9 -18 9 -39 0 -22 5 -41 11 -43 7 -2 13 -19 15 -38 7 -67
23 -79 41 -33 l11 28 1 -26 c1 -15 8 -29 16 -33 8 -3 20 -17 25 -31 6 -15 14
-23 20 -20 6 4 7 -1 3 -11 -4 -12 -3 -15 5 -10 8 5 12 0 12 -13 0 -11 9 -25
20 -31 11 -6 18 -15 15 -21 -4 -5 1 -12 9 -15 11 -4 16 -19 16 -45 0 -31 4
-39 19 -39 16 0 19 -11 25 -70 5 -51 11 -70 22 -70 9 0 14 11 14 30 0 17 5 30
10 30 6 0 10 -34 10 -82 1 -46 5 -102 9 -125 5 -24 4 -43 0 -43 -5 0 -9 -5 -9
-11 0 -7 11 -9 28 -5 15 3 21 3 15 0 -7 -3 -13 -14 -13 -25 0 -11 -7 -22 -15
-25 -8 -4 -15 -10 -15 -16 0 -5 4 -6 10 -3 6 4 10 -12 10 -39 0 -68 17 -56 22
15 3 42 9 64 21 70 38 22 55 100 29 143 -3 5 -7 73 -9 150 -1 78 -5 160 -8
183 -3 28 -1 43 7 43 8 0 9 21 4 70 -6 67 -5 70 15 70 19 0 20 4 15 32 -18 85
-18 94 -2 107 11 9 16 31 16 70 1 78 15 143 34 157 9 6 16 16 16 21 0 6 11 18
25 27 17 11 27 29 31 56 7 44 26 52 46 20 19 -29 31 -24 23 9 -3 16 -2 31 2
34 12 8 94 -115 115 -171 16 -43 17 -44 13 -12 -5 32 -4 33 5 10 6 -13 8 -35
5 -48 -6 -25 4 -116 12 -108 5 5 7 21 17 130 5 64 15 87 17 40 1 -27 2 -27 14
11 l13 40 2 -80 c1 -44 2 -83 2 -86 -1 -4 8 -9 18 -12 19 -5 29 7 13 15 -5 1
-6 42 -3 90 4 75 7 86 20 78 10 -6 11 -10 3 -10 -8 0 -13 -14 -13 -35 0 -24 5
-35 15 -35 11 0 15 11 15 40 0 33 3 40 20 40 17 0 20 7 20 40 0 33 3 40 20 40
17 0 20 7 20 50 0 42 4 52 25 66 14 9 25 23 25 30 0 8 7 14 15 14 11 0 15 11
15 40 0 27 4 40 13 39 26 -3 42 1 30 9 -6 4 -15 40 -18 80 l-8 72 32 0 31 0 0
80 c0 44 4 80 8 80 5 0 12 53 15 117 4 66 11 119 17 121 5 2 10 10 10 18 0 10
12 14 40 14 36 0 40 3 40 25 0 14 -4 25 -10 25 -5 0 -10 18 -10 40 0 22 5 40
10 40 6 0 10 -13 10 -30 0 -28 2 -30 40 -30 48 0 54 -19 8 -21 -18 -1 -25 -3
-15 -6 14 -4 17 -16 17 -73 0 -57 -3 -69 -17 -73 -17 -4 -17 -5 0 -6 13 -1 17
-10 17 -41 0 -27 -4 -40 -14 -40 -10 0 -16 -21 -21 -75 -3 -41 -3 -79 0 -86 5
-8 1 -9 -14 -4 -19 6 -21 3 -21 -34 0 -34 -3 -41 -20 -41 -18 0 -20 -7 -20
-80 0 -53 -4 -80 -11 -80 -8 0 -10 -17 -7 -52 3 -29 3 -47 1 -40 -3 6 -11 12
-19 12 -10 0 -14 -12 -14 -40 0 -31 -4 -40 -17 -40 -12 0 -14 -3 -6 -8 6 -4
14 -39 18 -79 6 -60 10 -71 24 -66 13 4 13 2 -1 -7 -15 -9 -18 -25 -18 -85 0
-43 -4 -75 -11 -77 -7 -2 -12 -106 -14 -321 l-4 -317 29 0 c27 0 28 -1 35 -76
4 -41 4 -78 1 -81 -3 -4 -6 12 -6 35 0 23 -4 42 -10 42 -6 0 -10 -33 -10 -80
0 -66 3 -80 16 -80 14 0 15 -17 12 -129 -2 -71 1 -124 5 -118 5 7 5 1 1 -13
-10 -34 -6 -81 9 -98 10 -12 9 -14 -3 -10 -8 2 -16 14 -18 26 -5 36 -32 27
-31 -10 1 -50 16 -128 19 -98 5 58 20 -47 16 -110 -4 -53 -3 -58 4 -30 5 19
13 74 16 123 5 58 11 87 19 87 15 0 55 51 84 107 26 51 26 61 4 86 -30 32 -38
103 -32 267 6 170 22 252 90 475 22 72 43 142 46 157 6 33 13 35 36 8 19 -23
37 -26 38 -7 0 6 4 3 9 -8 8 -19 9 -19 9 3 1 31 13 28 47 -13 16 -19 36 -35
45 -35 9 0 36 -20 60 -45 24 -25 49 -45 55 -45 6 0 28 -16 49 -35 20 -20 40
-33 44 -29 3 4 0 9 -6 11 -7 3 -13 9 -13 14 0 19 20 -2 47 -48 23 -41 29 -57
32 -99 1 -6 15 -32 32 -58 23 -35 34 -44 40 -34 7 9 9 8 7 -7 -3 -39 2 -55 18
-55 10 0 14 -6 11 -14 -3 -8 1 -17 9 -20 8 -3 14 -15 14 -26 0 -12 7 -20 16
-20 11 0 14 -5 10 -17 -4 -9 -3 -19 1 -22 10 -7 39 -87 60 -161 18 -67 20
-180 3 -251 -8 -34 -11 -87 -7 -153 4 -77 2 -111 -9 -141 -21 -55 -84 -235
-91 -260 -3 -11 -5 -37 -5 -57 1 -21 -2 -38 -7 -38 -5 0 -8 -8 -7 -17 1 -15
-7 -18 -54 -17 -30 1 -46 0 -35 -3 36 -9 36 -19 0 -20 -19 -1 -35 4 -35 9 0 6
-7 8 -15 4 -9 -3 -19 3 -25 14 -16 30 -53 24 -89 -12 -17 -17 -31 -35 -31 -38
0 -4 -13 -21 -28 -38 -29 -33 -66 -42 -75 -19 -3 6 -6 1 -6 -13 -1 -17 -4 -21
-10 -12 -6 11 -10 11 -18 0 -11 -15 -33 -109 -33 -144 0 -14 -6 -24 -15 -24
-9 0 -12 6 -9 15 4 8 -1 26 -10 40 -9 13 -16 31 -16 40 0 8 -5 15 -11 15 -7 0
-10 -20 -7 -55 3 -51 1 -55 -19 -55 -13 0 -24 8 -28 19 -4 12 -12 18 -21 14
-7 -3 -14 0 -14 6 0 5 -22 13 -50 17 -27 4 -47 10 -44 15 3 5 -1 9 -10 9 -8 0
-16 -5 -18 -11 -3 -9 -14 -8 -41 2 -29 10 -40 10 -49 1 -7 -7 -20 -12 -30 -12
-12 0 -18 -8 -18 -24 l0 -25 135 2 c74 1 135 -1 135 -4 0 -10 -137 -19 -215
-14 l-70 4 -3 125 c-4 139 15 239 95 501 6 17 4 18 -10 7 -15 -13 -32 -67 -44
-139 -3 -18 -9 -30 -14 -27 -5 3 -9 -4 -9 -15 0 -12 -4 -20 -8 -19 -4 2 -23
-13 -43 -32 -29 -29 -41 -35 -77 -34 -35 0 -42 -3 -37 -15 4 -9 8 -27 9 -41 2
-14 1 -17 -1 -7 -2 9 -11 17 -18 17 -8 0 -18 7 -22 15 -7 12 -14 13 -41 3 -18
-7 -32 -15 -32 -19 0 -4 -9 -5 -20 -2 -18 5 -20 0 -20 -35 l0 -40 -36 10 c-20
5 -46 11 -57 14 -40 7 -50 56 -17 76 11 7 20 17 20 22 0 6 12 23 27 38 l27 28
-51 0 c-61 0 -73 -14 -92 -105 -9 -44 -17 -61 -29 -62 -10 -1 -35 -4 -56 -9
-32 -6 -41 -4 -52 11 -8 11 -14 15 -14 9 -1 -5 -12 -22 -25 -39 -20 -24 -27
-27 -34 -16 -5 7 -5 26 -1 41 4 15 3 34 -2 44 -6 11 -6 22 2 31 6 8 10 22 8
32 -2 12 -11 2 -27 -32 -17 -35 -27 -81 -34 -153 -6 -56 -13 -102 -17 -102
-16 0 -70 57 -80 83 -5 16 -10 46 -10 68 0 52 -14 43 -29 -18 -14 -54 -36 -93
-52 -93 -18 0 -6 226 14 273 10 22 22 37 29 35 17 -6 48 45 48 77 0 30 20 77
37 88 10 6 13 44 13 140 l-1 132 -28 -33 c-16 -19 -31 -47 -35 -63 -4 -19 -10
-27 -20 -23 -8 3 -17 0 -21 -5 -3 -6 -11 -9 -16 -6 -5 4 -9 -8 -9 -25 0 -18
-6 -33 -15 -36 -8 -4 -15 -12 -15 -20 0 -10 -12 -14 -38 -14 -35 0 -39 -3 -51
-37 -10 -27 -11 -38 -2 -41 6 -2 11 -8 11 -13 0 -13 -76 -49 -107 -50 l-28 -1
28 -10 c15 -5 27 -13 27 -17 0 -5 -28 -14 -62 -22 -82 -18 -80 -18 -101 0 -15
13 -19 12 -32 -5 -8 -10 -15 -25 -15 -31 0 -12 -30 -20 -30 -9 0 3 11 26 25
52 32 60 31 68 -2 60 -59 -14 -205 -119 -202 -144 1 -4 1 -22 0 -40 -1 -36
-27 -54 -45 -31 -23 29 -37 18 -66 -47 -17 -36 -30 -72 -30 -79 0 -24 -22 -29
-37 -9 -10 14 -13 34 -8 72 4 35 3 52 -5 52 -6 0 -13 -8 -16 -17 -12 -40 -38
-83 -50 -83 -7 0 -17 -8 -23 -17 -9 -17 -10 -17 -29 0 -13 12 -21 14 -24 7 -2
-8 -26 -8 -88 -1 -147 19 -242 12 -200 -14 5 -3 44 -6 87 -6 88 -1 113 -6 113
-21 0 -6 -24 -9 -62 -8 -119 5 -112 10 -105 -67 3 -38 9 -97 13 -133 4 -36 3
-62 -1 -58 -10 9 -34 140 -34 188 -1 37 -30 101 -62 136 -26 28 -18 32 39 24
26 -5 95 -11 153 -15 l106 -7 5 58 c9 98 47 223 80 260 40 45 126 77 198 73
89 -5 157 9 179 37 37 46 111 305 111 385 0 28 -2 29 -47 30 -111 2 -108 1
-107 36 0 29 -4 33 -41 43 -23 6 -48 11 -56 10 -42 -6 -52 18 -24 56 19 25 19
77 0 114 -14 27 -19 29 -102 35 -49 3 -164 8 -256 10 -156 4 -169 3 -187 -15
-11 -11 -20 -30 -20 -42 0 -43 -14 -52 -66 -44 -84 11 -534 -33 -534 -53 0 -4
16 -15 35 -24 49 -23 44 -37 -7 -25 -48 11 -166 2 -185 -14 -13 -10 -14 -6
-17 49 -1 9 6 17 14 18 8 1 44 5 80 9 87 9 233 37 244 47 4 4 12 29 17 56 5
26 14 58 20 70 12 23 9 30 -44 93 -22 25 -38 34 -73 38 -62 7 -66 22 -5 22 28
0 51 2 51 5 0 2 -9 19 -20 37 -11 18 -20 40 -20 49 0 9 -9 27 -19 40 -19 23
-24 24 -183 26 -185 2 -198 0 -191 -27 5 -19 0 -20 -80 -20 -119 0 -131 -6
-146 -73 -12 -54 -13 -56 -52 -62 -21 -4 -37 -11 -33 -16 3 -5 -24 -8 -63 -7
-63 1 -65 1 -23 8 l45 6 -44 5 c-43 4 -44 5 -48 44 -2 22 -10 45 -18 51 -9 7
-15 28 -15 56 0 36 -13 71 -60 164 -34 65 -62 120 -64 122 -8 7 -165 31 -246
36 -47 4 -99 9 -116 12 -37 7 -88 -16 -105 -48 -6 -11 -22 -51 -35 -87 l-23
-66 6 72 6 73 -154 -71 c-85 -39 -165 -76 -179 -82 -34 -15 -70 -48 -70 -64 0
-17 7 -17 44 6 17 10 58 29 91 41 33 13 95 41 138 62 43 22 84 38 91 35 9 -4
10 -21 2 -75 l-9 -70 -91 -22 c-88 -21 -246 -49 -276 -50 -11 0 -11 3 -2 12
20 20 13 27 -25 25 -37 -2 -37 -2 -55 57 -10 33 -34 93 -54 133 l-35 74 26 87
c14 48 33 105 41 127 7 23 14 61 14 86 0 88 -45 341 -80 452 -5 16 -5 27 1 27
5 0 9 -7 9 -15 0 -8 5 -15 10 -15 6 0 10 -9 10 -21 0 -11 4 -18 9 -15 5 4 12
0 15 -6 3 -7 4 -1 1 15 -3 15 -1 36 4 46 24 45 43 724 26 935 -4 38 -3 76 2
85 4 9 8 70 9 136 2 148 13 255 25 255 5 0 1 9 -8 20 -20 23 -39 26 -46 8 -4
-10 -6 -10 -6 0 -1 8 -21 12 -66 12 l-65 0 0 40 c0 31 4 40 18 40 15 1 15 2
-2 15 -25 19 -46 19 -46 0 0 -8 -4 -15 -10 -15 -5 0 -10 18 -10 40 l0 40 -40
0 -40 0 0 40 c0 41 4 44 48 40 12 -1 22 4 22 10 0 9 -13 10 -46 5 -32 -4 -44
-3 -39 4 3 6 19 11 36 11 50 0 32 17 -27 25 -31 4 -74 13 -96 21 -36 12 -39
12 -28 -1 7 -8 19 -15 26 -15 8 0 14 -5 14 -10 0 -6 -13 -9 -30 -8 -29 2 -35
12 -31 46 4 25 -86 18 -116 -10 l-21 -20 -7 22 -7 22 -15 -21 c-13 -19 -40
-21 -29 -2 3 4 -22 8 -54 8 -52 1 -60 -2 -60 -18 0 -24 -8 -24 -34 1 -12 12
-34 31 -51 44 -26 21 -28 25 -15 41 14 16 13 17 -9 10 -20 -6 -23 -4 -18 9 4
9 2 16 -3 16 -6 0 -10 -7 -10 -15 0 -10 -10 -15 -34 -15 -57 0 -65 6 -56 47 5
19 13 40 19 46 6 6 5 14 -4 23 -18 19 -26 18 -18 -2 5 -13 -2 -12 -37 6 -60
30 -70 43 -70 84 0 25 -4 36 -15 36 -11 0 -15 11 -15 40 0 36 -2 40 -25 40
-22 0 -25 4 -25 40 0 38 -2 40 -30 40 -26 0 -30 4 -30 28 0 20 -7 33 -25 42
-20 11 -25 21 -25 50 0 21 -7 43 -15 50 -10 9 -15 9 -15 1 0 -18 -45 -13 -63
7 -10 10 -17 28 -17 40 0 20 -5 22 -50 22 -49 0 -50 1 -50 30 0 20 -5 30 -15
30 -8 0 -15 4 -15 8 0 5 -18 15 -40 22 -29 9 -39 18 -35 28 4 12 -1 13 -26 8
-17 -3 -44 -6 -60 -6 -22 0 -29 -5 -29 -20 0 -17 -7 -20 -40 -20 -29 0 -40 4
-40 15 0 11 -11 15 -40 15 -29 0 -40 -4 -40 -15 0 -8 -5 -15 -11 -15 -7 0 -10
15 -7 40 3 39 3 40 -29 40 -18 0 -33 -4 -33 -10 0 -5 -18 -10 -40 -10 l-40 0
0 -3190 0 -3190 1824 0 c1658 0 1824 2 1822 16 -1 11 16 21 53 33 52 16 55 18
102 101 26 47 55 92 64 101 23 23 62 27 174 18 53 -5 132 -10 176 -12 88 -5
183 -27 217 -51 26 -18 20 -20 -16 -6 -16 6 -27 6 -31 0 -4 -6 2 -13 12 -17
106 -37 109 -56 4 -22 l-71 23 -22 -27 c-16 -20 -22 -40 -21 -70 2 -40 1 -41
-9 -14 -15 34 -19 34 -51 -3 -20 -22 -36 -30 -61 -30 -20 0 -40 -8 -51 -20
-18 -20 -17 -20 53 -20 47 0 72 4 75 13 4 10 6 10 6 0 1 -10 69 -13 307 -13
l305 0 -28 25 -28 24 35 1 c25 0 31 -3 20 -10 -8 -5 -11 -12 -7 -16 4 -4 13
-2 19 4 7 7 19 12 28 12 13 -1 12 -3 -3 -14 -9 -7 -17 -17 -17 -22 0 -4 5 -3
12 4 7 7 21 12 33 11 20 0 20 0 0 -9 -17 -7 -15 -9 13 -9 18 -1 43 5 55 13 25
16 97 31 97 20 0 -4 -8 -13 -18 -20 -15 -12 -14 -13 11 -14 16 0 26 5 25 12
-2 7 7 14 20 16 15 2 22 -2 22 -12 0 -18 16 -21 25 -5 9 14 -24 38 -52 39 -13
0 -23 5 -23 10 0 13 4 13 48 -6 42 -18 63 -23 109 -26 19 -1 33 -8 33 -15 0
-17 36 -17 44 0 5 9 7 9 12 0 3 -7 17 -13 30 -13 15 0 23 4 19 10 -4 6 -11 8
-16 5 -5 -4 -9 -1 -9 5 0 14 14 19 84 28 37 4 61 12 64 21 4 11 0 12 -14 6
-11 -4 -45 -9 -77 -10 -31 -1 -60 -5 -64 -9 -14 -13 -35 -6 -29 10 5 13 2 15
-15 11 -11 -3 -52 0 -90 8 -39 7 -80 10 -91 7 -17 -4 -20 -2 -15 12 5 14 3 15
-12 6 -13 -6 -38 -6 -78 1 -75 14 -80 18 -52 41 l24 20 -25 -5 c-14 -2 -34 -8
-45 -12 -17 -6 -16 -3 4 15 14 12 37 24 53 27 20 4 28 11 28 27 0 51 20 58
204 72 80 6 89 5 83 -10 -9 -23 8 -20 24 4 12 18 31 22 143 30 71 5 145 8 165
5 20 -2 124 -7 231 -10 237 -7 520 -22 526 -28 3 -3 -11 -8 -30 -11 -46 -9
-80 -50 -72 -89 7 -34 -26 -112 -57 -138 -19 -15 -44 -16 -212 -14 -181 3
-184 3 -60 -5 72 -4 150 -13 175 -19 25 -6 64 -11 86 -11 38 0 44 4 69 43 46
69 119 157 132 157 6 0 31 -23 55 -51 24 -28 52 -55 63 -60 16 -6 12 -8 -17
-8 -27 -1 -47 -10 -73 -32 -19 -17 -32 -35 -29 -40 3 -5 437 -9 1037 -9 l1032
0 34 65 c18 36 46 81 62 102 16 20 27 39 23 42 -7 7 -33 -28 -90 -119 -41 -65
-41 -65 -95 -71 -30 -3 -55 -5 -56 -5 -3 2 28 99 43 131 23 53 71 87 133 96
52 7 50 8 -16 3 -60 -3 -73 -2 -73 11 0 13 21 14 151 10 180 -6 334 -21 357
-35 13 -7 1 -10 -43 -11 -77 -2 -97 1 -112 13 -9 7 -13 7 -13 -1 0 -7 -20 -11
-50 -11 -84 0 -115 -24 -194 -147 l-46 -73 2145 0 2145 0 0 500 0 500 -37 1
c-64 2 -106 6 -143 13 -27 5 -31 5 -17 -4 9 -6 17 -14 17 -18 0 -9 -120 -6
-192 4 -60 8 -118 -2 -118 -21 0 -21 -16 -19 -38 5 -12 13 -25 18 -36 14 -9
-3 -23 -1 -31 6 -8 7 -23 9 -37 4 -13 -4 -81 -9 -153 -10 -71 -1 -137 -3 -145
-4 -8 -1 -42 1 -75 4 -33 3 -223 5 -423 6 -307 0 -366 -2 -386 -15 -12 -8 -26
-12 -29 -8 -13 12 -7 31 11 38 9 4 175 7 369 6 282 -2 353 0 360 11 4 7 29 30
55 51 26 21 57 52 70 69 l23 32 -36 -22 c-52 -31 -53 -28 -13 26 20 26 45 65
54 87 43 98 51 118 46 122 -3 3 -20 -5 -38 -18 l-33 -24 18 25 c43 61 57 86
53 97 -8 21 21 213 35 230 13 15 12 16 -8 11 -27 -7 -29 0 -7 30 10 15 11 22
3 22 -8 0 -6 7 5 19 18 20 13 47 -6 35 -12 -8 -1 35 13 51 15 16 10 38 -7 31
-13 -5 -14 -2 -9 11 5 10 10 33 13 51 3 26 1 31 -11 26 -12 -4 -14 -1 -10 15
3 11 11 26 19 32 20 16 17 39 -3 39 -14 1 -11 6 12 25 32 26 29 43 -3 26 -49
-26 -58 7 -14 54 25 27 27 36 29 122 1 78 5 97 23 123 26 36 19 52 -10 25 -25
-22 -36 -14 -20 15 6 11 10 28 9 38 -4 28 11 69 32 88 26 24 24 37 -6 30 -37
-9 -31 6 20 53 43 39 39 55 -7 30 -18 -10 -20 -9 -13 7 4 11 11 32 16 48 5 16
18 40 30 53 28 29 19 40 -15 18 -36 -24 -33 -12 15 57 22 33 38 62 35 65 -3 3
-20 -5 -38 -19 -58 -44 -64 -43 -28 2 19 25 41 51 48 59 18 19 8 25 -18 11
-12 -6 -24 -9 -27 -7 -7 8 25 71 48 96 26 28 17 27 -31 -5 -50 -34 -58 -28
-20 13 17 18 30 41 30 52 0 11 4 23 10 26 5 3 15 15 20 25 10 19 9 19 -25 -1
-43 -25 -44 -16 -5 35 34 45 30 65 -7 36 -41 -32 -41 -13 0 26 51 48 50 74 -1
38 -25 -17 -43 -11 -24 8 7 7 12 22 12 34 0 12 4 24 9 26 10 4 63 88 55 88 -3
0 -22 -16 -42 -35 -20 -19 -41 -35 -45 -35 -9 0 -2 74 9 92 5 8 -1 9 -20 4
-25 -6 -27 -5 -21 16 4 13 15 31 23 41 9 10 17 33 18 50 1 18 6 50 10 71 l7
39 -36 -39 c-19 -21 -38 -37 -40 -34 -3 3 8 31 23 63 16 31 27 57 24 57 -3 0
-16 -7 -30 -16 -25 -17 -25 -17 -16 7 22 57 33 101 28 106 -3 4 -17 -4 -31
-17 -14 -13 -27 -22 -29 -19 -2 2 -1 24 4 49 5 25 7 46 5 48 -2 2 -13 -2 -25
-8 -29 -15 -38 -5 -16 19 12 13 14 20 5 23 -9 3 -9 9 0 26 16 30 6 45 -21 31
-18 -10 -20 -9 -15 5 12 32 -14 178 -39 216 -14 22 -22 45 -19 59 2 13 0 31
-5 40 -5 9 -10 12 -10 6 0 -5 -11 -28 -25 -50 -22 -36 -24 -37 -24 -15 1 34
-20 201 -27 211 -9 15 -24 10 -24 -8 0 -10 -5 -25 -11 -33 -10 -13 -10 -13 -6
0 3 9 -1 24 -9 35 -20 27 -18 56 3 48 13 -5 12 -1 -5 17 -14 15 -18 27 -12 35
5 6 5 17 0 25 -14 23 -28 1 -34 -53 -3 -27 -12 -57 -20 -68 -13 -19 -14 -19
-20 3 -3 13 -6 48 -6 79 0 31 -7 70 -15 85 -8 16 -15 40 -15 52 0 34 -23 22
-31 -15 -3 -17 -12 -39 -20 -50 -12 -18 -14 -9 -11 74 3 79 0 103 -19 151 -26
66 -47 95 -66 88 -9 -4 -13 5 -14 27 -1 18 -5 46 -10 62 l-8 30 3 -33 c1 -17
-1 -32 -6 -32 -4 0 -9 -17 -9 -37 -2 -33 -2 -34 -6 -8 -2 17 -11 63 -20 103
-14 61 -19 73 -34 69 -10 -3 -16 0 -13 7 7 18 -11 37 -30 30 -10 -4 -15 -13
-11 -24 3 -10 1 -21 -5 -25 -6 -4 -10 19 -10 67 l0 73 -36 -55 c-44 -67 -56
-82 -61 -76 -2 2 18 35 45 73 27 39 53 84 57 101 3 18 10 32 15 32 4 0 16 26
25 58 9 31 21 71 27 87 15 49 21 115 9 115 -6 0 -11 -4 -11 -10 0 -5 -4 -10
-9 -10 -5 0 -1 25 10 55 25 71 25 88 -1 80 -24 -8 -24 -8 -1 46 21 48 43 182
34 206 -5 11 -13 3 -30 -28 -13 -24 -22 -36 -19 -27 19 63 27 153 21 227 -4
45 -10 79 -14 75 -10 -12 -31 -86 -32 -115 -1 -13 -7 20 -14 74 -8 54 -23 118
-35 142 -12 25 -18 50 -14 56 4 8 3 9 -4 5 -8 -5 -12 1 -12 18 0 14 -4 28 -10
31 -5 3 -10 -2 -10 -12 0 -20 -48 32 -77 85 -18 34 -40 45 -29 15 4 -10 -5 -4
-19 12 -68 79 -181 185 -192 180 -7 -2 -44 18 -81 45 -38 28 -75 50 -83 50 -8
0 -25 7 -37 16 -20 14 -22 14 -22 0 0 -9 -3 -16 -7 -16 -19 0 -103 30 -138 49
-49 26 -74 28 -50 5 9 -9 14 -21 12 -28 -7 -23 -44 -16 -76 14 -18 16 -37 30
-41 30 -5 0 -11 6 -13 13 -11 27 -6 -12 7 -56 8 -26 10 -47 5 -47 -5 0 -9 5
-9 11 0 8 -11 9 -31 5 -18 -3 -38 -1 -45 5 -11 9 -14 8 -14 -6 0 -13 -5 -16
-22 -11 -51 15 -88 18 -88 8 0 -6 5 -12 12 -14 8 -3 8 -9 1 -22 -10 -18 -11
-18 -24 0 -8 11 -25 28 -39 39 l-24 20 18 -28 c20 -33 15 -77 -10 -77 -11 0
-14 -6 -9 -22 4 -13 11 -27 16 -33 5 -5 9 -17 9 -27 0 -14 -6 -17 -25 -13 -14
3 -36 7 -50 10 -21 5 -25 2 -25 -20 0 -27 -9 -32 -28 -13 -9 9 -12 8 -12 -6 0
-9 -4 -15 -9 -12 -13 8 -20 -16 -14 -46 8 -39 -13 -42 -31 -4 -9 19 -16 39
-16 45 0 6 -3 11 -8 11 -4 0 -7 -43 -7 -95 0 -52 -3 -95 -6 -95 -3 0 -16 9
-29 20 -13 11 -28 20 -34 20 -6 0 -1 -7 11 -15 30 -21 34 -60 10 -91 -14 -18
-18 -34 -14 -58 6 -37 -5 -62 -23 -51 -8 5 -10 -3 -6 -30 4 -21 9 -41 12 -47
5 -8 -185 88 -196 99 -3 3 5 2 18 -1 31 -10 27 5 -8 29 -16 11 -35 30 -41 42
-7 13 -15 23 -19 23 -3 0 -30 16 -60 35 -29 19 -58 37 -64 40 -7 3 -6 7 3 11
9 4 1 14 -25 29 -49 30 -144 75 -155 75 -16 0 -9 18 9 22 9 2 -10 14 -45 27
-35 13 -63 27 -63 31 0 5 12 13 27 18 27 9 25 10 -25 20 -29 7 -83 12 -120 13
l-67 0 50 23 50 23 -89 27 c-97 31 -200 75 -231 100 -20 16 -20 16 2 22 26 7
21 24 -8 24 -10 0 -19 6 -19 14 0 8 -14 17 -32 20 -58 11 -66 22 -35 46 33 26
34 33 2 50 -23 12 -24 15 -9 31 14 16 13 18 -15 24 -36 8 -39 18 -10 31 20 9
17 11 -22 23 -41 13 -42 14 -21 24 24 11 30 27 9 27 -18 0 -67 23 -67 32 0 4
12 8 28 10 l27 3 -35 17 c-34 17 -90 62 -90 72 0 2 8 6 18 8 11 3 -10 17 -55
40 -62 31 -69 37 -50 43 21 7 21 7 2 12 -27 7 -164 86 -165 96 0 4 8 7 17 7 9
0 -4 13 -30 30 -26 16 -47 33 -47 38 0 5 28 22 63 37 51 24 58 30 37 32 -14 2
-56 8 -94 14 l-69 11 24 19 24 18 -34 7 -34 7 23 17 23 17 -23 6 c-14 3 -19
10 -15 17 4 7 1 16 -6 21 -11 6 -8 13 11 33 l23 26 -36 0 c-52 0 -47 21 16 66
28 21 54 39 56 41 2 2 2 6 -2 9 -3 4 -22 -3 -42 -15 -39 -23 -65 -27 -65 -11
0 6 26 35 58 66 31 31 48 53 37 49 -37 -14 -65 -17 -65 -9 0 5 11 21 25 36 14
15 25 34 25 42 0 8 12 24 28 35 l27 20 -52 1 c-59 0 -76 15 -45 41 31 24 28
29 -18 29 -22 0 -40 4 -40 8 0 4 19 18 43 30 l42 22 -65 -5 c-60 -5 -63 -5
-46 10 11 8 23 15 28 15 4 0 8 5 8 10 0 6 -6 10 -14 10 -8 0 -27 5 -43 11
l-28 11 23 12 c30 16 18 26 -32 26 -39 1 -40 1 -21 16 11 9 34 22 50 30 29 13
28 13 -35 14 -36 1 -83 7 -105 14 l-40 13 61 7 c89 11 97 23 18 28 -71 5 -207
26 -234 36 -11 4 -9 7 8 9 27 5 19 23 -11 23 -12 0 -40 17 -61 37 -37 34 -38
37 -20 50 10 8 29 16 42 20 44 11 21 19 -45 15 l-68 -4 45 29 c25 16 54 33 65
38 17 7 14 10 -18 14 l-39 6 31 29 c32 31 32 46 0 46 -10 0 -19 4 -19 9 0 15
40 60 60 66 37 12 21 25 -21 19 -37 -6 -41 -5 -37 12 2 10 18 28 35 39 39 24
40 29 8 43 -14 6 -25 16 -25 22 0 6 11 15 25 20 14 5 25 11 25 14 0 2 -15 13
-34 24 -27 16 -33 26 -32 50 1 16 7 36 14 45 11 13 9 16 -17 22 -36 8 -49 24
-30 36 11 7 7 15 -19 35 -26 20 -30 29 -22 40 15 17 4 34 -21 34 -23 0 -26 25
-3 34 20 8 9 26 -17 26 -18 0 -24 14 -21 52 1 11 -8 20 -23 24 -26 6 -32 18
-15 29 17 10 11 25 -10 25 -25 0 -26 16 -2 29 16 9 16 10 -3 16 -49 17 -50 17
-38 22 18 7 16 33 -2 33 -18 0 -20 16 -2 23 6 3 -1 6 -18 7 -29 1 -29 1 -10
16 19 14 19 16 3 25 -10 6 -18 16 -18 23 0 8 -8 17 -17 20 -15 6 -15 8 -3 17
13 8 12 12 -5 25 -19 16 -19 16 6 10 19 -4 29 -1 33 9 3 8 11 12 18 10 15 -6
78 30 78 45 0 5 18 10 40 10 22 0 40 -4 40 -10 0 -5 18 -10 40 -10 29 0 40 4
40 15 0 13 20 15 120 15 l120 0 0 25 c0 23 4 25 40 25 22 0 40 -4 40 -10 0
-15 28 -12 37 4 15 25 52 36 127 36 61 0 76 3 76 15 0 11 11 15 39 15 38 0 38
0 45 46 7 57 28 93 69 120 18 11 31 26 29 33 -1 7 2 10 7 7 5 -3 22 1 38 9 16
8 45 17 64 20 30 5 26 2 -26 -26 -114 -61 -157 -104 -169 -173 l-7 -39 70 7
c109 10 165 25 194 52 15 14 31 22 36 19 5 -3 13 0 17 6 4 8 3 9 -4 5 -20 -12
-13 10 13 40 l25 29 -25 23 c-34 32 -31 38 8 14 17 -10 31 -24 29 -31 -1 -6 2
-11 7 -11 5 0 11 -6 14 -12 2 -7 2 1 1 17 -2 17 -1 24 2 18 4 -9 31 -13 87
-12 79 0 81 1 47 14 -19 7 -44 11 -55 9 -11 -2 -27 0 -35 6 -13 9 -13 11 0 20
8 6 23 8 33 6 10 -3 32 0 49 6 24 8 32 8 39 -3 7 -12 11 -11 26 4 16 16 16 17
-5 17 -12 0 -22 5 -22 10 0 6 20 10 45 10 35 0 51 6 80 31 26 23 35 27 35 15
0 -21 10 -20 38 3 12 11 22 30 22 45 0 27 -15 35 -23 14 -3 -7 -6 -3 -6 10 -1
17 5 22 24 22 14 0 25 -5 25 -12 0 -9 3 -9 12 0 7 7 20 12 30 12 11 0 18 7 18
20 0 11 5 20 10 20 6 0 10 -9 10 -20 0 -11 7 -20 15 -20 11 0 15 11 15 40 l0
40 40 0 40 0 0 40 0 40 40 0 40 0 0 40 c0 29 4 40 15 40 11 0 15 11 15 40 l0
40 40 0 40 0 0 40 c0 37 2 40 29 40 29 0 29 0 36 80 5 58 11 80 21 80 10 0 14
-12 14 -40 0 -29 4 -40 15 -40 11 0 15 11 15 40 0 29 4 40 15 40 11 0 15 11
15 40 0 22 5 40 10 40 6 0 10 26 9 63 -1 70 2 89 16 100 6 4 -1 6 -15 5 -22
-3 -25 1 -25 32 0 20 5 35 12 35 23 0 27 17 8 32 -14 11 -16 17 -8 20 7 3 13
11 13 19 0 8 5 14 10 14 6 0 10 7 10 15 0 8 -4 15 -10 15 -16 0 -12 30 5 36 8
4 12 10 9 15 -3 5 20 34 52 64 31 31 54 58 50 62 -4 4 -20 -7 -37 -25 -36 -38
-49 -40 -49 -8 0 13 -7 27 -16 30 -8 3 -13 10 -9 15 3 6 12 8 19 5 24 -9 28
28 6 58 -26 35 -25 41 3 34 12 -3 16 -3 10 0 -18 8 -17 80 2 88 12 4 14 26 11
126 -2 66 0 120 4 120 5 0 -5 14 -22 32 -29 32 -78 47 -78 25 -1 -7 -5 -6 -13
4 -7 8 -21 18 -32 22 -19 7 -20 7 -1 -8 17 -12 17 -15 3 -20 -8 -4 -29 1 -45
9 -29 15 -62 13 -62 -3 0 -5 -18 -13 -40 -20 -77 -23 -79 5 -9 106 27 40 48
77 45 82 -3 5 18 42 47 82 80 113 107 157 107 174 0 8 6 15 14 15 7 0 19 14
27 32 7 17 34 64 61 105 l48 73 -111 0 c-89 0 -111 -3 -116 -15 -5 -14 -8 -14
-29 0 -21 13 -508 15 -4664 15 l-4640 0 0 -1310z m8460 1021 c0 -5 -35 -39
-77 -76 -43 -37 -119 -107 -170 -156 -100 -96 -133 -119 -133 -95 0 16 141
152 273 262 84 71 107 85 107 65z m-2041 -363 c-12 -23 -36 -63 -54 -88 -18
-25 -58 -90 -90 -145 -59 -104 -189 -304 -221 -342 -11 -11 -39 -49 -63 -82
-24 -34 -48 -61 -53 -61 -16 0 14 43 102 150 40 48 164 243 235 370 68 121
154 254 162 247 2 -3 -5 -25 -18 -49z m1671 -43 c0 -8 -4 -15 -9 -15 -13 0
-22 16 -14 24 11 11 23 6 23 -9z m1350 -10 c0 -8 -7 -15 -15 -15 -8 0 -15 7
-15 15 0 8 7 15 15 15 8 0 15 -7 15 -15z m-5100 -56 c-18 -43 -23 -28 -9 22 8
29 14 38 17 26 2 -10 -2 -32 -8 -48z m-29 -76 c-10 -17 -10 -16 -11 3 0 23 13
41 18 25 2 -6 -1 -18 -7 -28z m-26 -139 c-20 -120 -16 -231 10 -302 8 -23 17
-88 19 -145 2 -56 11 -122 19 -147 26 -79 49 -198 46 -237 -2 -21 -11 -47 -21
-57 -12 -13 -14 -23 -8 -31 5 -7 7 -15 3 -18 -3 -4 -1 -13 5 -20 26 -31 12
-212 -17 -222 -9 -3 -27 -16 -41 -28 -33 -30 -120 -144 -120 -158 0 -17 -52
-79 -61 -73 -5 3 -5 13 1 23 5 10 7 21 3 24 -3 4 -1 12 4 19 6 7 9 34 7 60 -2
26 1 50 7 53 15 10 10 22 -12 28 -18 5 -21 11 -16 35 3 16 1 34 -6 41 -8 8 -7
11 6 11 20 0 23 16 5 23 -10 4 -10 8 1 15 9 6 11 19 7 35 -3 14 -2 28 4 32 5
3 7 12 4 19 -3 8 0 17 6 21 8 5 7 11 -2 22 -10 12 -9 18 6 29 15 11 17 16 7
28 -14 16 -6 40 10 31 13 -9 5 53 -9 67 -18 18 -14 30 8 23 14 -4 19 -2 16 7
-2 7 -7 34 -10 61 -5 42 -4 47 14 47 17 0 19 6 16 43 -2 23 1 45 6 48 5 3 11
35 12 71 2 36 6 70 10 76 3 6 3 17 0 25 -3 8 0 18 5 22 6 3 9 11 5 16 -12 19
51 507 64 494 2 -2 -3 -53 -13 -111z m2101 -62 c-12 -11 -15 5 -8 44 l7 39 3
-39 c2 -21 1 -41 -2 -44z m-2035 31 c-8 -15 -10 -15 -11 -2 0 17 10 32 18 25
2 -3 -1 -13 -7 -23z m49 -27 c0 -5 -7 -3 -15 4 -8 7 -12 17 -9 22 7 10 24 -9
24 -26z m2194 -2 c4 -9 4 -19 2 -21 -8 -8 -26 8 -26 23 0 19 16 18 24 -2z
m-2070 -134 c7 0 27 -15 46 -32 29 -29 33 -30 28 -11 -4 15 -2 20 7 17 7 -3
16 -16 19 -30 4 -13 11 -24 16 -24 5 0 6 -7 3 -17 -4 -10 -2 -14 4 -10 6 4 10
-1 9 -10 0 -10 5 -18 11 -18 7 0 24 -24 39 -52 14 -29 29 -53 32 -53 4 0 5
-28 3 -62 -2 -46 -8 -66 -21 -75 -10 -7 -20 -23 -24 -37 -3 -14 -16 -26 -29
-30 -30 -7 -33 -63 -3 -58 14 3 16 -1 11 -20 -16 -51 -22 -48 -43 18 -12 37
-19 70 -16 75 2 4 -7 16 -21 25 -19 13 -23 20 -14 30 13 15 4 34 -17 34 -8 0
-14 5 -14 10 0 6 7 10 15 10 20 0 19 19 0 26 -9 4 -13 13 -10 24 3 11 -2 21
-17 29 -21 11 -21 11 10 6 17 -2 32 -2 32 1 0 4 -17 22 -37 41 -24 22 -33 37
-25 40 13 5 17 33 5 33 -18 0 -83 71 -83 89 0 19 -10 25 -46 24 -6 0 -11 5
-11 12 0 15 13 14 45 -4 36 -20 39 -4 6 32 -46 50 -56 65 -49 77 4 6 31 -14
66 -50 33 -33 66 -60 73 -60z m2099 83 c-4 -27 -4 -27 11 -9 12 15 16 16 16 5
0 -8 -6 -21 -12 -28 -11 -11 -10 -12 1 -6 11 6 13 2 7 -19 -3 -14 -2 -34 3
-44 6 -11 5 -21 -3 -28 -10 -9 -18 5 -35 63 -19 62 -21 77 -10 84 22 14 26 11
22 -18z m2847 -18 c0 -8 -4 -15 -10 -15 -5 0 -7 7 -4 15 4 8 8 15 10 15 2 0 4
-7 4 -15z m-4957 -9 c4 -10 1 -13 -9 -9 -7 3 -14 9 -14 14 0 14 17 10 23 -5z
m-203 -23 c0 -9 6 -13 15 -9 12 4 15 -4 15 -39 0 -53 -13 -65 -29 -27 -14 33
-20 103 -9 96 4 -3 8 -12 8 -21z m1983 10 c-3 -10 -21 -38 -39 -62 -19 -25
-34 -56 -34 -70 1 -23 2 -24 11 -8 5 9 16 17 23 17 8 0 19 7 27 16 7 8 21 13
32 10 13 -3 17 0 13 10 -6 16 3 18 24 4 13 -9 13 -11 0 -19 -8 -6 -12 -13 -8
-16 4 -4 -18 -41 -48 -82 -30 -42 -54 -80 -54 -84 0 -13 13 -11 38 6 l22 16
-23 -37 c-12 -20 -32 -48 -45 -61 -13 -14 -21 -28 -18 -31 3 -3 -5 -20 -19
-38 -14 -18 -25 -39 -25 -46 0 -7 -5 -20 -11 -28 -9 -12 -10 -11 -6 8 3 12 1
22 -5 22 -5 0 -6 5 -3 11 4 6 -2 13 -13 16 -27 7 -39 41 -31 87 3 21 4 47 2
56 -3 10 9 32 26 53 17 19 31 38 31 43 0 4 6 15 13 23 8 9 20 37 27 64 7 26
16 47 19 47 4 0 21 20 39 45 33 47 46 57 35 28z m-1713 -37 c0 -3 -4 -8 -10
-11 -5 -3 -10 -1 -10 4 0 6 5 11 10 11 6 0 10 -2 10 -4z m4882 -35 c-11 -6
-10 -10 5 -15 16 -7 16 -9 2 -19 -9 -7 -18 -19 -21 -27 -3 -8 -5 4 -5 28 0 32
4 42 16 42 13 0 13 -2 3 -9z m-5065 -23 c-3 -8 -6 -5 -6 6 -1 11 2 17 5 13 3
-3 4 -12 1 -19z m496 -40 c-6 -44 -10 -55 -17 -47 -8 7 6 89 14 89 5 0 6 -19
3 -42z m55 1 c-3 -8 -7 -3 -11 10 -4 17 -3 21 5 13 5 -5 8 -16 6 -23z m1719 5
c2 -6 -3 -11 -12 -11 -8 0 -15 7 -15 15 0 15 22 12 27 -4z m1293 9 c0 -13 -77
-73 -84 -66 -8 9 54 73 71 73 7 0 13 -3 13 -7z m-1216 -19 c3 -8 2 -12 -4 -9
-6 3 -10 10 -10 16 0 14 7 11 14 -7z m-989 -106 c-9 -35 -30 -83 -46 -108
l-31 -45 6 33 c5 28 2 34 -20 42 -14 6 -30 8 -35 4 -5 -3 -9 4 -9 15 0 23 29
34 75 29 28 -3 30 0 50 67 25 86 34 54 10 -37z m957 61 c-3 -29 -1 -40 7 -35
6 4 11 1 11 -8 0 -8 -6 -14 -12 -12 -7 1 -10 1 -5 -1 4 -3 7 -12 7 -21 0 -13
2 -12 14 3 8 11 12 23 10 26 -2 4 3 9 11 13 18 7 20 -16 3 -43 -9 -15 -8 -25
8 -52 25 -44 23 -161 -3 -225 -17 -43 -33 -57 -33 -31 0 7 -10 13 -21 14 -32
3 -41 16 -30 46 14 37 6 232 -13 297 -16 58 -13 77 9 47 13 -19 32 -7 20 13
-3 6 0 10 7 10 10 0 12 -12 10 -41z m65 -111 c-3 -7 -5 -2 -5 12 0 14 2 19 5
13 2 -7 2 -19 0 -25z m-1177 -7 c0 -11 -4 -23 -10 -26 -5 -3 -10 -1 -10 4 0
19 -20 12 -21 -6 -1 -16 -2 -16 -6 0 -3 11 3 24 14 32 25 20 33 18 33 -4z
m-119 -28 c-10 -17 -10 -16 -11 3 0 23 13 41 18 25 2 -6 -1 -18 -7 -28z m40
14 c-10 -9 -11 -8 -5 6 3 10 9 15 12 12 3 -3 0 -11 -7 -18z m-131 3 c-8 -5
-19 -10 -25 -10 -5 0 -3 5 5 10 8 5 20 10 25 10 6 0 3 -5 -5 -10z m59 -30 c0
-10 -3 -8 -9 5 -12 27 -12 43 0 25 5 -8 9 -22 9 -30z m788 -82 c-3 -7 -5 -2
-5 12 0 14 2 19 5 13 2 -7 2 -19 0 -25z m-1512 -47 c-3 -6 -11 -11 -16 -11 -5
0 -4 6 3 14 14 16 24 13 13 -3z m1505 -1 c0 -11 -6 -20 -13 -20 -21 0 -27 11
-14 26 17 19 27 17 27 -6z m-10 -45 c0 -8 -7 -15 -16 -15 -10 0 -14 -5 -10
-16 3 -8 2 -12 -4 -9 -14 8 -13 28 2 43 16 16 28 15 28 -3z m465 -55 c3 -5 1
-10 -4 -10 -6 0 -11 5 -11 10 0 6 2 10 4 10 3 0 8 -4 11 -10z m45 -30 c0 -5
-5 -10 -11 -10 -5 0 -7 5 -4 10 3 6 8 10 11 10 2 0 4 -4 4 -10z m75 -54 c0
-15 -4 -21 -9 -16 -5 5 -6 16 -3 24 9 22 12 20 12 -8z m-18 -42 c-3 -4 -14 -3
-24 0 -15 6 -15 8 -3 16 16 10 39 -4 27 -16z m-1146 -33 c8 -17 18 -27 26 -24
9 3 13 -4 13 -21 0 -17 4 -24 14 -20 16 6 27 -42 21 -99 -3 -30 0 -37 11 -33
18 7 18 -5 -1 -30 -20 -26 -19 -45 2 -37 13 5 15 3 8 -13 -4 -10 -9 -33 -10
-50 -2 -39 -32 -87 -84 -138 -34 -33 -41 -37 -47 -23 -3 9 -12 17 -19 17 -8 0
-17 9 -20 20 -9 28 -22 25 -28 -7 -5 -27 10 -61 40 -91 7 -7 13 -21 13 -31 0
-25 -57 -101 -75 -101 -8 0 -33 -16 -55 -36 -21 -20 -44 -33 -50 -29 -5 3 -10
-1 -10 -9 0 -32 -28 -3 -64 65 -52 101 -65 187 -43 280 17 69 72 209 87 219 4
3 27 37 50 75 40 64 104 135 123 135 4 0 7 -7 7 -15 0 -21 13 -19 35 5 25 28
41 25 56 -9z m-730 -113 c36 -72 84 -237 99 -345 16 -109 3 -167 -55 -255 -25
-38 -49 -68 -53 -68 -5 0 -13 17 -19 38 -9 33 -11 34 -12 10 -2 -41 -17 -34
-49 22 l-29 50 14 85 c9 58 10 91 4 103 -9 15 -10 15 -11 -4 0 -11 -6 -29 -14
-39 -10 -14 -12 -36 -9 -73 6 -53 5 -54 -15 -43 -30 16 -49 14 -71 -8 -11 -11
-31 -27 -45 -36 -23 -15 -27 -15 -48 -1 -33 23 -40 20 -33 -14 4 -18 3 -30 -4
-30 -17 0 -35 43 -33 80 3 39 31 100 47 100 22 1 48 30 48 55 0 18 7 29 21 35
36 13 51 37 35 56 -10 12 -10 17 0 23 7 5 12 23 10 42 -4 59 13 157 27 163 8
3 14 14 14 24 0 17 10 32 71 98 10 12 19 28 19 35 0 24 62 -46 91 -103z m1824
93 c3 -5 1 -12 -5 -16 -5 -3 -10 1 -10 9 0 18 6 21 15 7z m105 2 c0 -17 -19
-35 -29 -29 -6 4 -11 3 -11 -2 0 -5 10 -14 23 -21 17 -9 22 -20 21 -46 -2 -31
0 -34 17 -24 15 7 19 6 19 -5 0 -8 -4 -17 -9 -20 -4 -3 -11 -18 -15 -33 -3
-16 -17 -41 -31 -58 l-25 -30 -18 22 c-12 17 -21 20 -32 13 -8 -5 -27 -10 -42
-10 -21 0 -28 5 -28 20 0 11 -4 20 -8 20 -5 0 -8 13 -7 30 2 29 18 58 43 73 6
4 12 15 12 22 0 8 3 15 8 15 4 0 21 12 37 28 16 15 33 27 36 27 4 0 11 3 15 8
4 4 11 7 16 7 4 0 8 -3 8 -7z m-2262 -55 c14 -14 16 -28 2 -28 -5 0 -14 9 -20
20 -12 22 -1 27 18 8z m3202 -76 c0 -17 -59 -64 -76 -60 -15 3 -13 8 16 36 33
30 60 41 60 24z m-879 -39 c-8 -15 -10 -15 -11 -2 0 17 10 32 18 25 2 -3 -1
-13 -7 -23z m-2471 -3 c12 -8 11 -10 -7 -10 -13 0 -23 5 -23 10 0 13 11 13 30
0z m2443 -60 c-16 -28 -33 -39 -33 -22 0 11 33 52 43 52 5 0 0 -13 -10 -30z
m-1067 -184 c99 -40 148 -70 164 -99 12 -23 13 -29 2 -36 -8 -5 -17 -22 -20
-39 l-7 -30 -135 34 c-74 19 -147 34 -162 34 -33 0 -32 -2 -13 44 18 42 81
116 99 116 7 0 39 -11 72 -24z m2564 -196 c18 -12 2 -12 -25 0 -13 6 -15 9 -5
9 8 0 22 -4 30 -9z m94 -16 c9 -3 16 -10 16 -14 0 -10 -38 -1 -46 11 -6 10 7
12 30 3z m-2764 -32 c0 -4 -8 -12 -19 -19 -24 -15 -36 -60 -20 -79 12 -15 2
-18 -25 -8 -30 11 -11 98 23 107 27 8 41 7 41 -1z m160 -2 c0 -6 -7 -24 -15
-39 -14 -28 -44 -45 -100 -57 -16 -3 -38 -8 -47 -11 -15 -3 -18 2 -18 29 1 50
55 88 127 88 30 0 53 -4 53 -10z m-1071 -79 c20 -41 22 -53 11 -66 -16 -19
-50 -19 -75 -1 -17 12 -18 15 -3 37 11 18 13 30 5 46 -5 12 -7 29 -3 38 10 26
39 2 65 -54z m697 44 c-8 -8 -18 -15 -22 -15 -3 0 -1 7 6 15 7 8 17 15 22 15
5 0 3 -7 -6 -15z m-780 -37 c-3 -24 -7 -51 -8 -60 -3 -25 -33 -22 -58 4 -28
30 -25 49 13 75 50 34 60 30 53 -19z m2264 18 c0 -3 -4 -8 -10 -11 -5 -3 -10
-1 -10 4 0 6 5 11 10 11 6 0 10 -2 10 -4z m115 -176 c7 -12 -2 -12 -30 0 -19
8 -19 9 2 9 12 1 25 -3 28 -9z m435 -20 c0 -5 -5 -10 -11 -10 -5 0 -7 5 -4 10
3 6 8 10 11 10 2 0 4 -4 4 -10z m-415 -10 c-3 -5 -14 -10 -23 -10 -15 0 -15 2
-2 10 20 13 33 13 25 0z m15 -50 c0 -5 -2 -10 -4 -10 -3 0 -8 5 -11 10 -3 6
-1 10 4 10 6 0 11 -4 11 -10z m24 -39 c4 -5 -3 -7 -14 -4 -23 6 -26 13 -6 13
8 0 17 -4 20 -9z m-5544 -31 c0 -5 -18 -10 -40 -10 -22 0 -40 5 -40 10 0 6 18
10 40 10 22 0 40 -4 40 -10z m3380 -620 c0 -5 -4 -10 -10 -10 -5 0 -10 5 -10
10 0 6 5 10 10 10 6 0 10 -4 10 -10z m-332 -85 c-7 -8 -48 35 -48 49 0 6 12
-2 27 -16 15 -15 24 -30 21 -33z m1067 -135 c-3 -5 -11 -10 -16 -10 -6 0 -7 5
-4 10 3 6 11 10 16 10 6 0 7 -4 4 -10z m451 -155 c54 -8 122 -17 149 -20 31
-4 56 -13 65 -24 8 -11 31 -27 50 -36 30 -16 32 -19 16 -25 -19 -6 -19 -7 0
-15 16 -7 12 -10 -21 -15 l-40 -6 38 -17 c54 -25 51 -31 -25 -52 -5 -2 -12 -3
-18 -4 -17 -2 -11 -21 7 -21 15 0 14 -2 -3 -15 -17 -13 -17 -14 -1 -15 9 0 17
-4 17 -9 0 -6 -16 -7 -37 -4 -26 4 -34 3 -29 -5 4 -7 14 -12 22 -12 8 0 14 -4
14 -10 0 -5 -11 -10 -25 -10 -14 0 -25 -4 -25 -9 0 -5 -10 -11 -22 -14 -17 -5
-19 -9 -10 -20 14 -16 6 -27 -20 -27 -10 0 -21 -7 -24 -15 -3 -8 -14 -17 -25
-20 -10 -4 -19 -13 -19 -21 0 -8 -7 -17 -15 -20 -20 -8 -19 -22 3 -27 9 -2 2
-3 -15 -1 -24 2 -33 -1 -33 -12 0 -8 -10 -14 -25 -14 -27 0 -48 -31 -27 -38
19 -6 14 -22 -5 -20 -50 4 -83 -3 -83 -17 0 -8 8 -16 18 -16 15 -1 15 -2 -1
-6 -12 -3 -17 -11 -14 -23 3 -12 0 -17 -7 -14 -7 3 -23 -4 -36 -16 -26 -22
-40 -26 -40 -9 0 14 -52 7 -58 -8 -2 -7 2 -15 10 -17 7 -2 33 -9 56 -16 l44
-11 -4 -45 c-3 -37 0 -44 14 -44 10 0 18 -4 18 -10 0 -13 -16 -13 -59 0 -21 6
-40 6 -50 0 -13 -7 -10 -11 19 -21 l34 -12 -34 -13 c-19 -7 -55 -13 -80 -13
l-45 -1 38 -22 c34 -20 50 -48 27 -48 -5 0 -10 5 -10 11 0 5 -13 2 -30 -8 -24
-14 -30 -24 -30 -50 0 -18 -4 -33 -10 -33 -5 0 -10 16 -10 35 0 30 -3 35 -24
35 -23 0 -24 4 -31 80 -4 44 -11 80 -17 80 -14 0 -5 75 10 76 6 1 19 2 27 3
11 1 15 13 15 41 0 22 5 40 10 40 6 0 10 18 10 40 0 28 4 40 14 40 10 0 16 14
19 43 2 23 4 -11 5 -75 2 -114 1 -117 -20 -121 -13 -3 -5 -4 17 -3 l40 2 3 77
c2 43 -1 77 -7 77 -5 0 -12 36 -16 79 -5 52 -12 81 -20 85 -11 4 -11 12 3 45
9 23 23 41 30 41 6 0 12 7 12 15 0 12 -4 13 -19 5 -28 -14 -36 -12 -21 5 7 8
19 15 26 15 20 0 17 18 -3 22 -11 2 1 11 30 23 31 13 47 25 47 37 0 10 5 18
10 18 6 0 10 5 10 11 0 10 44 69 88 119 12 13 22 28 22 32 0 5 7 8 15 8 8 0
15 5 15 10 0 12 -12 13 106 -5z m-1582 -646 c8 -8 -75 -10 -89 -2 -8 5 7 8 36
7 27 0 51 -2 53 -5z m-184 -9 c0 -5 -11 -10 -24 -10 -14 0 -28 5 -31 10 -4 6
7 10 24 10 17 0 31 -4 31 -10z m1604 -35 c-7 -17 -20 -20 -29 -6 -3 5 3 12 12
14 10 3 19 5 20 6 1 0 0 -6 -3 -14z m99 -42 c-7 -2 -21 -2 -30 0 -10 3 -4 5
12 5 17 0 24 -2 18 -5z m-42 -38 l34 -16 -35 7 c-19 3 -42 10 -50 15 -28 16
14 11 51 -6z m-1715 -13 c-10 -2 -22 0 -28 6 -6 6 0 7 19 4 21 -5 23 -7 9 -10z
m1703 -31 c19 -16 19 -20 5 -25 -19 -7 -34 1 -34 19 0 7 -6 16 -12 18 -9 4 -7
6 3 6 9 1 26 -7 38 -18z m-1622 -7 c-3 -3 -12 -4 -19 -1 -8 3 -5 6 6 6 11 1
17 -2 13 -5z m-92 -64 c-28 -12 -37 -12 -30 0 3 6 16 10 28 9 21 0 21 -1 2 -9z
m1602 -27 c3 -7 -9 -10 -33 -10 -21 1 -39 8 -42 15 -3 10 6 12 34 10 20 -2 39
-8 41 -15z m-1577 -13 c0 -5 -17 -10 -37 -9 -31 0 -34 2 -18 9 28 12 55 12 55
0z m1679 -26 c10 -9 -35 -3 -49 6 -11 8 -7 9 15 4 17 -4 32 -8 34 -10z m55
-13 c4 -5 -3 -7 -14 -4 -23 6 -26 13 -6 13 8 0 17 -4 20 -9z m-247 -63 c-2
-13 -4 -3 -4 22 0 25 2 35 4 23 2 -13 2 -33 0 -45z m288 32 c3 -5 2 -10 -4
-10 -5 0 -13 5 -16 10 -3 6 -2 10 4 10 5 0 13 -4 16 -10z m-200 -70 c3 -5 1
-10 -4 -10 -6 0 -11 5 -11 10 0 6 2 10 4 10 3 0 8 -4 11 -10z m-495 -27 c-1
-24 -2 -26 -11 -10 -5 9 -7 22 -4 27 10 17 15 11 15 -17z m-582 -613 c-7 -11
-16 -20 -21 -20 -4 0 -3 9 3 20 6 11 15 20 20 20 6 0 5 -9 -2 -20z m-164 -56
c3 -8 2 -12 -4 -9 -6 3 -10 10 -10 16 0 14 7 11 14 -7z m151 -24 c27 -30 12
-34 -15 -5 -13 14 -19 25 -13 25 5 0 18 -9 28 -20z m39 -46 c3 -8 2 -12 -4 -9
-6 3 -10 10 -10 16 0 14 7 11 14 -7z m326 -123 c-5 -11 -15 -23 -20 -26 -34
-21 -78 -125 -100 -237 -22 -112 25 -224 104 -247 l31 -9 -36 -1 c-91 -2 -150
129 -120 269 16 76 77 210 109 241 32 32 47 36 32 10z m5605 -221 c3 -5 1 -10
-4 -10 -6 0 -11 5 -11 10 0 6 2 10 4 10 3 0 8 -4 11 -10z m-5795 -154 c0 -26
-6 -18 -14 19 -5 22 -4 26 4 15 5 -8 10 -24 10 -34z m34 -72 c14 -26 26 -48
26 -50 0 -10 -18 -3 -23 9 -3 6 -12 29 -21 50 -22 51 -13 47 18 -9z m1633 -80
c-3 -3 -12 -4 -19 -1 -8 3 -5 6 6 6 11 1 17 -2 13 -5z m-1497 -54 c0 -5 -4
-10 -10 -10 -5 0 -10 5 -10 10 0 6 5 10 10 10 6 0 10 -4 10 -10z m1270 -130
c0 -5 -4 -10 -9 -10 -6 0 -13 5 -16 10 -3 6 1 10 9 10 9 0 16 -4 16 -10z
m-1042 -58 c6 -18 -15 -14 -22 4 -4 10 -1 14 6 12 6 -2 14 -10 16 -16z m-318
-412 c0 -5 -4 -10 -10 -10 -5 0 -10 5 -10 10 0 6 5 10 10 10 6 0 10 -4 10 -10z
m-30 -24 c0 -3 -4 -8 -10 -11 -5 -3 -10 -1 -10 4 0 6 5 11 10 11 6 0 10 -2 10
-4z m-135 -236 c-9 -82 -15 -110 -27 -110 -6 0 -7 24 -2 68 4 37 7 73 6 80 -5
45 -3 83 4 94 13 20 26 -69 19 -132z m-35 40 c0 -8 -42 -22 -48 -15 -2 2 2 13
8 25 9 17 14 19 26 9 8 -6 14 -15 14 -19z m6349 13 c-17 -21 -31 -33 -42 -33
-8 0 44 49 52 50 2 0 -3 -8 -10 -17z m-9729 -23 c0 -5 -4 -10 -10 -10 -5 0
-10 5 -10 10 0 6 5 10 10 10 6 0 10 -4 10 -10z m50 -12 c0 -16 -3 -19 -11 -11
-6 6 -8 16 -5 22 11 17 16 13 16 -11z m3280 -42 c0 -2 -7 -9 -15 -16 -13 -11
-14 -10 -9 4 5 14 24 23 24 12z m-3200 -16 c0 -12 -8 -12 -35 0 -18 8 -17 9 8
9 15 1 27 -3 27 -9z m-1306 -15 c-6 -15 -42 -30 -51 -21 -12 12 8 36 31 36 18
0 24 -4 20 -15z m6678 -17 c10 -10 18 -26 16 -34 -2 -9 -16 -1 -42 27 -31 33
-34 40 -16 34 12 -4 31 -16 42 -27z m-42 -48 c0 -5 -4 -10 -10 -10 -5 0 -10 5
-10 10 0 6 5 10 10 10 6 0 10 -4 10 -10z m-2070 -60 c0 -3 -16 -6 -35 -7 -19
-1 -35 3 -35 8 0 5 5 9 10 9 6 0 10 10 10 22 l0 21 25 -23 c14 -13 25 -26 25
-30z m174 -95 c-6 -15 -34 -29 -42 -20 -8 7 29 45 39 39 4 -2 6 -11 3 -19z
m-174 -35 c0 -5 -9 -10 -20 -10 -11 0 -20 5 -20 10 0 6 9 10 20 10 11 0 20 -4
20 -10z m240 -90 c0 -5 -5 -10 -11 -10 -5 0 -7 5 -4 10 3 6 8 10 11 10 2 0 4
-4 4 -10z m30 -292 c0 -18 -2 -20 -9 -8 -6 8 -7 18 -5 22 9 14 14 9 14 -14z
m65 -135 c-18 -17 -18 -17 -5 1 12 16 12 20 -3 31 -9 7 -17 16 -17 21 0 5 10
-2 22 -14 22 -22 22 -22 3 -39z m-44 4 c-10 -9 -11 -8 -5 6 3 10 9 15 12 12 3
-3 0 -11 -7 -18z m-41 -71 c0 -3 -4 -8 -10 -11 -5 -3 -10 -1 -10 4 0 6 5 11
10 11 6 0 10 -2 10 -4z m160 -86 c0 -5 -5 -10 -11 -10 -5 0 -7 5 -4 10 3 6 8
10 11 10 2 0 4 -4 4 -10z m-40 -57 c-11 -21 -30 -49 -40 -63 -16 -20 -20 -22
-20 -7 0 9 5 17 10 17 6 0 20 20 32 45 12 25 26 45 31 45 4 0 -1 -17 -13 -37z
m-3716 -312 c3 -4 -28 -11 -70 -15 -80 -7 -124 -20 -136 -39 -6 -9 -12 -7 -22
6 -7 9 -24 17 -38 17 -37 0 -133 -52 -218 -118 -58 -44 -78 -67 -88 -97 -14
-42 -62 -314 -62 -352 0 -13 -5 -23 -11 -23 -7 0 -9 16 -5 48 4 26 0 96 -8
157 -8 60 -13 111 -11 114 3 2 -3 13 -12 23 -13 14 -14 21 -5 30 18 18 14 26
-12 21 -13 -3 -26 -1 -29 4 -8 13 31 87 69 132 26 30 31 41 19 41 -22 0 -128
-107 -122 -123 2 -7 1 -22 -4 -34 -7 -19 -13 -21 -61 -17 -72 7 -127 -13 -153
-57 -11 -18 -32 -67 -46 -109 -22 -59 -29 -71 -35 -55 -21 56 -80 110 -148
135 l-28 10 26 21 c14 11 26 27 26 35 0 8 9 32 19 52 22 43 70 73 156 96 59
16 317 64 385 72 156 17 288 25 355 21 44 -2 94 -1 110 3 42 11 153 12 159 1z
m227 -159 c-13 -2 -27 0 -32 5 -6 6 3 7 23 4 28 -4 29 -6 9 -9z m8494 -12 c-3
-6 2 -13 11 -17 10 -4 19 -2 22 5 5 17 22 15 22 -3 0 -20 34 -19 55 1 15 15
17 15 34 0 23 -21 48 -20 60 1 5 10 13 15 16 11 8 -8 -24 -44 -45 -51 -8 -2
-2 -3 14 -1 l29 4 -23 -20 c-30 -26 -18 -38 15 -16 40 26 49 15 16 -21 -29
-33 -25 -58 5 -29 8 9 23 16 32 15 11 0 12 -2 5 -6 -16 -6 -17 -43 -2 -43 6 0
8 -9 4 -20 -8 -24 3 -25 33 -4 13 9 25 14 28 12 2 -3 -7 -11 -21 -18 -14 -7
-25 -17 -25 -22 0 -5 -5 -6 -10 -3 -6 4 -23 -5 -37 -19 -29 -30 -27 -32 13
-11 36 18 55 4 31 -23 -26 -29 -20 -36 12 -13 34 25 52 14 19 -11 l-23 -18 22
-6 c30 -8 18 -27 -12 -20 -15 4 -25 1 -28 -9 -4 -9 -1 -12 8 -9 8 3 21 1 31
-4 14 -8 13 -10 -10 -16 -14 -3 -26 -13 -26 -22 0 -12 4 -13 21 -4 11 7 23 9
27 6 7 -7 6 -8 -38 -36 -19 -12 -26 -19 -15 -16 54 14 79 17 66 8 -10 -7 -10
-11 -1 -17 8 -5 7 -12 -6 -26 -16 -18 -16 -19 7 -27 22 -9 20 -10 -18 -17 -43
-7 -55 -18 -29 -28 7 -3 19 0 25 6 6 6 14 7 18 2 5 -4 2 -10 -4 -12 -20 -7
-15 -23 7 -23 11 0 20 -3 20 -7 0 -14 -74 -71 -87 -66 -7 3 -13 0 -13 -6 0 -6
4 -11 10 -11 5 0 2 -9 -7 -20 -10 -11 -30 -20 -45 -20 -35 0 -37 -16 -3 -24
30 -8 33 -26 5 -26 -11 0 -20 -4 -20 -10 0 -5 -9 -10 -19 -10 -11 0 -22 -4
-25 -9 -8 -12 -81 -22 -102 -14 -15 6 -15 7 4 14 12 5 29 6 37 3 8 -3 22 1 30
10 15 15 15 17 0 22 -9 4 -20 3 -25 -2 -5 -5 -43 -8 -84 -6 l-76 4 0 38 c0 35
-3 39 -27 42 -25 3 -28 7 -29 43 0 48 -28 62 -43 22 -10 -26 -36 -37 -88 -37
-29 0 -33 3 -33 25 0 20 -5 25 -23 25 -17 0 -29 10 -43 38 -10 20 -23 40 -28
43 -13 10 3 159 17 156 8 -1 14 20 17 61 3 34 8 61 11 60 16 -7 49 38 50 66 1
28 2 27 12 -12 9 -40 30 -53 33 -21 1 8 2 20 3 28 0 7 7 11 15 8 9 -4 16 4 20
24 3 16 12 29 20 29 8 0 24 12 35 26 12 16 21 21 21 13 1 -10 4 -9 11 4 5 9
15 17 22 17 7 0 18 14 25 30 8 17 20 30 28 30 8 0 14 5 14 10 0 6 7 10 16 10
8 0 12 -5 9 -10z m-8366 -150 c0 -10 -3 -8 -9 5 -12 27 -12 43 0 25 5 -8 9
-22 9 -30z m-1626 20 c20 -1 20 -2 4 -11 -13 -7 -23 -6 -40 7 -16 12 -17 15
-4 10 10 -3 28 -6 40 -6z m9627 -202 c0 -30 -1 -31 -17 -16 -13 14 -14 20 -3
32 18 22 20 20 20 -16z m2055 -8 c-3 -5 -11 -10 -16 -10 -6 0 -7 5 -4 10 3 6
11 10 16 10 6 0 7 -4 4 -10z m-1325 -44 c0 -11 -19 -15 -25 -6 -3 5 1 10 9 10
9 0 16 -2 16 -4z m-760 -57 c0 -5 -7 -9 -15 -9 -15 0 -20 12 -9 23 8 8 24 -1
24 -14z m10 -129 c0 -29 -4 -40 -15 -40 -9 0 -15 9 -15 24 0 13 -3 31 -6 40
-4 12 0 16 15 16 18 0 21 -6 21 -40z m20 -60 c0 -5 -4 -10 -9 -10 -6 0 -13 5
-16 10 -3 6 1 10 9 10 9 0 16 -4 16 -10z m0 -40 c0 -5 -7 -10 -16 -10 -8 0
-12 5 -9 10 3 6 10 10 16 10 5 0 9 -4 9 -10z m100 -30 c0 -5 -4 -10 -10 -10
-5 0 -10 5 -10 10 0 6 5 10 10 10 6 0 10 -4 10 -10z m139 -6 c10 -9 -6 -11
-41 -6 -21 2 -38 8 -38 14 0 8 68 1 79 -8z m-52 -40 c-3 -3 -12 -4 -19 -1 -8
3 -5 6 6 6 11 1 17 -2 13 -5z m133 -59 c0 -8 -6 -15 -14 -15 -17 0 -28 14 -19
24 12 12 33 6 33 -9z m280 5 c13 -9 13 -11 0 -20 -8 -5 -21 -10 -27 -10 -7 0
-13 -4 -13 -10 0 -5 21 -11 48 -11 l47 -2 -40 -6 c-32 -6 -45 -3 -63 14 -19
16 -21 21 -8 23 9 2 16 10 16 18 0 16 18 18 40 4z m60 6 c0 -3 -4 -8 -10 -11
-5 -3 -10 -1 -10 4 0 6 5 11 10 11 6 0 10 -2 10 -4z m-485 -26 c3 -5 -1 -10
-10 -10 -9 0 -13 5 -10 10 3 6 8 10 10 10 2 0 7 -4 10 -10z m79 -15 c-25 -19
-38 -19 -22 0 7 8 19 14 27 15 11 0 9 -4 -5 -15z m224 -12 c-16 -2 -40 -2 -55
0 -16 2 -3 4 27 4 30 0 43 -2 28 -4z m-268 -99 c0 -2 -7 -4 -15 -4 -8 0 -15 4
-15 10 0 5 7 7 15 4 8 -4 15 -8 15 -10z m350 6 c0 -5 -17 -9 -37 -9 l-38 2 35
7 c19 4 36 8 38 9 1 0 2 -3 2 -9z m-332 -67 c-10 -2 -26 -2 -35 0 -10 3 -2 5
17 5 19 0 27 -2 18 -5z m235 0 c-13 -2 -33 -2 -45 0 -13 2 -3 4 22 4 25 0 35
-2 23 -4z m-2136 -463 c16 -22 33 -40 38 -40 6 0 23 -13 38 -30 16 -16 32 -30
37 -30 4 0 11 -12 14 -26 6 -24 10 -25 41 -20 32 6 35 5 35 -19 0 -16 6 -25
15 -25 8 0 15 -7 15 -15 0 -8 4 -15 9 -15 5 0 8 -54 7 -120 -1 -85 3 -123 11
-128 13 -8 39 -107 34 -131 -1 -8 2 -10 9 -6 9 5 10 1 6 -13 -4 -12 -1 -34 7
-49 8 -15 20 -53 27 -83 7 -30 17 -61 22 -67 6 -7 7 -25 3 -40 -4 -16 -9 -100
-11 -188 -1 -88 -5 -182 -9 -210 -4 -35 -3 -44 4 -30 7 15 10 16 10 5 1 -9 -4
-21 -10 -27 -7 -7 -13 -35 -16 -64 -3 -48 -1 -55 24 -77 26 -22 26 -23 3 -10
-27 16 -84 26 -200 34 -90 7 -110 9 -130 17 -69 26 -99 28 -248 22 -141 -6
-210 -14 -266 -32 -18 -5 -19 -1 -12 52 7 64 50 224 70 264 8 14 26 69 41 121
32 114 77 212 137 300 24 36 70 103 102 150 101 148 99 134 41 280 -18 47 -36
108 -40 135 -7 62 10 223 32 289 l16 49 33 -92 c19 -51 46 -110 61 -131z
m-4860 24 c-3 -3 -12 -4 -19 -1 -8 3 -5 6 6 6 11 1 17 -2 13 -5z m207 -23 c10
-15 -21 -19 -174 -25 -74 -3 -160 -8 -191 -12 -47 -5 -57 -4 -63 11 -3 9 -4
20 -2 24 7 11 423 14 430 2z m2378 -61 c3 -33 0 -40 -14 -40 -14 0 -18 8 -18
40 0 28 4 40 14 40 9 0 15 -14 18 -40z m-2947 20 c13 -6 -1 -7 -41 -4 -52 5
-145 -3 -231 -22 -29 -6 -53 -52 -53 -104 0 -22 -3 -40 -6 -40 -13 0 -114 73
-114 83 0 6 7 19 17 29 19 21 15 21 -61 7 -49 -9 -125 -5 -114 7 6 6 237 36
333 44 133 10 247 10 270 0z m215 -80 c0 -5 -11 -10 -25 -10 -14 0 -25 5 -25
10 0 6 11 10 25 10 14 0 25 -4 25 -10z m-1061 -370 c-19 -10 -58 -39 -86 -64
-57 -52 -76 -50 -36 3 43 57 79 78 133 80 23 0 22 -2 -11 -19z m591 -5 l65
-13 -86 5 c-59 4 -88 2 -93 -6 -5 -8 -13 -8 -28 0 -14 7 -23 8 -30 1 -6 -6
-31 -8 -59 -5 l-49 6 0 -32 c0 -24 -4 -31 -20 -31 -11 0 -20 -4 -20 -9 0 -11
-76 -67 -137 -100 -36 -21 -45 -22 -75 -12 -47 16 -138 73 -138 86 0 12 82 94
119 118 22 15 52 16 255 11 127 -4 260 -12 296 -19z m1120 -4 c0 -12 -96 -25
-111 -15 -9 5 -7 10 7 15 27 11 104 11 104 0z m5831 -254 c24 -56 46 -103 51
-105 4 -2 8 -12 8 -23 0 -10 4 -19 8 -19 5 0 14 -12 21 -27 14 -31 104 -156
136 -189 11 -11 40 -36 65 -54 64 -47 138 -119 161 -157 22 -35 30 -105 18
-140 -7 -20 -16 -23 -61 -23 -73 0 -122 -16 -163 -52 -36 -31 -42 -31 -25 3 8
14 7 19 -3 19 -7 0 -19 -12 -26 -27 -20 -43 -38 -83 -64 -143 -38 -86 -87
-193 -96 -210 -11 -21 -71 -23 -96 -5 -17 14 -18 17 -5 25 12 8 11 10 -5 10
-11 0 -26 -4 -34 -9 -16 -10 -6 -31 15 -31 8 0 14 -4 14 -10 0 -17 -37 -11
-44 6 -5 12 -14 15 -36 11 -16 -4 -32 -2 -36 4 -4 7 -10 7 -18 0 -10 -9 -55
-9 -140 -2 -5 1 -6 24 -3 52 5 43 4 49 -8 39 -8 -7 -17 -27 -21 -46 -8 -45
-46 -48 -69 -5 -14 27 -21 30 -86 37 l-71 7 7 35 c3 19 10 42 15 51 25 49 53
149 52 190 0 25 -15 91 -32 146 -19 62 -28 110 -25 125 6 22 53 87 93 128 7 8
19 26 26 40 8 15 26 37 40 49 14 13 26 29 26 35 0 10 2 10 8 0 6 -9 15 -5 33
16 30 35 80 108 98 144 7 14 22 29 32 31 13 4 19 14 19 33 0 15 3 25 6 21 8
-8 44 25 44 40 0 7 5 13 10 13 6 0 10 -4 10 -10 0 -5 5 -10 10 -10 6 0 10 6
10 14 0 7 7 20 17 27 9 8 23 30 31 49 13 32 15 33 27 16 8 -10 33 -64 56 -119z
m-3831 83 c0 -5 -4 -10 -10 -10 -5 0 -10 5 -10 10 0 6 5 10 10 10 6 0 10 -4
10 -10z m-23 -62 c-3 -8 -6 -5 -6 6 -1 11 2 17 5 13 3 -3 4 -12 1 -19z m-24
-268 c-3 -12 -8 -19 -11 -16 -5 6 5 36 12 36 2 0 2 -9 -1 -20z m-1394 -226
c21 -5 31 -12 31 -25 0 -12 -5 -16 -15 -13 -17 7 -45 -12 -45 -29 0 -7 4 -7
12 1 19 19 38 14 39 -10 l0 -23 9 21 c18 45 35 37 33 -13 -1 -7 3 -11 7 -8 14
9 30 -21 36 -66 4 -34 -1 -66 -25 -137 -18 -52 -38 -101 -46 -109 -16 -15 -21
-44 -7 -42 4 1 19 1 34 0 21 -1 25 -5 21 -22 -3 -12 -11 -18 -19 -15 -8 3 -21
3 -30 -1 -18 -7 -12 -61 12 -119 20 -47 9 -43 -16 6 -11 22 -22 62 -23 90 -4
56 -12 72 -22 41 -3 -12 -12 -21 -20 -21 -7 0 -19 -16 -25 -35 -13 -39 -30
-48 -23 -12 2 12 -3 31 -12 42 -15 19 -16 18 -13 -17 2 -21 2 -38 0 -38 -2 0
-14 13 -28 29 -14 16 -43 34 -69 42 -25 7 -45 18 -45 24 0 5 14 88 30 183 20
119 36 185 52 214 33 58 85 78 167 62z m1408 -121 c-2 -16 -4 -5 -4 22 0 28 2
40 4 28 2 -13 2 -35 0 -50z m4793 -123 c32 0 33 -1 17 -17 -14 -14 -22 -15
-49 -6 -18 5 -62 8 -98 6 -63 -5 -172 -7 -256 -4 -24 0 -44 7 -47 14 -4 10 37
12 197 10 110 -1 217 -3 236 -3z m120 -9 c0 -13 -34 -23 -54 -15 -28 11 -18
24 19 24 19 0 35 -4 35 -9z m155 0 c15 -6 6 -9 -33 -13 -59 -6 -102 0 -102 13
0 11 107 11 135 0z m-718 -50 c93 -18 143 -34 143 -46 0 -3 -10 0 -22 5 -13 5
-72 18 -132 30 -60 11 -112 22 -114 25 -9 9 21 5 125 -14z m-5617 -145 c-5
-15 -15 -26 -22 -24 -21 7 -20 26 1 33 12 3 21 14 22 23 0 9 3 12 5 6 3 -6 0
-23 -6 -38z m300 -6 c0 -5 -5 -10 -11 -10 -5 0 -7 5 -4 10 3 6 8 10 11 10 2 0
4 -4 4 -10z m-313 -52 c-3 -13 -12 -45 -19 -73 -13 -44 -15 -47 -21 -25 -11
41 -8 70 11 95 22 31 36 32 29 3z m-367 -89 c-7 -11 -14 -19 -16 -16 -7 7 7
37 17 37 6 0 5 -9 -1 -21z m28 -137 c12 -11 22 -24 22 -30 0 -6 16 -24 35 -39
19 -15 35 -31 35 -35 0 -12 -53 14 -82 40 l-26 24 -4 -23 c-2 -19 -9 -24 -31
-24 -24 -1 -27 2 -22 22 6 25 -4 30 -22 12 -6 -6 -9 -18 -6 -27 5 -12 1 -14
-23 -8 -42 11 -58 29 -50 61 4 17 18 31 41 41 23 9 35 21 35 34 0 11 7 20 15
20 9 0 15 -7 13 -16 -6 -36 20 -23 28 13 l7 38 7 -42 c4 -25 15 -50 28 -61z
m54 25 c14 -22 8 -28 -19 -25 -34 4 -43 33 -11 35 12 1 26 -3 30 -10z m2681
-318 c133 -11 244 -23 247 -26 3 -3 -35 -2 -85 1 -278 22 -327 26 -397 26 -45
0 -78 4 -78 10 0 14 38 13 313 -11z m-3205 -5 c-8 -9 -24 -14 -34 -11 -17 3
-16 5 6 15 36 16 47 14 28 -4z m4659 10 c-3 -3 -12 -4 -19 -1 -8 3 -5 6 6 6
11 1 17 -2 13 -5z m-67 -19 c-7 -9 -15 -13 -17 -11 -7 7 7 26 19 26 6 0 6 -6
-2 -15z m-125 -40 c-16 -8 -37 -14 -45 -14 -8 0 -1 7 15 14 17 8 37 14 45 14
8 0 2 -7 -15 -14z m-3677 -50 c76 -21 75 -31 -1 -15 -34 7 -62 19 -73 33 -11
12 -12 17 -4 10 8 -6 43 -19 78 -28z m348 -72 c-14 -15 -21 6 -12 37 l10 35 4
-33 c2 -19 1 -36 -2 -39z m-239 41 c-3 -3 -12 -4 -19 -1 -8 3 -5 6 6 6 11 1
17 -2 13 -5z m583 -54 c0 -5 -4 -10 -10 -10 -5 0 -10 5 -10 10 0 6 5 10 10 10
6 0 10 -4 10 -10z"/>
<path d="M4454 11599 c-3 -6 -1 -16 6 -22 10 -9 12 -8 7 6 -9 23 8 22 34 -4
26 -26 37 -18 12 10 -19 23 -48 28 -59 10z"/>
<path d="M4572 11534 c10 -10 20 -15 24 -12 3 4 -5 12 -18 18 -22 12 -22 12
-6 -6z"/>
<path d="M6710 11381 c0 -6 4 -13 10 -16 6 -3 7 1 4 9 -7 18 -14 21 -14 7z"/>
<path d="M5870 8150 c0 -5 5 -10 10 -10 6 0 10 5 10 10 0 6 -4 10 -10 10 -5 0
-10 -4 -10 -10z"/>
<path d="M5760 7960 c0 -5 5 -10 10 -10 6 0 10 5 10 10 0 6 -4 10 -10 10 -5 0
-10 -4 -10 -10z"/>
<path d="M917 3823 c-3 -5 -1 -26 3 -48 l8 -40 1 48 c1 45 -2 56 -12 40z"/>
<path d="M9920 3530 c0 -5 5 -10 11 -10 5 0 7 5 4 10 -3 6 -8 10 -11 10 -2 0
-4 -4 -4 -10z"/>
<path d="M10545 3471 c-3 -5 -1 -12 5 -16 5 -3 10 1 10 9 0 18 -6 21 -15 7z"/>
<path d="M10258 3443 c12 -2 32 -2 45 0 12 2 2 4 -23 4 -25 0 -35 -2 -22 -4z"/>
<path d="M10135 3408 c11 -6 27 -20 36 -30 17 -19 59 -25 59 -8 0 6 -6 10 -13
10 -8 0 -24 9 -37 20 -13 11 -32 20 -44 20 -21 -1 -21 -1 -1 -12z"/>
<path d="M10500 3390 c0 -5 5 -10 10 -10 6 0 10 5 10 10 0 6 -4 10 -10 10 -5
0 -10 -4 -10 -10z"/>
<path d="M10573 3355 c0 -9 7 -15 16 -13 19 4 18 22 -2 26 -7 2 -14 -4 -14
-13z"/>
<path d="M10232 3320 c0 -14 2 -19 5 -12 2 6 2 18 0 25 -3 6 -5 1 -5 -13z"/>
<path d="M10488 3323 c7 -3 16 -2 19 1 4 3 -2 6 -13 5 -11 0 -14 -3 -6 -6z"/>
<path d="M10256 3297 c-23 -19 -27 -28 -23 -57 l4 -35 1 38 c2 34 4 37 32 37
19 0 30 5 30 14 0 25 -15 26 -44 3z"/>
<path d="M10390 3271 c-8 -5 -28 -15 -44 -22 -23 -11 -25 -15 -11 -17 21 -5
62 16 69 34 6 16 6 16 -14 5z"/>
<path d="M4290 926 c0 -14 5 -26 10 -26 6 0 10 9 10 19 0 11 -4 23 -10 26 -6
4 -10 -5 -10 -19z"/>
<path d="M4230 850 c0 -5 5 -10 10 -10 6 0 10 5 10 10 0 6 -4 10 -10 10 -5 0
-10 -4 -10 -10z"/>
<path d="M4150 540 c0 -5 5 -10 10 -10 6 0 10 5 10 10 0 6 -4 10 -10 10 -5 0
-10 -4 -10 -10z"/>
<path d="M4092 520 c-17 -28 -15 -50 5 -50 13 0 14 3 5 12 -17 17 -15 25 8 31
11 3 20 10 20 16 0 18 -24 12 -38 -9z"/>
<path d="M12117 12602 c-9 -10 -48 -36 -87 -58 -38 -21 -70 -44 -70 -51 0 -7
-17 -24 -37 -39 -50 -37 -62 -49 -38 -37 68 34 95 44 104 39 5 -3 18 5 29 19
19 24 21 24 31 8 8 -15 10 -16 15 -3 2 8 7 22 9 30 4 9 6 6 6 -7 2 -47 40 -14
46 39 2 18 7 43 10 56 9 27 3 28 -18 4z m-117 -122 c0 -5 -5 -10 -11 -10 -5 0
-7 5 -4 10 3 6 8 10 11 10 2 0 4 -4 4 -10z"/>
<path d="M9305 12180 c-3 -5 -1 -10 4 -10 6 0 11 5 11 10 0 6 -2 10 -4 10 -3
0 -8 -4 -11 -10z"/>
<path d="M9550 11790 c0 -5 5 -10 10 -10 6 0 10 5 10 10 0 6 -4 10 -10 10 -5
0 -10 -4 -10 -10z"/>
<path d="M11783 11253 c34 -5 36 -23 2 -23 -16 0 -25 -6 -25 -15 0 -13 8 -15
38 -9 20 3 43 14 50 23 11 14 9 17 -15 22 -15 4 -39 6 -53 6 -23 0 -23 0 3 -4z"/>
<path d="M11968 11242 c-21 -4 -23 -13 -6 -30 9 -9 6 -12 -15 -12 -17 0 -27 5
-27 15 0 8 -5 15 -10 15 -6 0 -13 -7 -16 -15 -4 -8 -17 -15 -30 -15 -15 0 -24
-6 -24 -15 0 -12 20 -15 120 -15 100 0 120 3 120 15 0 9 9 15 25 15 31 0 33
25 3 35 -25 9 -113 13 -140 7z"/>
<path d="M11868 10873 c7 -3 16 -2 19 1 4 3 -2 6 -13 5 -11 0 -14 -3 -6 -6z"/>
<path d="M9280 10810 c0 -5 5 -10 10 -10 6 0 10 5 10 10 0 6 -4 10 -10 10 -5
0 -10 -4 -10 -10z"/>
<path d="M4510 10740 c0 -5 5 -10 10 -10 6 0 10 5 10 10 0 6 -4 10 -10 10 -5
0 -10 -4 -10 -10z"/>
<path d="M4125 10290 c3 -5 8 -10 11 -10 2 0 4 5 4 10 0 6 -5 10 -11 10 -5 0
-7 -4 -4 -10z"/>
<path d="M8450 10190 c0 -5 5 -10 11 -10 5 0 7 5 4 10 -3 6 -8 10 -11 10 -2 0
-4 -4 -4 -10z"/>
<path d="M290 10065 c7 -8 16 -15 21 -15 5 0 9 7 9 15 0 9 -9 15 -21 15 -18 0
-19 -2 -9 -15z"/>
<path d="M480 10040 c0 -17 7 -20 40 -20 33 0 40 3 40 20 0 17 -7 20 -40 20
-33 0 -40 -3 -40 -20z"/>
<path d="M11248 9867 c-26 -17 -50 -38 -53 -46 -5 -12 -3 -12 12 1 10 9 40 30
67 47 28 17 43 31 35 31 -7 -1 -35 -15 -61 -33z"/>
<path d="M7190 9859 c0 -12 25 -22 41 -17 6 2 0 9 -15 16 -16 7 -26 8 -26 1z"/>
<path d="M1010 9850 c-11 -7 3 -10 48 -10 35 0 62 4 62 10 0 13 -90 13 -110 0z"/>
<path d="M3917 9839 c7 -7 15 -10 18 -7 3 3 -2 9 -12 12 -14 6 -15 5 -6 -5z"/>
<path d="M3605 9833 c-27 -5 -71 -40 -63 -49 4 -4 15 -1 24 7 9 8 37 22 63 31
32 11 38 16 21 16 -14 0 -34 -3 -45 -5z"/>
<path d="M3955 9830 c-8 -13 15 -13 35 0 12 8 11 10 -7 10 -12 0 -25 -4 -28
-10z"/>
<path d="M2960 9666 c0 -9 5 -16 10 -16 6 0 10 4 10 9 0 6 -4 13 -10 16 -5 3
-10 -1 -10 -9z"/>
<path d="M2998 9673 c7 -3 16 -2 19 1 4 3 -2 6 -13 5 -11 0 -14 -3 -6 -6z"/>
<path d="M3040 9644 c-30 -11 -32 -12 -10 -13 31 0 67 14 54 21 -5 3 -25 0
-44 -8z"/>
<path d="M4080 9119 c0 -17 25 -45 90 -100 18 -15 20 -19 7 -15 -11 3 -31 9
-45 12 l-27 6 30 -21 30 -21 -29 0 c-23 0 -27 -3 -18 -12 18 -18 14 -30 -8
-23 -23 7 -25 2 -10 -26 8 -13 7 -19 0 -19 -23 0 17 -43 63 -66 55 -28 60 -36
15 -23 -56 16 -55 10 2 -17 66 -30 68 -33 51 -44 -10 -6 1 -10 35 -15 79 -10
82 -13 21 -14 -36 -1 -64 -7 -73 -15 -20 -21 -19 -22 32 -17 25 2 56 -2 68 -8
28 -15 128 -10 134 7 2 6 -3 12 -10 12 -8 0 -14 8 -15 19 -1 14 3 17 18 14 23
-6 24 0 3 33 -9 13 -14 27 -11 31 9 8 -32 85 -57 106 -35 31 -69 56 -114 85
-23 14 -40 32 -38 38 6 15 -49 65 -101 90 -41 20 -43 20 -43 3z"/>
<path d="M5920 9050 c0 -5 5 -10 10 -10 6 0 10 5 10 10 0 6 -4 10 -10 10 -5 0
-10 -4 -10 -10z"/>
<path d="M5590 8950 c-13 -11 -21 -22 -18 -25 2 -3 15 6 28 20 28 30 22 33
-10 5z"/>
<path d="M5238 7985 c13 -9 26 -14 29 -11 8 8 3 12 -27 21 l-25 7 23 -17z"/>
<path d="M5232 7859 c-7 -10 -8 -19 -3 -19 13 0 33 28 23 33 -4 3 -13 -3 -20
-14z"/>
<path d="M5215 7820 c-3 -5 -1 -10 4 -10 6 0 11 5 11 10 0 6 -2 10 -4 10 -3 0
-8 -4 -11 -10z"/>
<path d="M5281 7724 c0 -11 3 -14 6 -6 3 7 2 16 -1 19 -3 4 -6 -2 -5 -13z"/>
<path d="M4245 7710 c-4 -6 6 -10 22 -10 22 0 25 2 13 10 -19 12 -27 12 -35 0z"/>
<path d="M5287 7647 l-18 -32 21 21 c13 12 21 27 19 33 -2 6 -12 -4 -22 -22z"/>
<path d="M5343 7643 c-18 -38 -16 -54 2 -19 9 16 14 33 13 37 -2 5 -9 -4 -15
-18z"/>
<path d="M5316 7573 c-6 -14 -5 -15 5 -6 7 7 10 15 7 18 -3 3 -9 -2 -12 -12z"/>
<path d="M680 7480 c0 -5 5 -10 10 -10 6 0 10 5 10 10 0 6 -4 10 -10 10 -5 0
-10 -4 -10 -10z"/>
<path d="M4733 7448 c-13 -6 -23 -15 -23 -20 0 -5 14 -2 30 7 45 23 38 35 -7
13z"/>
<path d="M12000 7383 l0 -52 32 11 c18 6 27 13 20 16 -6 2 -12 10 -12 17 0 7
-9 23 -20 36 l-19 24 -1 -52z"/>
<path d="M12694 7378 c-4 -7 -7 -31 -5 -55 2 -38 0 -43 -18 -43 -18 0 -21 -6
-21 -40 0 -33 -3 -40 -20 -40 -17 0 -20 -7 -20 -40 0 -29 -4 -40 -15 -40 -11
0 -15 -11 -15 -40 0 -22 -4 -40 -10 -40 -5 0 -10 14 -10 30 0 28 -2 30 -40 30
-22 0 -40 5 -40 10 0 6 -13 10 -30 10 -28 0 -30 -2 -30 -40 0 -36 -2 -40 -25
-40 -22 0 -25 -4 -25 -40 0 -36 -2 -40 -25 -40 -22 0 -25 4 -25 40 0 22 -4 40
-10 40 -6 0 -10 -33 -10 -80 l0 -80 -45 0 -45 0 0 -40 c0 -29 -4 -40 -15 -40
-13 0 -15 -38 -15 -280 0 -157 -4 -280 -9 -280 -13 0 -17 50 -17 192 1 92 -2
128 -11 128 -9 0 -11 -135 -8 -556 1 -305 5 -558 9 -561 3 -4 7 14 7 38 1 24
3 36 6 27 4 -15 17 -18 84 -18 64 0 79 3 79 15 0 12 16 15 80 15 l80 0 0 40 0
40 40 0 40 0 0 40 c0 38 2 40 30 40 28 0 30 2 30 40 0 36 3 40 25 41 14 1 31
2 38 3 6 0 13 18 15 39 4 49 22 48 22 -1 0 -38 1 -38 38 -37 l37 1 3 797 c2
792 2 797 -18 797 -11 0 -19 -5 -17 -11 1 -6 -8 -18 -20 -26 -23 -15 -23 -15
-23 26 0 40 -11 53 -26 29z m-57 -1160 c-2 -35 -3 -7 -3 62 0 69 1 97 3 63 2
-35 2 -91 0 -125z m3 -298 c0 -47 -4 -80 -10 -80 -6 0 -10 33 -10 80 0 47 4
80 10 80 6 0 10 -33 10 -80z m-400 -270 l0 -30 80 0 c47 0 80 -4 80 -10 0 -5
-18 -10 -40 -10 l-40 0 0 -40 0 -40 -65 0 -65 0 0 40 c0 29 4 40 15 40 11 0
15 11 15 40 0 22 5 40 10 40 6 0 10 -13 10 -30z"/>
<path d="M11128 7302 c-14 -2 -29 -10 -32 -19 -5 -13 -1 -14 25 -9 17 3 42 6
55 6 13 0 24 4 24 9 0 11 -36 17 -72 13z"/>
<path d="M4420 7260 c0 -17 83 -50 92 -36 16 23 11 27 -59 41 -22 4 -33 3 -33
-5z"/>
<path d="M11132 7236 c-28 -13 -23 -30 9 -33 l24 -2 -25 8 c-25 9 -25 9 8 16
17 4 32 11 32 16 0 11 -19 10 -48 -5z"/>
<path d="M11040 7229 c0 -5 5 -7 10 -4 6 3 10 8 10 11 0 2 -4 4 -10 4 -5 0
-10 -5 -10 -11z"/>
<path d="M11185 7220 c-3 -5 -1 -10 4 -10 6 0 11 5 11 10 0 6 -2 10 -4 10 -3
0 -8 -4 -11 -10z"/>
<path d="M12001 7204 c0 -11 3 -14 6 -6 3 7 2 16 -1 19 -3 4 -6 -2 -5 -13z"/>
<path d="M11068 7203 c6 -2 18 -2 25 0 6 3 1 5 -13 5 -14 0 -19 -2 -12 -5z"/>
<path d="M4383 7193 c9 -3 17 -9 17 -14 0 -5 7 -9 15 -9 8 0 15 -4 15 -9 0 -5
15 -11 33 -13 17 -3 40 -8 50 -13 13 -5 17 -2 17 12 0 22 -45 40 -120 46 -25
2 -37 2 -27 0z"/>
<path d="M12001 7023 c0 -70 4 -150 9 -178 l7 -50 2 43 c0 23 6 42 11 42 6 0
10 18 10 40 0 51 -17 52 -23 3 -3 -21 -3 19 0 89 2 81 0 129 -7 133 -7 4 -10
-36 -9 -122z"/>
<path d="M4602 7062 c27 -35 50 -57 44 -42 -3 8 -9 22 -12 32 -3 9 -15 18 -25
21 -18 5 -18 3 -7 -11z"/>
<path d="M6990 7060 c0 -5 5 -10 10 -10 6 0 10 5 10 10 0 6 -4 10 -10 10 -5 0
-10 -4 -10 -10z"/>
<path d="M12131 6963 c0 -10 4 -36 8 -58 8 -38 9 -37 7 17 0 32 -4 58 -8 58
-5 0 -8 -8 -7 -17z"/>
<path d="M12125 6801 c-6 -11 9 -23 19 -14 9 9 7 23 -3 23 -6 0 -12 -4 -16 -9z"/>
<path d="M11700 6760 c0 -22 5 -40 10 -40 6 0 10 18 10 40 0 22 -4 40 -10 40
-5 0 -10 -18 -10 -40z"/>
<path d="M12037 6776 c-4 -10 -5 -21 -2 -24 9 -9 17 6 13 25 -3 17 -4 17 -11
-1z"/>
<path d="M11810 6696 c0 -13 -3 -31 -6 -40 -3 -9 -2 -16 4 -16 5 0 12 18 14
40 2 22 0 40 -4 40 -5 0 -8 -11 -8 -24z"/>
<path d="M5920 6670 c0 -5 5 -10 11 -10 5 0 7 5 4 10 -3 6 -8 10 -11 10 -2 0
-4 -4 -4 -10z"/>
<path d="M6530 6630 c0 -12 40 -34 47 -26 9 8 -17 36 -33 36 -8 0 -14 -4 -14
-10z"/>
<path d="M11680 6600 c0 -22 5 -40 10 -40 6 0 10 18 10 40 0 22 -4 40 -10 40
-5 0 -10 -18 -10 -40z"/>
<path d="M11117 6569 c-4 -16 -3 -18 9 -8 16 13 19 29 5 29 -5 0 -11 -9 -14
-21z"/>
<path d="M11090 6510 c0 -5 5 -10 10 -10 6 0 10 5 10 10 0 6 -4 10 -10 10 -5
0 -10 -4 -10 -10z"/>
<path d="M5800 6440 c0 -5 5 -10 10 -10 6 0 10 5 10 10 0 6 -4 10 -10 10 -5 0
-10 -4 -10 -10z"/>
<path d="M11176 6382 c-4 -7 0 -19 8 -28 17 -17 19 -11 7 20 -5 14 -10 16 -15
8z"/>
<path d="M5047 6354 c-12 -12 -8 -36 5 -28 7 5 8 3 3 -6 -14 -23 25 -170 45
-170 7 0 8 5 3 13 -4 6 -10 52 -13 102 -4 70 -8 90 -20 93 -9 1 -19 0 -23 -4z"/>
<path d="M12020 6330 c0 -5 5 -10 10 -10 6 0 10 5 10 10 0 6 -4 10 -10 10 -5
0 -10 -4 -10 -10z"/>
<path d="M878 6283 c6 -2 18 -2 25 0 6 3 1 5 -13 5 -14 0 -19 -2 -12 -5z"/>
<path d="M11758 6213 c-2 -32 -2 -93 0 -135 l4 -78 54 0 54 0 0 120 c0 100 -2
120 -15 120 -8 0 -15 7 -15 15 0 11 -11 15 -40 15 l-39 0 -3 -57z"/>
<path d="M11710 6180 c0 -35 3 -60 7 -57 7 8 5 108 -2 116 -3 2 -5 -24 -5 -59z"/>
<path d="M5299 6184 c-12 -14 -11 -16 5 -13 11 2 21 10 24 17 5 17 -13 15 -29
-4z"/>
<path d="M6000 6179 c0 -24 26 -54 34 -41 4 7 -2 22 -13 34 -16 16 -21 18 -21
7z"/>
<path d="M6180 6180 c0 -5 5 -10 10 -10 6 0 10 5 10 10 0 6 -4 10 -10 10 -5 0
-10 -4 -10 -10z"/>
<path d="M5275 6150 c-3 -6 1 -7 9 -4 18 7 21 14 7 14 -6 0 -13 -4 -16 -10z"/>
<path d="M12020 6145 c0 -8 4 -15 9 -15 5 0 11 7 15 15 3 9 0 15 -9 15 -8 0
-15 -7 -15 -15z"/>
<path d="M5531 6104 c-19 -25 -31 -47 -28 -51 4 -3 22 -7 42 -9 37 -3 49 14
15 23 -26 7 -25 28 2 47 14 10 19 19 13 25 -6 6 -23 -7 -44 -35z"/>
<path d="M5230 6100 c-13 -11 -27 -20 -32 -20 -4 0 -8 -5 -8 -10 0 -15 56 16
63 35 8 20 5 19 -23 -5z"/>
<path d="M11720 6071 c0 -17 18 -21 24 -6 3 9 0 15 -9 15 -8 0 -15 -4 -15 -9z"/>
<path d="M4332 6054 c9 -9 21 -13 27 -10 20 13 11 26 -16 26 -25 0 -26 -1 -11
-16z"/>
<path d="M5212 6043 c-12 -10 -32 -39 -46 -65 -14 -26 -78 -98 -141 -160 -63
-62 -115 -118 -115 -123 0 -21 249 232 271 276 12 24 33 54 48 66 14 13 21 23
15 23 -7 0 -21 -8 -32 -17z"/>
<path d="M5441 5974 c0 -11 3 -14 6 -6 3 7 2 16 -1 19 -3 4 -6 -2 -5 -13z"/>
<path d="M4347 5951 c-4 -17 2 -20 57 -23 33 -2 63 -3 64 -2 7 4 -86 44 -101
44 -8 0 -17 -9 -20 -19z"/>
<path d="M5400 5910 c0 -6 -16 -35 -37 -65 -20 -31 -33 -58 -30 -62 4 -3 8 -4
10 -2 36 52 77 121 77 129 0 5 -4 10 -10 10 -5 0 -10 -5 -10 -10z"/>
<path d="M4455 5859 c-4 -6 -5 -13 -2 -16 8 -7 47 7 47 18 0 13 -37 11 -45 -2z"/>
<path d="M4871 5815 c-11 -19 -17 -35 -12 -35 6 0 17 17 39 63 2 4 1 7 -1 7
-3 0 -14 -16 -26 -35z"/>
<path d="M1061 5824 c0 -11 3 -14 6 -6 3 7 2 16 -1 19 -3 4 -6 -2 -5 -13z"/>
<path d="M5735 5830 c3 -5 10 -10 16 -10 5 0 9 5 9 10 0 6 -7 10 -16 10 -8 0
-12 -4 -9 -10z"/>
<path d="M4450 5807 c0 -9 -13 -18 -29 -22 -16 -3 -36 -13 -43 -22 -12 -14
-10 -16 15 -9 32 8 36 -8 6 -24 -33 -18 -15 -23 25 -6 42 17 46 9 11 -24 -13
-12 -22 -27 -19 -31 3 -5 0 -9 -5 -9 -20 0 -11 -18 12 -25 21 -6 21 -7 -8 -20
-27 -13 -27 -14 -7 -15 26 0 29 -15 6 -28 -15 -8 -15 -10 1 -15 11 -5 14 -13
10 -26 -4 -14 0 -21 15 -26 20 -6 29 -35 10 -35 -5 0 -10 -4 -10 -10 0 -5 10
-10 23 -10 l22 -1 -23 -19 -22 -18 29 -7 c16 -3 32 -13 35 -21 3 -8 16 -14 29
-14 14 0 41 -7 60 -15 20 -8 42 -15 50 -15 18 0 74 123 83 180 4 25 13 62 20
82 7 22 9 38 4 38 -6 0 -10 -9 -10 -19 0 -11 -4 -23 -10 -26 -12 -7 -12 -1 0
49 9 43 -5 71 -30 56 -12 -7 -46 5 -60 21 -3 3 -13 8 -23 12 -9 4 -16 12 -15
19 2 6 -10 14 -27 17 -18 4 -31 14 -35 26 -7 26 -90 37 -90 12z m260 -177 c0
-5 -5 -10 -11 -10 -5 0 -7 5 -4 10 3 6 8 10 11 10 2 0 4 -4 4 -10z"/>
<path d="M5383 5770 c1 -19 25 -36 35 -25 3 3 0 5 -6 5 -7 0 -12 9 -12 20 0
11 -4 20 -9 20 -6 0 -9 -9 -8 -20z"/>
<path d="M4901 5755 c-6 -16 -17 -43 -23 -60 -6 -16 -17 -37 -25 -46 -16 -19
-17 -29 -3 -29 6 0 10 7 10 15 0 8 5 15 10 15 6 0 10 6 10 13 0 7 9 30 21 51
11 21 18 45 16 54 -3 12 -7 8 -16 -13z"/>
<path d="M5375 5720 c-3 -5 -1 -10 4 -10 6 0 11 5 11 10 0 6 -2 10 -4 10 -3 0
-8 -4 -11 -10z"/>
<path d="M5475 5690 c-3 -5 -1 -10 4 -10 6 0 11 5 11 10 0 6 -2 10 -4 10 -3 0
-8 -4 -11 -10z"/>
<path d="M5415 5679 c-4 -6 -5 -12 -2 -15 2 -3 7 2 10 11 7 17 1 20 -8 4z"/>
<path d="M1865 5450 c11 -5 27 -9 35 -9 9 0 8 4 -5 9 -11 5 -27 9 -35 9 -9 0
-8 -4 5 -9z"/>
<path d="M2000 5249 c0 -17 4 -28 10 -24 6 3 10 17 10 31 0 13 -4 24 -10 24
-5 0 -10 -14 -10 -31z"/>
<path d="M11270 5188 c0 -12 7 -18 23 -17 15 0 17 2 7 6 -8 3 -18 11 -22 17
-5 7 -8 4 -8 -6z"/>
<path d="M11600 4680 c0 -5 5 -10 10 -10 6 0 10 5 10 10 0 6 -4 10 -10 10 -5
0 -10 -4 -10 -10z"/>
<path d="M11562 4640 c0 -14 2 -19 5 -12 2 6 2 18 0 25 -3 6 -5 1 -5 -13z"/>
<path d="M11641 4524 c0 -11 3 -14 6 -6 3 7 2 16 -1 19 -3 4 -6 -2 -5 -13z"/>
<path d="M11721 4344 c0 -11 3 -14 6 -6 3 7 2 16 -1 19 -3 4 -6 -2 -5 -13z"/>
<path d="M6800 4225 c0 -11 11 -15 40 -15 29 0 40 4 40 15 0 11 -11 15 -40 15
-29 0 -40 -4 -40 -15z"/>
<path d="M3300 3435 c-7 -8 -17 -15 -22 -15 -16 0 -117 -64 -118 -74 0 -12
103 1 143 18 36 15 97 63 97 77 0 15 -86 10 -100 -6z"/>
<path d="M6441 3141 c-1 -27 2 -32 11 -23 8 8 8 17 0 34 -10 22 -11 21 -11
-11z"/>
<path d="M6442 2980 c0 -14 2 -19 5 -12 2 6 2 18 0 25 -3 6 -5 1 -5 -13z"/>
<path d="M6415 2810 c-3 -5 -1 -10 4 -10 6 0 11 5 11 10 0 6 -2 10 -4 10 -3 0
-8 -4 -11 -10z"/>
<path d="M6400 2770 c0 -5 5 -10 11 -10 5 0 7 5 4 10 -3 6 -8 10 -11 10 -2 0
-4 -4 -4 -10z"/>
<path d="M3475 2720 c-3 -5 1 -10 9 -10 9 0 16 5 16 10 0 6 -4 10 -9 10 -6 0
-13 -4 -16 -10z"/>
<path d="M6391 2654 c0 -11 3 -14 6 -6 3 7 2 16 -1 19 -3 4 -6 -2 -5 -13z"/>
<path d="M3208 2553 c6 -2 18 -2 25 0 6 3 1 5 -13 5 -14 0 -19 -2 -12 -5z"/>
<path d="M4296 2414 c-50 -7 -93 -18 -97 -26 -11 -16 -23 -58 -18 -62 5 -4
189 12 216 19 19 4 61 62 51 69 -13 11 -77 11 -152 0z"/>
<path d="M6780 2280 c0 -5 5 -10 10 -10 6 0 10 5 10 10 0 6 -4 10 -10 10 -5 0
-10 -4 -10 -10z"/>
<path d="M3890 2220 c-9 -6 -10 -10 -3 -10 6 0 15 5 18 10 8 12 4 12 -15 0z"/>
<path d="M11960 2202 c-9 -9 -22 -26 -30 -36 -14 -18 -14 -19 6 -8 12 6 29 23
38 37 18 28 9 33 -14 7z"/>
<path d="M12778 2165 c-6 -13 -15 -22 -19 -19 -5 3 -9 -11 -9 -30 0 -25 -4
-36 -15 -36 -8 0 -15 9 -15 20 0 22 -18 28 -24 8 -3 -7 -7 -43 -10 -79 -4 -51
-1 -71 10 -85 11 -14 17 -15 20 -6 3 6 23 12 45 12 l39 0 0 120 c0 66 -2 120
-5 120 -3 0 -10 -11 -17 -25z m-11 -77 c-3 -7 -5 -2 -5 12 0 14 2 19 5 13 2
-7 2 -19 0 -25z"/>
<path d="M6780 1831 c0 -6 5 -13 10 -16 6 -3 10 1 10 9 0 9 -4 16 -10 16 -5 0
-10 -4 -10 -9z"/>
<path d="M12787 1703 c-11 -10 -8 -103 3 -103 6 0 10 25 10 55 0 56 -1 60 -13
48z"/>
<path d="M12737 1397 c-37 -12 -37 -12 -18 -27 15 -10 21 -25 21 -52 0 -32 -3
-38 -22 -39 -13 0 -17 -3 -10 -6 26 -10 10 -21 -25 -16 -24 4 -34 3 -30 -4 8
-13 67 -23 67 -11 0 12 48 10 55 -2 17 -27 25 -2 25 80 0 98 1 97 -63 77z m33
-27 c0 -5 -5 -10 -11 -10 -5 0 -7 5 -4 10 3 6 8 10 11 10 2 0 4 -4 4 -10z"/>
<path d="M6838 1193 c6 -2 18 -2 25 0 6 3 1 5 -13 5 -14 0 -19 -2 -12 -5z"/>
<path d="M6783 1155 c-3 -9 -2 -19 2 -23 4 -4 10 -1 12 6 3 6 15 12 28 12 13
0 27 5 30 10 4 6 -8 10 -30 10 -23 0 -38 -5 -42 -15z"/>
<path d="M11802 1080 c-18 -16 -39 -30 -46 -30 -7 0 -21 -7 -32 -15 -17 -13
-10 -14 71 -14 59 0 83 3 70 9 -11 5 -30 9 -42 9 -16 1 -20 6 -16 21 3 11 12
20 19 20 8 0 14 7 14 15 0 20 0 20 -38 -15z"/>
<path d="M12555 1020 c3 -5 11 -10 16 -10 6 0 7 5 4 10 -3 6 -11 10 -16 10 -6
0 -7 -4 -4 -10z"/>
<path d="M5098 263 c7 -3 16 -2 19 1 4 3 -2 6 -13 5 -11 0 -14 -3 -6 -6z"/>
<path d="M5279 243 c-13 -16 -12 -17 4 -4 9 7 17 15 17 17 0 8 -8 3 -21 -13z"/>
<path d="M5247 223 c-4 -3 -7 -11 -7 -17 0 -6 5 -5 12 2 6 6 9 14 7 17 -3 3
-9 2 -12 -2z"/>
<path d="M5165 145 c-19 -15 -24 -24 -15 -24 8 -1 26 11 39 24 30 32 15 32
-24 0z"/>
<path d="M6228 154 c-4 -3 2 -15 12 -27 11 -11 23 -17 27 -13 4 3 -2 16 -13
27 -11 11 -23 17 -26 13z"/>
<path d="M5220 109 c0 -5 11 -9 25 -9 14 0 25 2 25 4 0 2 -11 6 -25 8 -14 3
-25 1 -25 -3z"/>
<path d="M6145 80 c-4 -6 13 -10 44 -10 28 0 51 5 51 10 0 6 -20 10 -44 10
-25 0 -48 -4 -51 -10z"/>
</g>
</svg>
